RangeenGradient-COLR.ttx.ufo
<glyph name="exclam" format="2">
  <advance width="158"/>
  <unicode hex="0021"/>
  <outline>
    <contour>
      <point x="50" y="812" type="line"/>
      <point x="50" y="822"/>
      <point x="65" y="837"/>
      <point x="85" y="837"/>
      <point x="100" y="822"/>
      <point x="100" y="812" type="qcurve"/>
      <point x="106" y="323" type="line"/>
      <point x="106" y="313"/>
      <point x="91" y="298"/>
      <point x="71" y="298"/>
      <point x="56" y="313"/>
      <point x="56" y="323" type="qcurve"/>
    </contour>
    <contour>
      <point x="59" y="203" type="line"/>
      <point x="59" y="213"/>
      <point x="74" y="228"/>
      <point x="94" y="228"/>
      <point x="109" y="213"/>
      <point x="109" y="203" type="qcurve"/>
      <point x="109" y="137" type="line"/>
      <point x="109" y="127"/>
      <point x="94" y="112"/>
      <point x="74" y="112"/>
      <point x="59" y="127"/>
      <point x="59" y="137" type="qcurve"/>
    </contour>
  </outline>
</glyph>
<glyph name="quotedbl" format="2">
  <advance width="242"/>
  <unicode hex="0022"/>
  <outline>
    <contour>
      <point x="50" y="737" type="qcurve"/>
      <point x="50" y="747"/>
      <point x="65" y="762"/>
      <point x="85" y="762"/>
      <point x="93" y="755" type="qcurve"/>
      <point x="100" y="748"/>
      <point x="100" y="738" type="qcurve"/>
      <point x="103" y="672" type="line"/>
      <point x="103" y="672"/>
      <point x="103" y="671" type="qcurve"/>
      <point x="103" y="661"/>
      <point x="88" y="646"/>
      <point x="68" y="646"/>
      <point x="60" y="653" type="qcurve"/>
      <point x="53" y="660"/>
      <point x="53" y="670" type="qcurve"/>
      <point x="50" y="736" type="line"/>
      <point x="50" y="736"/>
    </contour>
    <contour>
      <point x="140" y="740" type="qcurve"/>
      <point x="140" y="750"/>
      <point x="155" y="765"/>
      <point x="175" y="765"/>
      <point x="183" y="758" type="qcurve"/>
      <point x="190" y="751"/>
      <point x="190" y="741" type="qcurve"/>
      <point x="193" y="675" type="line"/>
      <point x="193" y="675"/>
      <point x="193" y="674" type="qcurve"/>
      <point x="193" y="664"/>
      <point x="178" y="649"/>
      <point x="158" y="649"/>
      <point x="150" y="656" type="qcurve"/>
      <point x="143" y="663"/>
      <point x="143" y="673" type="qcurve"/>
      <point x="140" y="739" type="line"/>
      <point x="140" y="739"/>
    </contour>
  </outline>
</glyph>
<glyph name="numbersign" format="2">
  <advance width="560"/>
  <unicode hex="0023"/>
  <outline>
    <contour>
      <point x="75" y="230" type="qcurve"/>
      <point x="65" y="230"/>
      <point x="50" y="245"/>
      <point x="50" y="265"/>
      <point x="57" y="273" type="qcurve"/>
      <point x="64" y="280"/>
      <point x="74" y="280" type="qcurve"/>
      <point x="485" y="289" type="line"/>
      <point x="486" y="289"/>
      <point x="486" y="289" type="qcurve"/>
      <point x="496" y="289"/>
      <point x="511" y="274"/>
      <point x="511" y="254"/>
      <point x="504" y="246" type="qcurve"/>
      <point x="497" y="239"/>
      <point x="487" y="239" type="qcurve"/>
      <point x="76" y="230" type="line"/>
      <point x="75" y="230"/>
    </contour>
    <contour>
      <point x="75" y="430" type="qcurve"/>
      <point x="65" y="430"/>
      <point x="50" y="445"/>
      <point x="50" y="465"/>
      <point x="57" y="473" type="qcurve"/>
      <point x="64" y="480"/>
      <point x="74" y="480" type="qcurve"/>
      <point x="485" y="489" type="line"/>
      <point x="486" y="489"/>
      <point x="486" y="489" type="qcurve"/>
      <point x="496" y="489"/>
      <point x="511" y="474"/>
      <point x="511" y="454"/>
      <point x="504" y="446" type="qcurve"/>
      <point x="497" y="439"/>
      <point x="487" y="439" type="qcurve"/>
      <point x="76" y="430" type="line"/>
      <point x="75" y="430"/>
    </contour>
    <contour>
      <point x="399" y="567" type="qcurve"/>
      <point x="409" y="567"/>
      <point x="424" y="552"/>
      <point x="424" y="542" type="qcurve"/>
      <point x="424" y="540"/>
      <point x="424" y="538" type="qcurve"/>
      <point x="370" y="187" type="line"/>
      <point x="368" y="178"/>
      <point x="354" y="166"/>
      <point x="345" y="166" type="qcurve"/>
      <point x="335" y="166"/>
      <point x="320" y="181"/>
      <point x="320" y="191" type="qcurve"/>
      <point x="320" y="193"/>
      <point x="320" y="195" type="qcurve"/>
      <point x="374" y="546" type="line"/>
      <point x="376" y="555"/>
      <point x="390" y="567"/>
    </contour>
    <contour>
      <point x="198" y="567" type="qcurve"/>
      <point x="208" y="567"/>
      <point x="223" y="552"/>
      <point x="223" y="542" type="qcurve"/>
      <point x="223" y="540"/>
      <point x="223" y="538" type="qcurve"/>
      <point x="169" y="187" type="line"/>
      <point x="167" y="178"/>
      <point x="153" y="166"/>
      <point x="144" y="166" type="qcurve"/>
      <point x="134" y="166"/>
      <point x="119" y="181"/>
      <point x="119" y="191" type="qcurve"/>
      <point x="119" y="193"/>
      <point x="119" y="195" type="qcurve"/>
      <point x="173" y="546" type="line"/>
      <point x="175" y="555"/>
      <point x="189" y="567"/>
    </contour>
  </outline>
</glyph>
<glyph name="dollar" format="2">
  <advance width="351"/>
  <unicode hex="0024"/>
  <outline>
    <contour>
      <point x="271" y="635" type="qcurve"/>
      <point x="271" y="625"/>
      <point x="256" y="610"/>
      <point x="246" y="610" type="qcurve"/>
      <point x="240" y="610"/>
      <point x="234" y="613" type="qcurve"/>
      <point x="224" y="619"/>
      <point x="214" y="627" type="qcurve"/>
      <point x="214" y="611" type="line"/>
      <point x="214" y="601"/>
      <point x="199" y="586"/>
      <point x="179" y="586"/>
      <point x="164" y="601"/>
      <point x="164" y="611" type="qcurve"/>
      <point x="164" y="644" type="line"/>
      <point x="157" y="639"/>
      <point x="151" y="633" type="qcurve"/>
      <point x="116" y="598"/>
      <point x="116" y="547" type="qcurve"/>
      <point x="116" y="529"/>
      <point x="121" y="513" type="qcurve"/>
      <point x="136" y="495"/>
      <point x="179" y="458" type="qcurve"/>
      <point x="207" y="434"/>
      <point x="235" y="408"/>
      <point x="275" y="359"/>
      <point x="286" y="335" type="qcurve"/>
      <point x="301" y="302"/>
      <point x="301" y="265" type="qcurve"/>
      <point x="301" y="237"/>
      <point x="292" y="208" type="qcurve"/>
      <point x="290" y="171"/>
      <point x="265" y="146" type="qcurve"/>
      <point x="237" y="118"/>
      <point x="191" y="109" type="qcurve"/>
      <point x="186" y="108"/>
      <point x="181" y="108" type="qcurve"/>
      <point x="181" y="-1" type="line"/>
      <point x="181" y="-11"/>
      <point x="166" y="-26"/>
      <point x="146" y="-26"/>
      <point x="131" y="-11"/>
      <point x="131" y="-1" type="qcurve"/>
      <point x="131" y="112" type="line"/>
      <point x="114" y="118"/>
      <point x="90" y="140" type="qcurve"/>
      <point x="80" y="149"/>
      <point x="74" y="154" type="qcurve"/>
      <point x="68" y="159"/>
      <point x="66" y="166" type="qcurve"/>
      <point x="51" y="220" type="line"/>
      <point x="50" y="224"/>
      <point x="50" y="227" type="qcurve"/>
      <point x="50" y="237"/>
      <point x="65" y="252"/>
      <point x="75" y="252" type="qcurve"/>
      <point x="83" y="252"/>
      <point x="97" y="241"/>
      <point x="99" y="234" type="qcurve"/>
      <point x="112" y="187" type="line"/>
      <point x="116" y="184"/>
      <point x="123" y="177" type="qcurve"/>
      <point x="128" y="173"/>
      <point x="131" y="170" type="qcurve"/>
      <point x="131" y="203" type="line"/>
      <point x="131" y="213"/>
      <point x="146" y="228"/>
      <point x="166" y="228"/>
      <point x="181" y="213"/>
      <point x="181" y="203" type="qcurve"/>
      <point x="181" y="158" type="line"/>
      <point x="181" y="159"/>
      <point x="181" y="159" type="qcurve"/>
      <point x="213" y="164"/>
      <point x="229" y="181" type="qcurve"/>
      <point x="242" y="194"/>
      <point x="242" y="212" type="qcurve"/>
      <point x="242" y="216"/>
      <point x="243" y="220" type="qcurve"/>
      <point x="252" y="244"/>
      <point x="252" y="266" type="qcurve"/>
      <point x="252" y="290"/>
      <point x="241" y="314" type="qcurve"/>
      <point x="232" y="333"/>
      <point x="196" y="376"/>
      <point x="171" y="399"/>
      <point x="146" y="420" type="qcurve"/>
      <point x="98" y="462"/>
      <point x="80" y="484" type="qcurve"/>
      <point x="77" y="487"/>
      <point x="76" y="491" type="qcurve"/>
      <point x="65" y="518"/>
      <point x="65" y="547" type="qcurve"/>
      <point x="65" y="618"/>
      <point x="115" y="668" type="qcurve"/>
      <point x="137" y="690"/>
      <point x="164" y="701" type="qcurve"/>
      <point x="164" y="803" type="line"/>
      <point x="164" y="813"/>
      <point x="179" y="828"/>
      <point x="199" y="828"/>
      <point x="214" y="813"/>
      <point x="214" y="803" type="qcurve"/>
      <point x="214" y="697" type="line"/>
      <point x="217" y="694"/>
      <point x="237" y="674" type="qcurve"/>
      <point x="250" y="661"/>
      <point x="258" y="657" type="qcurve"/>
      <point x="271" y="650"/>
    </contour>
  </outline>
</glyph>
<glyph name="percent" format="2">
  <advance width="551"/>
  <unicode hex="0025"/>
  <outline>
    <contour>
      <point x="350" y="277"/>
      <point x="350" y="357"/>
      <point x="376" y="384" type="qcurve"/>
      <point x="398" y="405"/>
      <point x="454" y="405"/>
      <point x="476" y="384" type="qcurve"/>
      <point x="502" y="357"/>
      <point x="502" y="277"/>
      <point x="476" y="250" type="qcurve"/>
      <point x="454" y="229"/>
      <point x="398" y="229"/>
      <point x="376" y="250" type="qcurve"/>
    </contour>
    <contour>
      <point x="400" y="337"/>
      <point x="400" y="297"/>
      <point x="412" y="286" type="qcurve"/>
      <point x="418" y="279"/>
      <point x="434" y="279"/>
      <point x="440" y="286" type="qcurve"/>
      <point x="452" y="297"/>
      <point x="452" y="337"/>
      <point x="440" y="348" type="qcurve"/>
      <point x="434" y="355"/>
      <point x="418" y="355"/>
      <point x="412" y="348" type="qcurve"/>
    </contour>
    <contour>
      <point x="50" y="577"/>
      <point x="50" y="657"/>
      <point x="76" y="684" type="qcurve"/>
      <point x="98" y="705"/>
      <point x="154" y="705"/>
      <point x="176" y="684" type="qcurve"/>
      <point x="202" y="657"/>
      <point x="202" y="577"/>
      <point x="176" y="550" type="qcurve"/>
      <point x="154" y="529"/>
      <point x="98" y="529"/>
      <point x="76" y="550" type="qcurve"/>
    </contour>
    <contour>
      <point x="100" y="637"/>
      <point x="100" y="597"/>
      <point x="112" y="586" type="qcurve"/>
      <point x="118" y="579"/>
      <point x="134" y="579"/>
      <point x="140" y="586" type="qcurve"/>
      <point x="152" y="597"/>
      <point x="152" y="637"/>
      <point x="140" y="648" type="qcurve"/>
      <point x="134" y="655"/>
      <point x="118" y="655"/>
      <point x="112" y="648" type="qcurve"/>
    </contour>
    <contour>
      <point x="417" y="672" type="qcurve"/>
      <point x="427" y="672"/>
      <point x="442" y="657"/>
      <point x="442" y="647" type="qcurve"/>
      <point x="442" y="639"/>
      <point x="437" y="633" type="qcurve"/>
      <point x="107" y="168" type="line"/>
      <point x="100" y="157"/>
      <point x="87" y="157" type="qcurve"/>
      <point x="77" y="157"/>
      <point x="62" y="172"/>
      <point x="62" y="182" type="qcurve"/>
      <point x="62" y="190"/>
      <point x="67" y="196" type="qcurve"/>
      <point x="397" y="661" type="line"/>
      <point x="404" y="672"/>
    </contour>
  </outline>
</glyph>
<glyph name="ampersand" format="2">
  <advance width="428"/>
  <unicode hex="0026"/>
  <outline>
    <contour>
      <point x="299" y="547" type="qcurve"/>
      <point x="299" y="517"/>
      <point x="282" y="466"/>
      <point x="246" y="418"/>
      <point x="220" y="391"/>
      <point x="196" y="369" type="qcurve"/>
      <point x="199" y="361"/>
      <point x="228" y="290"/>
      <point x="247" y="247"/>
      <point x="258" y="232" type="qcurve"/>
      <point x="295" y="177" type="line"/>
      <point x="306" y="197"/>
      <point x="315" y="218" type="qcurve"/>
      <point x="329" y="253"/>
      <point x="329" y="272" type="qcurve"/>
      <point x="329" y="282"/>
      <point x="344" y="297"/>
      <point x="364" y="297"/>
      <point x="379" y="282"/>
      <point x="379" y="272" type="qcurve"/>
      <point x="379" y="243"/>
      <point x="361" y="199" type="qcurve"/>
      <point x="346" y="161"/>
      <point x="325" y="132" type="qcurve"/>
      <point x="360" y="81" type="line"/>
      <point x="364" y="75"/>
      <point x="364" y="67" type="qcurve"/>
      <point x="364" y="57"/>
      <point x="350" y="42"/>
      <point x="339" y="42" type="qcurve"/>
      <point x="326" y="42"/>
      <point x="319" y="53" type="qcurve"/>
      <point x="291" y="94" type="line"/>
      <point x="265" y="73"/>
      <point x="237" y="73" type="qcurve"/>
      <point x="182" y="73"/>
      <point x="108" y="90"/>
      <point x="85" y="114" type="qcurve"/>
      <point x="50" y="148"/>
      <point x="50" y="215" type="qcurve"/>
      <point x="50" y="266"/>
      <point x="96" y="343"/>
      <point x="135" y="381" type="qcurve"/>
      <point x="133" y="385"/>
      <point x="131" y="389" type="qcurve"/>
      <point x="121" y="407"/>
      <point x="115" y="444" type="qcurve"/>
      <point x="111" y="470"/>
      <point x="106" y="481" type="qcurve"/>
      <point x="104" y="486"/>
      <point x="104" y="491" type="qcurve"/>
      <point x="104" y="644" type="line"/>
      <point x="104" y="649"/>
      <point x="106" y="653" type="qcurve"/>
      <point x="133" y="722" type="line"/>
      <point x="136" y="730"/>
      <point x="144" y="735" type="qcurve"/>
      <point x="146" y="736"/>
      <point x="163" y="753" type="qcurve"/>
      <point x="176" y="766"/>
      <point x="191" y="772" type="qcurve"/>
      <point x="206" y="777"/>
      <point x="225" y="777" type="qcurve"/>
      <point x="247" y="777"/>
      <point x="263" y="761" type="qcurve"/>
      <point x="284" y="740"/>
      <point x="292" y="689" type="qcurve"/>
      <point x="297" y="656"/>
      <point x="297" y="593" type="qcurve"/>
      <point x="297" y="571"/>
      <point x="298" y="565" type="qcurve"/>
      <point x="299" y="556"/>
    </contour>
    <contour>
      <point x="225" y="727" type="qcurve"/>
      <point x="215" y="727"/>
      <point x="208" y="725" type="qcurve"/>
      <point x="204" y="723"/>
      <point x="199" y="718" type="qcurve"/>
      <point x="180" y="699"/>
      <point x="176" y="697" type="qcurve"/>
      <point x="154" y="639" type="line"/>
      <point x="154" y="496" type="line"/>
      <point x="160" y="481"/>
      <point x="164" y="452" type="qcurve"/>
      <point x="168" y="427"/>
      <point x="173" y="416" type="qcurve"/>
      <point x="184" y="426"/>
      <point x="191" y="433" type="qcurve"/>
      <point x="220" y="462"/>
      <point x="249" y="514"/>
      <point x="249" y="546" type="qcurve"/>
      <point x="249" y="553"/>
      <point x="247" y="568"/>
      <point x="247" y="593" type="qcurve"/>
      <point x="246" y="683"/>
      <point x="234" y="713" type="qcurve"/>
      <point x="231" y="722"/>
      <point x="227" y="726" type="qcurve"/>
      <point x="226" y="727"/>
      <point x="226" y="727" type="qcurve"/>
      <point x="226" y="727"/>
    </contour>
    <contour>
      <point x="100" y="215" type="qcurve"/>
      <point x="100" y="169"/>
      <point x="120" y="149" type="qcurve"/>
      <point x="133" y="136"/>
      <point x="157" y="130" type="qcurve"/>
      <point x="185" y="123"/>
      <point x="237" y="123" type="qcurve"/>
      <point x="238" y="123"/>
      <point x="246" y="126"/>
      <point x="258" y="132"/>
      <point x="262" y="136" type="qcurve"/>
      <point x="216" y="204" type="line"/>
      <point x="209" y="215"/>
      <point x="196" y="239"/>
      <point x="182" y="269"/>
      <point x="175" y="287"/>
      <point x="160" y="325"/>
      <point x="157" y="332" type="qcurve"/>
      <point x="100" y="274"/>
    </contour>
  </outline>
</glyph>
<glyph name="quotesingle" format="2">
  <advance width="152"/>
  <unicode hex="0027"/>
  <outline>
    <contour>
      <point x="68" y="753"/>
      <point x="88" y="753"/>
      <point x="103" y="738"/>
      <point x="103" y="728" type="qcurve"/>
      <point x="103" y="728"/>
      <point x="103" y="727" type="qcurve"/>
      <point x="100" y="616" type="line"/>
      <point x="100" y="606"/>
      <point x="93" y="599" type="qcurve"/>
      <point x="85" y="592"/>
      <point x="65" y="592"/>
      <point x="50" y="607"/>
      <point x="50" y="617" type="qcurve"/>
      <point x="50" y="617"/>
      <point x="50" y="618" type="qcurve"/>
      <point x="53" y="729" type="line"/>
      <point x="53" y="739"/>
      <point x="60" y="746" type="qcurve"/>
    </contour>
  </outline>
</glyph>
<glyph name="parenleft" format="2">
  <advance width="203"/>
  <unicode hex="0028"/>
  <outline>
    <contour>
      <point x="100" y="467" type="qcurve"/>
      <point x="100" y="272"/>
      <point x="113" y="126" type="qcurve"/>
      <point x="124" y="16"/>
      <point x="138" y="-21" type="qcurve"/>
      <point x="140" y="-27" type="line"/>
      <point x="154" y="-33"/>
      <point x="154" y="-49" type="qcurve"/>
      <point x="154" y="-59"/>
      <point x="139" y="-74"/>
      <point x="129" y="-74" type="qcurve"/>
      <point x="116" y="-74"/>
      <point x="106" y="-64" type="qcurve"/>
      <point x="99" y="-57"/>
      <point x="93" y="-45" type="qcurve"/>
      <point x="88" y="-33"/>
      <point x="84" y="-15" type="qcurve"/>
      <point x="74" y="23"/>
      <point x="67" y="89" type="qcurve"/>
      <point x="50" y="242"/>
      <point x="50" y="692"/>
      <point x="67" y="845" type="qcurve"/>
      <point x="74" y="911"/>
      <point x="84" y="949" type="qcurve"/>
      <point x="88" y="967"/>
      <point x="93" y="979" type="qcurve"/>
      <point x="99" y="991"/>
      <point x="106" y="998" type="qcurve"/>
      <point x="116" y="1008"/>
      <point x="129" y="1008" type="qcurve"/>
      <point x="139" y="1008"/>
      <point x="154" y="993"/>
      <point x="154" y="983" type="qcurve"/>
      <point x="154" y="968"/>
      <point x="140" y="961" type="qcurve"/>
      <point x="136" y="951"/>
      <point x="132" y="937" type="qcurve"/>
      <point x="124" y="902"/>
      <point x="117" y="840" type="qcurve"/>
      <point x="100" y="689"/>
    </contour>
  </outline>
</glyph>
<glyph name="parenright" format="2">
  <advance width="203"/>
  <unicode hex="0029"/>
  <outline>
    <contour>
      <point x="75" y="-74" type="qcurve"/>
      <point x="65" y="-74"/>
      <point x="50" y="-59"/>
      <point x="50" y="-49" type="qcurve"/>
      <point x="50" y="-33"/>
      <point x="64" y="-27" type="qcurve"/>
      <point x="66" y="-21" type="line"/>
      <point x="80" y="16"/>
      <point x="91" y="126" type="qcurve"/>
      <point x="104" y="272"/>
      <point x="104" y="467" type="qcurve"/>
      <point x="104" y="689"/>
      <point x="87" y="840" type="qcurve"/>
      <point x="80" y="902"/>
      <point x="72" y="937" type="qcurve"/>
      <point x="68" y="951"/>
      <point x="64" y="961" type="qcurve"/>
      <point x="50" y="968"/>
      <point x="50" y="983" type="qcurve"/>
      <point x="50" y="993"/>
      <point x="65" y="1008"/>
      <point x="75" y="1008" type="qcurve"/>
      <point x="88" y="1008"/>
      <point x="98" y="998" type="qcurve"/>
      <point x="105" y="991"/>
      <point x="111" y="979" type="qcurve"/>
      <point x="116" y="967"/>
      <point x="120" y="949" type="qcurve"/>
      <point x="130" y="911"/>
      <point x="137" y="845" type="qcurve"/>
      <point x="154" y="692"/>
      <point x="154" y="242"/>
      <point x="137" y="89" type="qcurve"/>
      <point x="130" y="23"/>
      <point x="120" y="-15" type="qcurve"/>
      <point x="116" y="-33"/>
      <point x="111" y="-45" type="qcurve"/>
      <point x="105" y="-57"/>
      <point x="98" y="-64" type="qcurve"/>
      <point x="88" y="-74"/>
    </contour>
  </outline>
</glyph>
<glyph name="asterisk" format="2">
  <advance width="380"/>
  <unicode hex="002A"/>
  <outline>
    <contour>
      <point x="294" y="593"/>
      <point x="314" y="593"/>
      <point x="329" y="578"/>
      <point x="329" y="558"/>
      <point x="322" y="551" type="qcurve"/>
      <point x="95" y="318" type="line"/>
      <point x="87" y="311"/>
      <point x="67" y="311"/>
      <point x="52" y="326"/>
      <point x="52" y="346"/>
      <point x="59" y="353" type="qcurve"/>
      <point x="286" y="586" type="line"/>
    </contour>
    <contour>
      <point x="50" y="555"/>
      <point x="50" y="575"/>
      <point x="65" y="590"/>
      <point x="85" y="590"/>
      <point x="92" y="583" type="qcurve"/>
      <point x="324" y="357" type="line"/>
      <point x="331" y="349"/>
      <point x="331" y="329"/>
      <point x="316" y="314"/>
      <point x="296" y="314"/>
      <point x="289" y="321" type="qcurve"/>
      <point x="57" y="547" type="line"/>
    </contour>
    <contour>
      <point x="164" y="614" type="line"/>
      <point x="164" y="624"/>
      <point x="179" y="639"/>
      <point x="199" y="639"/>
      <point x="214" y="624"/>
      <point x="214" y="614" type="qcurve"/>
      <point x="217" y="290" type="line"/>
      <point x="217" y="280"/>
      <point x="202" y="265"/>
      <point x="182" y="265"/>
      <point x="167" y="280"/>
      <point x="167" y="290" type="qcurve"/>
    </contour>
  </outline>
</glyph>
<glyph name="plus" format="2">
  <advance width="428"/>
  <unicode hex="002B"/>
  <outline>
    <contour>
      <point x="181" y="554" type="line"/>
      <point x="181" y="564"/>
      <point x="196" y="579"/>
      <point x="216" y="579"/>
      <point x="231" y="564"/>
      <point x="231" y="554" type="qcurve"/>
      <point x="231" y="273" type="line"/>
      <point x="231" y="263"/>
      <point x="216" y="248"/>
      <point x="196" y="248"/>
      <point x="181" y="263"/>
      <point x="181" y="273" type="qcurve"/>
    </contour>
    <contour>
      <point x="75" y="386" type="line"/>
      <point x="65" y="386"/>
      <point x="50" y="401"/>
      <point x="50" y="421"/>
      <point x="65" y="436"/>
      <point x="75" y="436" type="qcurve"/>
      <point x="354" y="436" type="line"/>
      <point x="364" y="436"/>
      <point x="379" y="421"/>
      <point x="379" y="401"/>
      <point x="364" y="386"/>
      <point x="354" y="386" type="qcurve"/>
    </contour>
  </outline>
</glyph>
<glyph name="hyphen" format="2">
  <advance width="497"/>
  <unicode hex="002D"/>
  <outline>
    <contour>
      <point x="75" y="386" type="line"/>
      <point x="65" y="386"/>
      <point x="50" y="401"/>
      <point x="50" y="421"/>
      <point x="65" y="436"/>
      <point x="75" y="436" type="qcurve"/>
      <point x="423" y="436" type="line"/>
      <point x="433" y="436"/>
      <point x="448" y="421"/>
      <point x="448" y="401"/>
      <point x="433" y="386"/>
      <point x="423" y="386" type="qcurve"/>
    </contour>
  </outline>
</glyph>
<glyph name="period" format="2">
  <advance width="149"/>
  <unicode hex="002E"/>
  <outline>
    <contour>
      <point x="50" y="19"/>
      <point x="50" y="39"/>
      <point x="65" y="54"/>
      <point x="85" y="54"/>
      <point x="100" y="39"/>
      <point x="100" y="19"/>
      <point x="85" y="4"/>
      <point x="65" y="4"/>
    </contour>
  </outline>
</glyph>
<glyph name="slash" format="2">
  <advance width="380"/>
  <unicode hex="002F"/>
  <outline>
    <contour>
      <point x="75" y="82" type="qcurve"/>
      <point x="65" y="82"/>
      <point x="50" y="97"/>
      <point x="50" y="107" type="qcurve"/>
      <point x="50" y="112"/>
      <point x="52" y="117" type="qcurve"/>
      <point x="283" y="675" type="line"/>
      <point x="289" y="690"/>
      <point x="306" y="690" type="qcurve"/>
      <point x="316" y="690"/>
      <point x="331" y="675"/>
      <point x="331" y="665" type="qcurve"/>
      <point x="331" y="660"/>
      <point x="329" y="655" type="qcurve"/>
      <point x="98" y="97" type="line"/>
      <point x="92" y="82"/>
    </contour>
  </outline>
</glyph>
<glyph name="zero" format="2">
  <advance width="293"/>
  <unicode hex="0030"/>
  <outline>
    <contour>
      <point x="50" y="129"/>
      <point x="50" y="281"/>
      <point x="67" y="340" type="qcurve"/>
      <point x="82" y="389"/>
      <point x="105" y="412" type="qcurve"/>
      <point x="124" y="431"/>
      <point x="170" y="431"/>
      <point x="189" y="412" type="qcurve"/>
      <point x="212" y="389"/>
      <point x="227" y="340" type="qcurve"/>
      <point x="244" y="281"/>
      <point x="244" y="129"/>
      <point x="227" y="70" type="qcurve"/>
      <point x="212" y="21"/>
      <point x="189" y="-2" type="qcurve"/>
      <point x="170" y="-21"/>
      <point x="124" y="-21"/>
      <point x="105" y="-2" type="qcurve"/>
      <point x="82" y="21"/>
      <point x="67" y="70" type="qcurve"/>
    </contour>
    <contour>
      <point x="100" y="273"/>
      <point x="100" y="137"/>
      <point x="115" y="85" type="qcurve"/>
      <point x="126" y="48"/>
      <point x="140" y="33" type="qcurve"/>
      <point x="145" y="29"/>
      <point x="147" y="29" type="qcurve"/>
      <point x="149" y="29"/>
      <point x="154" y="33" type="qcurve"/>
      <point x="168" y="48"/>
      <point x="179" y="85" type="qcurve"/>
      <point x="194" y="137"/>
      <point x="194" y="273"/>
      <point x="179" y="325" type="qcurve"/>
      <point x="168" y="362"/>
      <point x="154" y="377" type="qcurve"/>
      <point x="149" y="381"/>
      <point x="147" y="381" type="qcurve"/>
      <point x="145" y="381"/>
      <point x="140" y="377" type="qcurve"/>
      <point x="126" y="362"/>
      <point x="115" y="325" type="qcurve"/>
    </contour>
  </outline>
</glyph>
<glyph name="one" format="2">
  <advance width="308"/>
  <unicode hex="0031"/>
  <outline>
    <contour>
      <point x="75" y="-25" type="line"/>
      <point x="65" y="-25"/>
      <point x="50" y="-10"/>
      <point x="50" y="10"/>
      <point x="65" y="25"/>
      <point x="75" y="25" type="qcurve"/>
      <point x="130" y="25" type="line"/>
      <point x="130" y="351" type="line"/>
      <point x="110" y="331" type="line"/>
      <point x="102" y="324"/>
      <point x="82" y="324"/>
      <point x="67" y="339"/>
      <point x="67" y="359"/>
      <point x="74" y="367" type="qcurve"/>
      <point x="137" y="429" type="line"/>
      <point x="145" y="436"/>
      <point x="165" y="436"/>
      <point x="180" y="421"/>
      <point x="180" y="411" type="qcurve"/>
      <point x="180" y="25" type="line"/>
      <point x="234" y="25" type="line"/>
      <point x="244" y="25"/>
      <point x="259" y="10"/>
      <point x="259" y="-10"/>
      <point x="244" y="-25"/>
      <point x="234" y="-25" type="qcurve"/>
      <point x="155" y="-25" type="line"/>
    </contour>
  </outline>
</glyph>
<glyph name="two" format="2">
  <advance width="405"/>
  <unicode hex="0032"/>
  <outline>
    <contour>
      <point x="232" y="436" type="qcurve"/>
      <point x="277" y="436"/>
      <point x="309" y="404" type="qcurve"/>
      <point x="330" y="383"/>
      <point x="341" y="352" type="qcurve"/>
      <point x="355" y="313"/>
      <point x="355" y="280" type="qcurve"/>
      <point x="355" y="229"/>
      <point x="323" y="185" type="qcurve"/>
      <point x="300" y="152"/>
      <point x="273" y="125" type="qcurve"/>
      <point x="259" y="110"/>
      <point x="224" y="81"/>
      <point x="200" y="63"/>
      <point x="157" y="33"/>
      <point x="146" y="25" type="qcurve"/>
      <point x="330" y="25" type="line"/>
      <point x="340" y="25"/>
      <point x="355" y="10"/>
      <point x="355" y="-10"/>
      <point x="340" y="-25"/>
      <point x="330" y="-25" type="qcurve"/>
      <point x="75" y="-25" type="line"/>
      <point x="65" y="-25"/>
      <point x="50" y="-10"/>
      <point x="50" y="0" type="qcurve"/>
      <point x="50" y="11"/>
      <point x="59" y="19" type="qcurve"/>
      <point x="91" y="47"/>
      <point x="149" y="89" type="qcurve"/>
      <point x="210" y="132"/>
      <point x="238" y="160" type="qcurve"/>
      <point x="260" y="182"/>
      <point x="283" y="214" type="qcurve"/>
      <point x="305" y="245"/>
      <point x="305" y="280" type="qcurve"/>
      <point x="305" y="304"/>
      <point x="295" y="334" type="qcurve"/>
      <point x="287" y="356"/>
      <point x="274" y="369" type="qcurve"/>
      <point x="256" y="386"/>
      <point x="232" y="386" type="qcurve"/>
      <point x="214" y="386"/>
      <point x="182" y="375"/>
      <point x="163" y="363"/>
      <point x="144" y="349" type="qcurve"/>
      <point x="109" y="323"/>
      <point x="86" y="312" type="qcurve"/>
      <point x="81" y="309"/>
      <point x="75" y="309" type="qcurve"/>
      <point x="65" y="309"/>
      <point x="50" y="324"/>
      <point x="50" y="334" type="qcurve"/>
      <point x="50" y="349"/>
      <point x="64" y="356" type="qcurve"/>
      <point x="83" y="366"/>
      <point x="114" y="389" type="qcurve"/>
      <point x="135" y="404"/>
      <point x="159" y="420"/>
      <point x="207" y="436"/>
    </contour>
  </outline>
</glyph>
<glyph name="four" format="2">
  <advance width="469"/>
  <unicode hex="0034"/>
  <outline>
    <contour>
      <point x="291" y="436" type="qcurve"/>
      <point x="301" y="436"/>
      <point x="316" y="421"/>
      <point x="316" y="411" type="qcurve"/>
      <point x="316" y="405"/>
      <point x="313" y="399" type="qcurve"/>
      <point x="116" y="25" type="line"/>
      <point x="395" y="25" type="line"/>
      <point x="405" y="25"/>
      <point x="420" y="10"/>
      <point x="420" y="-10"/>
      <point x="405" y="-25"/>
      <point x="395" y="-25" type="qcurve"/>
      <point x="75" y="-25" type="line"/>
      <point x="65" y="-25"/>
      <point x="50" y="-10"/>
      <point x="50" y="0" type="qcurve"/>
      <point x="50" y="6"/>
      <point x="53" y="12" type="qcurve"/>
      <point x="269" y="423" type="line"/>
      <point x="276" y="436"/>
    </contour>
    <contour>
      <point x="316" y="-205" type="line"/>
      <point x="316" y="-215"/>
      <point x="301" y="-230"/>
      <point x="281" y="-230"/>
      <point x="266" y="-215"/>
      <point x="266" y="-205" type="qcurve"/>
      <point x="266" y="411" type="line"/>
      <point x="266" y="421"/>
      <point x="281" y="436"/>
      <point x="301" y="436"/>
      <point x="316" y="421"/>
      <point x="316" y="411" type="qcurve"/>
    </contour>
    <contour>
      <point x="314" y="-209"/>
      <point x="314" y="-189"/>
      <point x="329" y="-174"/>
      <point x="349" y="-174"/>
      <point x="364" y="-189"/>
      <point x="364" y="-209"/>
      <point x="349" y="-224"/>
      <point x="329" y="-224"/>
    </contour>
  </outline>
</glyph>
<glyph name="five" format="2">
  <advance width="509"/>
  <unicode hex="0035"/>
  <outline>
    <contour>
      <point x="135" y="213" type="line"/>
      <point x="142" y="214"/>
      <point x="226" y="231"/>
      <point x="251" y="231" type="qcurve"/>
      <point x="286" y="231"/>
      <point x="319" y="217" type="qcurve"/>
      <point x="347" y="205"/>
      <point x="367" y="185" type="qcurve"/>
      <point x="382" y="169"/>
      <point x="406" y="124"/>
      <point x="417" y="93"/>
      <point x="426" y="63" type="qcurve"/>
      <point x="442" y="9"/>
      <point x="442" y="-28" type="qcurve"/>
      <point x="442" y="-71"/>
      <point x="422" y="-116" type="qcurve"/>
      <point x="409" y="-144"/>
      <point x="390" y="-164" type="qcurve"/>
      <point x="364" y="-190"/>
      <point x="301" y="-216" type="qcurve"/>
      <point x="268" y="-230"/>
      <point x="239" y="-234" type="qcurve"/>
      <point x="227" y="-235"/>
      <point x="214" y="-235" type="qcurve"/>
      <point x="188" y="-235"/>
      <point x="160" y="-230" type="qcurve"/>
      <point x="128" y="-223"/>
      <point x="91" y="-193" type="qcurve"/>
      <point x="73" y="-179"/>
      <point x="62" y="-172" type="qcurve"/>
      <point x="50" y="-165"/>
      <point x="50" y="-151" type="qcurve"/>
      <point x="50" y="-141"/>
      <point x="65" y="-126"/>
      <point x="75" y="-126" type="qcurve"/>
      <point x="82" y="-126"/>
      <point x="88" y="-130" type="qcurve"/>
      <point x="102" y="-138"/>
      <point x="122" y="-154" type="qcurve"/>
      <point x="150" y="-176"/>
      <point x="170" y="-180" type="qcurve"/>
      <point x="195" y="-185"/>
      <point x="214" y="-185" type="qcurve"/>
      <point x="223" y="-185"/>
      <point x="233" y="-184" type="qcurve"/>
      <point x="255" y="-181"/>
      <point x="281" y="-170" type="qcurve"/>
      <point x="335" y="-147"/>
      <point x="354" y="-128" type="qcurve"/>
      <point x="367" y="-115"/>
      <point x="376" y="-96" type="qcurve"/>
      <point x="392" y="-60"/>
      <point x="392" y="-28" type="qcurve"/>
      <point x="392" y="3"/>
      <point x="378" y="50" type="qcurve"/>
      <point x="354" y="126"/>
      <point x="331" y="150" type="qcurve"/>
      <point x="318" y="163"/>
      <point x="299" y="171" type="qcurve"/>
      <point x="275" y="182"/>
      <point x="251" y="182" type="qcurve"/>
      <point x="231" y="182"/>
      <point x="189" y="172" type="qcurve"/>
      <point x="141" y="162"/>
      <point x="112" y="160" type="qcurve"/>
      <point x="112" y="160"/>
      <point x="111" y="160" type="qcurve"/>
      <point x="101" y="160"/>
      <point x="93" y="167" type="qcurve"/>
      <point x="86" y="174"/>
      <point x="86" y="184" type="qcurve"/>
      <point x="80" y="410" type="line"/>
      <point x="80" y="411"/>
      <point x="80" y="411" type="qcurve"/>
      <point x="80" y="421"/>
      <point x="95" y="436"/>
      <point x="105" y="436" type="qcurve"/>
      <point x="435" y="436" type="line"/>
      <point x="445" y="436"/>
      <point x="460" y="421"/>
      <point x="460" y="401"/>
      <point x="445" y="386"/>
      <point x="435" y="386" type="qcurve"/>
      <point x="131" y="386" type="line"/>
    </contour>
  </outline>
</glyph>
<glyph name="seven" format="2">
  <advance width="333"/>
  <unicode hex="0037"/>
  <outline>
    <contour>
      <point x="75" y="386" type="line"/>
      <point x="65" y="386"/>
      <point x="50" y="401"/>
      <point x="50" y="421"/>
      <point x="65" y="436"/>
      <point x="75" y="436" type="qcurve"/>
      <point x="259" y="436" type="line"/>
      <point x="269" y="436"/>
      <point x="284" y="421"/>
      <point x="284" y="411" type="qcurve"/>
      <point x="284" y="407"/>
      <point x="283" y="404" type="qcurve"/>
      <point x="99" y="-205" type="line"/>
      <point x="94" y="-223"/>
      <point x="75" y="-223" type="qcurve"/>
      <point x="65" y="-223"/>
      <point x="50" y="-208"/>
      <point x="50" y="-198" type="qcurve"/>
      <point x="50" y="-194"/>
      <point x="51" y="-191" type="qcurve"/>
      <point x="225" y="386" type="line"/>
    </contour>
  </outline>
</glyph>
<glyph name="eight" format="2">
  <advance width="265"/>
  <unicode hex="0038"/>
  <outline>
    <contour>
      <point x="100" y="263"/>
      <point x="100" y="125"/>
      <point x="113" y="73" type="qcurve"/>
      <point x="122" y="40"/>
      <point x="133" y="27" type="qcurve"/>
      <point x="144" y="40"/>
      <point x="153" y="73" type="qcurve"/>
      <point x="166" y="125"/>
      <point x="166" y="263"/>
      <point x="153" y="315" type="qcurve"/>
      <point x="144" y="348"/>
      <point x="133" y="361" type="qcurve"/>
      <point x="122" y="348"/>
      <point x="113" y="315" type="qcurve"/>
    </contour>
    <contour>
      <point x="100" y="651"/>
      <point x="100" y="513"/>
      <point x="113" y="461" type="qcurve"/>
      <point x="122" y="428"/>
      <point x="133" y="415" type="qcurve"/>
      <point x="144" y="428"/>
      <point x="153" y="461" type="qcurve"/>
      <point x="166" y="513"/>
      <point x="166" y="651"/>
      <point x="153" y="703" type="qcurve"/>
      <point x="144" y="736"/>
      <point x="133" y="749" type="qcurve"/>
      <point x="122" y="736"/>
      <point x="113" y="703" type="qcurve"/>
    </contour>
    <contour>
      <point x="50" y="118"/>
      <point x="50" y="270"/>
      <point x="65" y="328" type="qcurve"/>
      <point x="76" y="368"/>
      <point x="90" y="388" type="qcurve"/>
      <point x="76" y="408"/>
      <point x="65" y="448" type="qcurve"/>
      <point x="50" y="506"/>
      <point x="50" y="658"/>
      <point x="65" y="716" type="qcurve"/>
      <point x="78" y="765"/>
      <point x="99" y="786" type="qcurve"/>
      <point x="114" y="801"/>
      <point x="152" y="801"/>
      <point x="167" y="786" type="qcurve"/>
      <point x="188" y="765"/>
      <point x="201" y="716" type="qcurve"/>
      <point x="216" y="658"/>
      <point x="216" y="506"/>
      <point x="201" y="448" type="qcurve"/>
      <point x="190" y="408"/>
      <point x="175" y="388" type="qcurve"/>
      <point x="190" y="368"/>
      <point x="201" y="328" type="qcurve"/>
      <point x="216" y="270"/>
      <point x="216" y="118"/>
      <point x="201" y="60" type="qcurve"/>
      <point x="188" y="11"/>
      <point x="167" y="-10" type="qcurve"/>
      <point x="152" y="-25"/>
      <point x="114" y="-25"/>
      <point x="99" y="-10" type="qcurve"/>
      <point x="78" y="11"/>
      <point x="65" y="60" type="qcurve"/>
    </contour>
  </outline>
</glyph>
<glyph name="colon" format="2">
  <advance width="149"/>
  <unicode hex="003A"/>
  <outline>
    <contour>
      <point x="50" y="429"/>
      <point x="50" y="449"/>
      <point x="65" y="464"/>
      <point x="85" y="464"/>
      <point x="100" y="449"/>
      <point x="100" y="429"/>
      <point x="85" y="414"/>
      <point x="65" y="414"/>
    </contour>
    <contour>
      <point x="50" y="19"/>
      <point x="50" y="39"/>
      <point x="65" y="54"/>
      <point x="85" y="54"/>
      <point x="100" y="39"/>
      <point x="100" y="19"/>
      <point x="85" y="4"/>
      <point x="65" y="4"/>
    </contour>
  </outline>
</glyph>
<glyph name="semicolon" format="2">
  <advance width="185"/>
  <unicode hex="003B"/>
  <outline>
    <contour>
      <point x="77" y="26" type="qcurve"/>
      <point x="77" y="36"/>
      <point x="92" y="51"/>
      <point x="102" y="51" type="qcurve"/>
      <point x="118" y="51"/>
      <point x="125" y="36" type="qcurve"/>
      <point x="136" y="11"/>
      <point x="136" y="-25"/>
      <point x="124" y="-45" type="qcurve"/>
      <point x="114" y="-60"/>
      <point x="99" y="-75" type="qcurve"/>
      <point x="95" y="-80"/>
      <point x="91" y="-83" type="qcurve"/>
      <point x="84" y="-89"/>
      <point x="75" y="-89" type="qcurve"/>
      <point x="65" y="-89"/>
      <point x="50" y="-74"/>
      <point x="50" y="-64" type="qcurve"/>
      <point x="50" y="-53"/>
      <point x="59" y="-45" type="qcurve"/>
      <point x="72" y="-33"/>
      <point x="81" y="-19" type="qcurve"/>
      <point x="86" y="-11"/>
      <point x="86" y="-7" type="qcurve"/>
      <point x="86" y="-4"/>
      <point x="83" y="4" type="qcurve"/>
      <point x="79" y="16" type="line"/>
      <point x="77" y="21"/>
    </contour>
    <contour>
      <point x="52" y="378"/>
      <point x="52" y="398"/>
      <point x="66" y="413"/>
      <point x="87" y="413"/>
      <point x="101" y="398"/>
      <point x="101" y="378"/>
      <point x="87" y="363"/>
      <point x="66" y="363"/>
    </contour>
  </outline>
</glyph>
<glyph name="less" format="2">
  <advance width="383"/>
  <unicode hex="003C"/>
  <outline>
    <contour>
      <point x="309" y="660" type="qcurve"/>
      <point x="319" y="660"/>
      <point x="334" y="645"/>
      <point x="334" y="635" type="qcurve"/>
      <point x="334" y="624"/>
      <point x="326" y="617" type="qcurve"/>
      <point x="110" y="410" type="line"/>
      <point x="315" y="193" type="line"/>
      <point x="322" y="186"/>
      <point x="322" y="176" type="qcurve"/>
      <point x="322" y="166"/>
      <point x="307" y="151"/>
      <point x="297" y="151" type="qcurve"/>
      <point x="286" y="151"/>
      <point x="279" y="159" type="qcurve"/>
      <point x="57" y="394" type="line"/>
      <point x="50" y="401"/>
      <point x="50" y="411" type="qcurve"/>
      <point x="50" y="422"/>
      <point x="58" y="429" type="qcurve"/>
      <point x="292" y="653" type="line"/>
      <point x="299" y="660"/>
    </contour>
  </outline>
</glyph>
<glyph name="equal" format="2">
  <advance width="497"/>
  <unicode hex="003D"/>
  <outline>
    <contour>
      <point x="75" y="347" type="line"/>
      <point x="65" y="347"/>
      <point x="50" y="362"/>
      <point x="50" y="382"/>
      <point x="65" y="397"/>
      <point x="75" y="397" type="qcurve"/>
      <point x="423" y="397" type="line"/>
      <point x="433" y="397"/>
      <point x="448" y="382"/>
      <point x="448" y="362"/>
      <point x="433" y="347"/>
      <point x="423" y="347" type="qcurve"/>
    </contour>
    <contour>
      <point x="75" y="447" type="line"/>
      <point x="65" y="447"/>
      <point x="50" y="462"/>
      <point x="50" y="482"/>
      <point x="65" y="497"/>
      <point x="75" y="497" type="qcurve"/>
      <point x="423" y="497" type="line"/>
      <point x="433" y="497"/>
      <point x="448" y="482"/>
      <point x="448" y="462"/>
      <point x="433" y="447"/>
      <point x="423" y="447" type="qcurve"/>
    </contour>
  </outline>
</glyph>
<glyph name="greater" format="2">
  <advance width="383"/>
  <unicode hex="003E"/>
  <outline>
    <contour>
      <point x="50" y="635" type="qcurve"/>
      <point x="50" y="645"/>
      <point x="65" y="660"/>
      <point x="75" y="660" type="qcurve"/>
      <point x="85" y="660"/>
      <point x="92" y="653" type="qcurve"/>
      <point x="326" y="429" type="line"/>
      <point x="334" y="422"/>
      <point x="334" y="411" type="qcurve"/>
      <point x="334" y="401"/>
      <point x="327" y="394" type="qcurve"/>
      <point x="105" y="159" type="line"/>
      <point x="98" y="151"/>
      <point x="87" y="151" type="qcurve"/>
      <point x="77" y="151"/>
      <point x="62" y="166"/>
      <point x="62" y="176" type="qcurve"/>
      <point x="62" y="186"/>
      <point x="69" y="193" type="qcurve"/>
      <point x="274" y="410" type="line"/>
      <point x="58" y="617" type="line"/>
      <point x="50" y="624"/>
    </contour>
  </outline>
</glyph>
<glyph name="B" format="2">
  <advance width="542"/>
  <unicode hex="0042"/>
  <outline>
    <contour>
      <point x="275" y="739" type="qcurve"/>
      <point x="274" y="739"/>
      <point x="271" y="739"/>
      <point x="270" y="739" type="qcurve"/>
      <point x="262" y="739"/>
      <point x="241" y="742"/>
      <point x="218" y="747"/>
      <point x="212" y="748" type="qcurve"/>
      <point x="209" y="749"/>
      <point x="205" y="749" type="qcurve"/>
      <point x="185" y="749"/>
      <point x="153" y="715"/>
      <point x="148" y="694" type="qcurve"/>
      <point x="148" y="693"/>
      <point x="141" y="665" type="qcurve"/>
      <point x="126" y="606" type="line"/>
      <point x="109" y="497" type="line"/>
      <point x="100" y="294" type="line"/>
      <point x="112" y="178" type="line"/>
      <point x="140" y="76"/>
      <point x="164" y="14" type="qcurve"/>
      <point x="166" y="10"/>
      <point x="166" y="5" type="qcurve"/>
      <point x="166" y="-5"/>
      <point x="151" y="-20"/>
      <point x="141" y="-20" type="qcurve"/>
      <point x="124" y="-20"/>
      <point x="118" y="-4" type="qcurve"/>
      <point x="93" y="61"/>
      <point x="63" y="166" type="qcurve"/>
      <point x="62" y="168"/>
      <point x="62" y="170" type="qcurve"/>
      <point x="50" y="290" type="line"/>
      <point x="50" y="292"/>
      <point x="50" y="293" type="qcurve"/>
      <point x="50" y="294"/>
      <point x="50" y="294" type="qcurve"/>
      <point x="59" y="501" type="line"/>
      <point x="59" y="503"/>
      <point x="59" y="504" type="qcurve"/>
      <point x="77" y="615" type="line"/>
      <point x="77" y="616"/>
      <point x="78" y="617" type="qcurve"/>
      <point x="93" y="680"/>
      <point x="94" y="683" type="qcurve"/>
      <point x="97" y="694"/>
      <point x="98" y="699" type="qcurve"/>
      <point x="98" y="701"/>
      <point x="99" y="704" type="qcurve"/>
      <point x="107" y="740"/>
      <point x="134" y="767" type="qcurve"/>
      <point x="166" y="799"/>
      <point x="206" y="799" type="qcurve"/>
      <point x="217" y="799"/>
      <point x="263" y="790"/>
      <point x="269" y="789" type="qcurve"/>
      <point x="272" y="789"/>
      <point x="276" y="789" type="qcurve"/>
      <point x="292" y="789"/>
      <point x="317" y="776" type="qcurve"/>
      <point x="329" y="768"/>
      <point x="334" y="768" type="qcurve"/>
      <point x="388" y="758"/>
      <point x="427" y="719" type="qcurve"/>
      <point x="484" y="662"/>
      <point x="484" y="578" type="qcurve"/>
      <point x="484" y="575"/>
      <point x="483" y="571" type="qcurve"/>
      <point x="471" y="528"/>
      <point x="435" y="491" type="qcurve"/>
      <point x="378" y="435"/>
      <point x="302" y="425" type="qcurve"/>
      <point x="388" y="371"/>
      <point x="426" y="333" type="qcurve"/>
      <point x="493" y="266"/>
      <point x="493" y="194" type="qcurve"/>
      <point x="493" y="105"/>
      <point x="443" y="56" type="qcurve"/>
      <point x="395" y="7"/>
      <point x="309" y="7" type="qcurve"/>
      <point x="289" y="7"/>
      <point x="253" y="20"/>
      <point x="214" y="41"/>
      <point x="204" y="45" type="qcurve"/>
      <point x="193" y="49"/>
      <point x="190" y="59" type="qcurve"/>
      <point x="157" y="149" type="line"/>
      <point x="155" y="153"/>
      <point x="155" y="157" type="qcurve"/>
      <point x="152" y="226" type="line"/>
      <point x="152" y="226"/>
      <point x="152" y="227" type="qcurve"/>
      <point x="152" y="237"/>
      <point x="167" y="252"/>
      <point x="187" y="252"/>
      <point x="195" y="245" type="qcurve"/>
      <point x="202" y="238"/>
      <point x="202" y="228" type="qcurve"/>
      <point x="205" y="163" type="line"/>
      <point x="233" y="87" type="line"/>
      <point x="240" y="84"/>
      <point x="254" y="76" type="qcurve"/>
      <point x="292" y="57"/>
      <point x="309" y="57" type="qcurve"/>
      <point x="374" y="57"/>
      <point x="408" y="91" type="qcurve"/>
      <point x="443" y="126"/>
      <point x="443" y="194" type="qcurve"/>
      <point x="443" y="245"/>
      <point x="391" y="297" type="qcurve"/>
      <point x="357" y="332"/>
      <point x="278" y="381" type="qcurve"/>
      <point x="238" y="407"/>
      <point x="227" y="417" type="qcurve"/>
      <point x="218" y="426"/>
      <point x="216" y="437" type="qcurve"/>
      <point x="204" y="446"/>
      <point x="204" y="460" type="qcurve"/>
      <point x="204" y="479"/>
      <point x="226" y="490" type="qcurve"/>
      <point x="231" y="492"/>
      <point x="239" y="495"/>
      <point x="243" y="495" type="qcurve"/>
      <point x="252" y="495"/>
      <point x="266" y="483"/>
      <point x="268" y="474" type="qcurve"/>
      <point x="272" y="473"/>
      <point x="277" y="473" type="qcurve"/>
      <point x="309" y="473"/>
      <point x="375" y="502"/>
      <point x="399" y="527" type="qcurve"/>
      <point x="425" y="552"/>
      <point x="434" y="581" type="qcurve"/>
      <point x="433" y="633"/>
      <point x="372" y="710"/>
      <point x="326" y="718" type="qcurve"/>
      <point x="312" y="721"/>
      <point x="292" y="732" type="qcurve"/>
      <point x="279" y="739"/>
    </contour>
  </outline>
</glyph>
<glyph name="D" format="2">
  <advance width="503"/>
  <unicode hex="0044"/>
  <outline>
    <contour>
      <point x="191" y="103" type="qcurve"/>
      <point x="248" y="99"/>
      <point x="255" y="99" type="qcurve"/>
      <point x="287" y="99"/>
      <point x="310" y="123" type="qcurve"/>
      <point x="338" y="150"/>
      <point x="373" y="244" type="qcurve"/>
      <point x="385" y="277"/>
      <point x="391" y="292" type="qcurve"/>
      <point x="403" y="423" type="line"/>
      <point x="322" y="659" type="line"/>
      <point x="310" y="696"/>
      <point x="237" y="737"/>
      <point x="189" y="737" type="qcurve"/>
      <point x="143" y="737"/>
      <point x="120" y="714" type="qcurve"/>
      <point x="105" y="699"/>
      <point x="99" y="673" type="qcurve"/>
      <point x="98" y="665"/>
      <point x="84" y="653"/>
      <point x="75" y="653" type="qcurve"/>
      <point x="65" y="653"/>
      <point x="50" y="668"/>
      <point x="50" y="678" type="qcurve"/>
      <point x="50" y="681"/>
      <point x="51" y="683" type="qcurve"/>
      <point x="59" y="724"/>
      <point x="85" y="750" type="qcurve"/>
      <point x="122" y="787"/>
      <point x="189" y="787" type="qcurve"/>
      <point x="280" y="787"/>
      <point x="333" y="733" type="qcurve"/>
      <point x="358" y="709"/>
      <point x="370" y="675" type="qcurve"/>
      <point x="452" y="435" type="line"/>
      <point x="453" y="431"/>
      <point x="453" y="426" type="qcurve"/>
      <point x="453" y="425"/>
      <point x="453" y="424" type="qcurve"/>
      <point x="440" y="283" type="line"/>
      <point x="440" y="279"/>
      <point x="438" y="276" type="qcurve"/>
      <point x="432" y="261"/>
      <point x="420" y="227" type="qcurve"/>
      <point x="406" y="191"/>
      <point x="394" y="159"/>
      <point x="363" y="105"/>
      <point x="346" y="87" type="qcurve"/>
      <point x="307" y="49"/>
      <point x="255" y="49" type="qcurve"/>
      <point x="252" y="49"/>
      <point x="185" y="53" type="qcurve"/>
      <point x="178" y="15"/>
      <point x="161" y="-15" type="qcurve"/>
      <point x="153" y="-27"/>
      <point x="139" y="-27" type="qcurve"/>
      <point x="135" y="-27"/>
      <point x="131" y="-26" type="qcurve"/>
      <point x="126" y="-24"/>
      <point x="100" y="-18"/>
      <point x="93" y="-15" type="qcurve"/>
      <point x="80" y="-10"/>
      <point x="73" y="-2" type="qcurve"/>
      <point x="60" y="11"/>
      <point x="60" y="29" type="qcurve"/>
      <point x="60" y="31"/>
      <point x="60" y="32" type="qcurve"/>
      <point x="63" y="62"/>
      <point x="81" y="80" type="qcurve"/>
      <point x="101" y="100"/>
      <point x="141" y="104" type="qcurve"/>
      <point x="141" y="112"/>
      <point x="141" y="122" type="qcurve"/>
      <point x="141" y="166"/>
      <point x="116" y="358"/>
      <point x="116" y="403" type="qcurve"/>
      <point x="116" y="405"/>
      <point x="116" y="408" type="qcurve"/>
      <point x="116" y="676" type="line"/>
      <point x="116" y="686"/>
      <point x="131" y="701"/>
      <point x="151" y="701"/>
      <point x="166" y="686"/>
      <point x="166" y="676" type="qcurve"/>
      <point x="166" y="408" type="line"/>
      <point x="166" y="405"/>
      <point x="166" y="403" type="qcurve"/>
      <point x="166" y="360"/>
      <point x="191" y="168"/>
      <point x="191" y="123" type="qcurve"/>
      <point x="191" y="113"/>
    </contour>
    <contour>
      <point x="126" y="28" type="qcurve"/>
      <point x="130" y="39"/>
      <point x="134" y="52" type="qcurve"/>
      <point x="121" y="49"/>
      <point x="116" y="44" type="qcurve"/>
      <point x="112" y="40"/>
      <point x="110" y="32" type="qcurve"/>
      <point x="115" y="30"/>
    </contour>
  </outline>
</glyph>
<glyph name="E" format="2">
  <advance width="472"/>
  <unicode hex="0045"/>
  <outline>
    <contour>
      <point x="54" y="578" type="qcurve"/>
      <point x="54" y="581"/>
      <point x="53" y="592"/>
      <point x="53" y="595" type="qcurve"/>
      <point x="53" y="663"/>
      <point x="101" y="728" type="qcurve"/>
      <point x="109" y="742"/>
      <point x="122" y="755" type="qcurve"/>
      <point x="155" y="788"/>
      <point x="205" y="795" type="qcurve"/>
      <point x="206" y="795"/>
      <point x="208" y="795" type="qcurve"/>
      <point x="225" y="795"/>
      <point x="286" y="789"/>
      <point x="300" y="789" type="qcurve"/>
      <point x="318" y="789"/>
      <point x="346" y="773" type="qcurve"/>
      <point x="360" y="765"/>
      <point x="364" y="765" type="qcurve"/>
      <point x="373" y="764"/>
      <point x="387" y="750"/>
      <point x="387" y="740" type="qcurve"/>
      <point x="387" y="730"/>
      <point x="372" y="715"/>
      <point x="362" y="715" type="qcurve"/>
      <point x="361" y="715"/>
      <point x="360" y="715" type="qcurve"/>
      <point x="345" y="716"/>
      <point x="321" y="730" type="qcurve"/>
      <point x="305" y="739"/>
      <point x="300" y="739" type="qcurve"/>
      <point x="284" y="739"/>
      <point x="224" y="745"/>
      <point x="210" y="745" type="qcurve"/>
      <point x="163" y="738"/>
      <point x="144" y="702" type="qcurve"/>
      <point x="143" y="701"/>
      <point x="142" y="699" type="qcurve"/>
      <point x="103" y="647"/>
      <point x="103" y="595" type="qcurve"/>
      <point x="104" y="587"/>
      <point x="104" y="568"/>
      <point x="101" y="531"/>
      <point x="101" y="522" type="qcurve"/>
      <point x="101" y="486"/>
      <point x="120" y="473" type="qcurve"/>
      <point x="123" y="470"/>
      <point x="128" y="466"/>
      <point x="134" y="459"/>
      <point x="136" y="457" type="qcurve"/>
      <point x="145" y="457"/>
      <point x="165" y="451"/>
      <point x="168" y="451" type="qcurve"/>
      <point x="178" y="449"/>
      <point x="194" y="442" type="qcurve"/>
      <point x="205" y="437"/>
      <point x="210" y="437" type="qcurve"/>
      <point x="238" y="437" type="line"/>
      <point x="248" y="437"/>
      <point x="263" y="422"/>
      <point x="263" y="412" type="qcurve"/>
      <point x="263" y="403"/>
      <point x="252" y="390"/>
      <point x="244" y="388" type="qcurve"/>
      <point x="226" y="383"/>
      <point x="180" y="356"/>
      <point x="162" y="339" type="qcurve"/>
      <point x="153" y="329"/>
      <point x="146" y="320" type="qcurve"/>
      <point x="144" y="317"/>
      <point x="141" y="314" type="qcurve"/>
      <point x="135" y="309"/>
      <point x="129" y="304" type="qcurve"/>
      <point x="100" y="275"/>
      <point x="100" y="229" type="qcurve"/>
      <point x="100" y="226"/>
      <point x="101" y="215"/>
      <point x="101" y="212" type="qcurve"/>
      <point x="101" y="207"/>
      <point x="100" y="188"/>
      <point x="100" y="184" type="qcurve"/>
      <point x="100" y="147"/>
      <point x="111" y="129" type="qcurve"/>
      <point x="113" y="126"/>
      <point x="114" y="123" type="qcurve"/>
      <point x="122" y="97"/>
      <point x="143" y="76" type="qcurve"/>
      <point x="186" y="32"/>
      <point x="254" y="31" type="qcurve"/>
      <point x="258" y="31"/>
      <point x="261" y="30" type="qcurve"/>
      <point x="271" y="27"/>
      <point x="281" y="27" type="qcurve"/>
      <point x="312" y="27"/>
      <point x="340" y="55" type="qcurve"/>
      <point x="346" y="61"/>
      <point x="352" y="69" type="qcurve"/>
      <point x="371" y="93" type="line"/>
      <point x="377" y="107"/>
      <point x="380" y="110" type="qcurve"/>
      <point x="388" y="117"/>
      <point x="408" y="117"/>
      <point x="423" y="102"/>
      <point x="423" y="92" type="qcurve"/>
      <point x="423" y="86"/>
      <point x="420" y="81" type="qcurve"/>
      <point x="413" y="67"/>
      <point x="412" y="65" type="qcurve"/>
      <point x="383" y="28"/>
      <point x="375" y="20" type="qcurve"/>
      <point x="333" y="-23"/>
      <point x="280" y="-23" type="qcurve"/>
      <point x="265" y="-23"/>
      <point x="250" y="-19" type="qcurve"/>
      <point x="164" y="-16"/>
      <point x="107" y="41" type="qcurve"/>
      <point x="79" y="69"/>
      <point x="67" y="106" type="qcurve"/>
      <point x="50" y="136"/>
      <point x="50" y="181" type="qcurve"/>
      <point x="50" y="188"/>
      <point x="51" y="211" type="qcurve"/>
      <point x="50" y="220"/>
      <point x="50" y="228" type="qcurve"/>
      <point x="50" y="295"/>
      <point x="94" y="339" type="qcurve"/>
      <point x="100" y="346"/>
      <point x="108" y="351" type="qcurve"/>
      <point x="128" y="379"/>
      <point x="160" y="401" type="qcurve"/>
      <point x="154" y="402"/>
      <point x="144" y="405" type="qcurve"/>
      <point x="138" y="407"/>
      <point x="136" y="407" type="qcurve"/>
      <point x="134" y="407"/>
      <point x="132" y="407" type="qcurve"/>
      <point x="124" y="407"/>
      <point x="111" y="413"/>
      <point x="105" y="418"/>
      <point x="93" y="430"/>
      <point x="91" y="432" type="qcurve"/>
      <point x="84" y="437"/>
      <point x="78" y="442" type="qcurve"/>
      <point x="51" y="470"/>
      <point x="51" y="519" type="qcurve"/>
      <point x="51" y="530"/>
      <point x="54" y="569"/>
    </contour>
  </outline>
</glyph>
<glyph name="H" format="2">
  <advance width="821"/>
  <unicode hex="0048"/>
  <outline>
    <contour>
      <point x="538" y="515" type="qcurve"/>
      <point x="531" y="577"/>
      <point x="531" y="605" type="qcurve"/>
      <point x="531" y="617"/>
      <point x="532" y="629" type="qcurve"/>
      <point x="532" y="662"/>
      <point x="545" y="716" type="qcurve"/>
      <point x="551" y="744"/>
      <point x="559" y="764" type="qcurve"/>
      <point x="568" y="785"/>
      <point x="579" y="796" type="qcurve"/>
      <point x="592" y="809"/>
      <point x="609" y="809" type="qcurve"/>
      <point x="621" y="809"/>
      <point x="629" y="801" type="qcurve"/>
      <point x="634" y="796"/>
      <point x="639" y="781"/>
      <point x="640" y="753" type="qcurve"/>
      <point x="646" y="719"/>
      <point x="646" y="686" type="qcurve"/>
      <point x="646" y="612"/>
      <point x="615" y="547" type="qcurve"/>
      <point x="604" y="524"/>
      <point x="589" y="502" type="qcurve"/>
      <point x="590" y="500"/>
      <point x="590" y="499" type="qcurve"/>
      <point x="604" y="452"/>
      <point x="605" y="331" type="qcurve"/>
      <point x="606" y="270"/>
      <point x="611" y="203"/>
      <point x="633" y="119"/>
      <point x="654" y="98" type="qcurve"/>
      <point x="668" y="85"/>
      <point x="686" y="77" type="qcurve"/>
      <point x="698" y="72"/>
      <point x="751" y="45" type="qcurve"/>
      <point x="760" y="42"/>
      <point x="765" y="38" type="qcurve"/>
      <point x="772" y="30"/>
      <point x="772" y="10"/>
      <point x="757" y="-5"/>
      <point x="747" y="-5" type="qcurve"/>
      <point x="743" y="-5"/>
      <point x="733" y="-2" type="qcurve"/>
      <point x="731" y="-1"/>
      <point x="707" y="11"/>
      <point x="675" y="27"/>
      <point x="668" y="31" type="qcurve"/>
      <point x="640" y="42"/>
      <point x="619" y="63" type="qcurve"/>
      <point x="581" y="100"/>
      <point x="567" y="170" type="qcurve"/>
      <point x="557" y="220"/>
      <point x="556" y="330" type="qcurve"/>
      <point x="554" y="413"/>
      <point x="549" y="450" type="qcurve"/>
      <point x="530" y="429"/>
      <point x="479" y="382"/>
      <point x="443" y="352"/>
      <point x="377" y="299"/>
      <point x="364" y="288" type="qcurve"/>
      <point x="367" y="217"/>
      <point x="367" y="177" type="qcurve"/>
      <point x="367" y="132"/>
      <point x="362" y="99" type="qcurve"/>
      <point x="352" y="34"/>
      <point x="322" y="4" type="qcurve"/>
      <point x="297" y="-21"/>
      <point x="261" y="-21" type="qcurve"/>
      <point x="213" y="-21"/>
      <point x="177" y="15" type="qcurve"/>
      <point x="151" y="42"/>
      <point x="151" y="75" type="qcurve"/>
      <point x="151" y="84"/>
      <point x="153" y="92" type="qcurve"/>
      <point x="169" y="156"/>
      <point x="252" y="259"/>
      <point x="313" y="311" type="qcurve"/>
      <point x="304" y="480"/>
      <point x="304" y="531" type="qcurve"/>
      <point x="304" y="569"/>
      <point x="306" y="603" type="qcurve"/>
      <point x="304" y="621"/>
      <point x="304" y="644" type="qcurve"/>
      <point x="304" y="676"/>
      <point x="308" y="705" type="qcurve"/>
      <point x="267" y="707"/>
      <point x="204" y="739" type="qcurve"/>
      <point x="147" y="767"/>
      <point x="113" y="767" type="qcurve"/>
      <point x="108" y="767"/>
      <point x="100" y="764" type="qcurve"/>
      <point x="100" y="718" type="line"/>
      <point x="110" y="671" type="line"/>
      <point x="110" y="668"/>
      <point x="110" y="666" type="qcurve"/>
      <point x="110" y="656"/>
      <point x="95" y="641"/>
      <point x="85" y="641" type="qcurve"/>
      <point x="76" y="641"/>
      <point x="62" y="653"/>
      <point x="60" y="661" type="qcurve"/>
      <point x="50" y="711" type="line"/>
      <point x="50" y="714"/>
      <point x="50" y="716" type="qcurve"/>
      <point x="50" y="782" type="line"/>
      <point x="50" y="790"/>
      <point x="61" y="804"/>
      <point x="68" y="806" type="qcurve"/>
      <point x="72" y="807"/>
      <point x="88" y="813"/>
      <point x="104" y="817"/>
      <point x="113" y="817" type="qcurve"/>
      <point x="135" y="817"/>
      <point x="180" y="805"/>
      <point x="205" y="794"/>
      <point x="227" y="783" type="qcurve"/>
      <point x="284" y="755"/>
      <point x="317" y="755" type="qcurve"/>
      <point x="318" y="755"/>
      <point x="320" y="755" type="qcurve"/>
      <point x="332" y="787"/>
      <point x="354" y="795" type="qcurve"/>
      <point x="358" y="797"/>
      <point x="363" y="797" type="qcurve"/>
      <point x="373" y="797"/>
      <point x="388" y="782"/>
      <point x="388" y="772" type="qcurve"/>
      <point x="388" y="737"/>
      <point x="361" y="718" type="qcurve"/>
      <point x="354" y="686"/>
      <point x="354" y="643" type="qcurve"/>
      <point x="354" y="622"/>
      <point x="356" y="607" type="qcurve"/>
      <point x="356" y="605"/>
      <point x="356" y="604" type="qcurve"/>
      <point x="356" y="603"/>
      <point x="356" y="603" type="qcurve"/>
      <point x="354" y="569"/>
      <point x="354" y="532" type="qcurve"/>
      <point x="354" y="473"/>
      <point x="361" y="350" type="qcurve"/>
      <point x="456" y="426"/>
      <point x="490" y="461" type="qcurve"/>
      <point x="518" y="488"/>
    </contour>
    <contour>
      <point x="581" y="605" type="qcurve"/>
      <point x="581" y="601"/>
      <point x="581" y="597" type="qcurve"/>
      <point x="596" y="639"/>
      <point x="596" y="685" type="qcurve"/>
      <point x="596" y="698"/>
      <point x="595" y="711" type="qcurve"/>
      <point x="594" y="708"/>
      <point x="593" y="705" type="qcurve"/>
      <point x="582" y="655"/>
      <point x="582" y="628" type="qcurve"/>
      <point x="582" y="624"/>
      <point x="581" y="609"/>
    </contour>
    <contour>
      <point x="315" y="247" type="qcurve"/>
      <point x="303" y="235"/>
      <point x="292" y="224" type="qcurve"/>
      <point x="220" y="153"/>
      <point x="201" y="80" type="qcurve"/>
      <point x="201" y="77"/>
      <point x="201" y="74" type="qcurve"/>
      <point x="201" y="56"/>
      <point x="242" y="30"/>
      <point x="261" y="29" type="qcurve"/>
      <point x="277" y="29"/>
      <point x="287" y="39" type="qcurve"/>
      <point x="305" y="58"/>
      <point x="312" y="106" type="qcurve"/>
      <point x="317" y="136"/>
      <point x="317" y="177" type="qcurve"/>
      <point x="317" y="200"/>
    </contour>
  </outline>
</glyph>
<glyph name="I" format="2">
  <advance width="326"/>
  <unicode hex="0049"/>
  <outline>
    <contour>
      <point x="228" y="824" type="qcurve"/>
      <point x="228" y="823"/>
      <point x="228" y="818"/>
      <point x="228" y="817" type="qcurve"/>
      <point x="228" y="707"/>
      <point x="252" y="489" type="qcurve"/>
      <point x="276" y="262"/>
      <point x="276" y="144" type="qcurve"/>
      <point x="276" y="103"/>
      <point x="245" y="26"/>
      <point x="220" y="1" type="qcurve"/>
      <point x="197" y="-22"/>
      <point x="172" y="-28" type="qcurve"/>
      <point x="164" y="-30"/>
      <point x="156" y="-30" type="qcurve"/>
      <point x="125" y="-30"/>
      <point x="102" y="-6" type="qcurve"/>
      <point x="86" y="10"/>
      <point x="74" y="36" type="qcurve"/>
      <point x="73" y="38"/>
      <point x="73" y="40" type="qcurve"/>
      <point x="61" y="90" type="line"/>
      <point x="60" y="93"/>
      <point x="60" y="96" type="qcurve"/>
      <point x="60" y="106"/>
      <point x="75" y="121"/>
      <point x="85" y="121" type="qcurve"/>
      <point x="94" y="121"/>
      <point x="107" y="110"/>
      <point x="109" y="102" type="qcurve"/>
      <point x="121" y="54" type="line"/>
      <point x="128" y="38"/>
      <point x="137" y="29" type="qcurve"/>
      <point x="146" y="20"/>
      <point x="155" y="20" type="qcurve"/>
      <point x="157" y="20"/>
      <point x="160" y="21" type="qcurve"/>
      <point x="172" y="23"/>
      <point x="184" y="36" type="qcurve"/>
      <point x="202" y="54"/>
      <point x="226" y="114"/>
      <point x="226" y="144" type="qcurve"/>
      <point x="226" y="197"/>
      <point x="218" y="322"/>
      <point x="210" y="409"/>
      <point x="194" y="554"/>
      <point x="191" y="587" type="qcurve"/>
      <point x="105" y="587" type="line"/>
      <point x="96" y="587"/>
      <point x="89" y="593" type="qcurve"/>
      <point x="64" y="615"/>
      <point x="55" y="644" type="qcurve"/>
      <point x="50" y="659"/>
      <point x="50" y="676" type="qcurve"/>
      <point x="50" y="697"/>
      <point x="57" y="719" type="qcurve"/>
      <point x="71" y="762"/>
      <point x="107" y="798" type="qcurve"/>
      <point x="152" y="843"/>
      <point x="200" y="849" type="qcurve"/>
      <point x="201" y="849"/>
      <point x="203" y="849" type="qcurve"/>
      <point x="213" y="849"/>
      <point x="228" y="834"/>
    </contour>
    <contour>
      <point x="100" y="677" type="qcurve"/>
      <point x="100" y="667"/>
      <point x="103" y="659" type="qcurve"/>
      <point x="106" y="647"/>
      <point x="115" y="637" type="qcurve"/>
      <point x="186" y="637" type="line"/>
      <point x="179" y="721"/>
      <point x="178" y="790" type="qcurve"/>
      <point x="159" y="779"/>
      <point x="143" y="763" type="qcurve"/>
      <point x="115" y="735"/>
      <point x="105" y="703" type="qcurve"/>
      <point x="100" y="689"/>
    </contour>
  </outline>
</glyph>
<glyph name="L" format="2">
  <advance width="658"/>
  <unicode hex="004C"/>
  <outline>
    <contour>
      <point x="210" y="154" type="qcurve"/>
      <point x="218" y="207"/>
      <point x="218" y="253" type="qcurve"/>
      <point x="218" y="290"/>
      <point x="196" y="425"/>
      <point x="194" y="443" type="qcurve"/>
      <point x="194" y="444"/>
      <point x="194" y="445" type="qcurve"/>
      <point x="193" y="468"/>
      <point x="184" y="525" type="qcurve"/>
      <point x="177" y="578"/>
      <point x="174" y="603" type="qcurve"/>
      <point x="159" y="601"/>
      <point x="144" y="601" type="qcurve"/>
      <point x="131" y="601"/>
      <point x="125" y="604" type="qcurve"/>
      <point x="113" y="611"/>
      <point x="102" y="621" type="qcurve"/>
      <point x="78" y="646"/>
      <point x="65" y="690" type="qcurve"/>
      <point x="56" y="720"/>
      <point x="50" y="779" type="qcurve"/>
      <point x="50" y="781"/>
      <point x="50" y="782" type="qcurve"/>
      <point x="50" y="792"/>
      <point x="65" y="807"/>
      <point x="75" y="807" type="qcurve"/>
      <point x="84" y="807"/>
      <point x="99" y="794"/>
      <point x="100" y="785" type="qcurve"/>
      <point x="106" y="730"/>
      <point x="113" y="704" type="qcurve"/>
      <point x="124" y="666"/>
      <point x="144" y="651" type="qcurve"/>
      <point x="158" y="651"/>
      <point x="172" y="653" type="qcurve"/>
      <point x="172" y="662"/>
      <point x="172" y="670" type="qcurve"/>
      <point x="176" y="738"/>
      <point x="210" y="772" type="qcurve"/>
      <point x="244" y="805"/>
      <point x="304" y="805" type="qcurve"/>
      <point x="323" y="805"/>
      <point x="331" y="798" type="qcurve"/>
      <point x="335" y="793"/>
      <point x="337" y="787" type="qcurve"/>
      <point x="343" y="768"/>
      <point x="343" y="749" type="qcurve"/>
      <point x="343" y="729"/>
      <point x="336" y="710" type="qcurve"/>
      <point x="312" y="644"/>
      <point x="224" y="614" type="qcurve"/>
      <point x="226" y="586"/>
      <point x="234" y="532" type="qcurve"/>
      <point x="243" y="473"/>
      <point x="244" y="448" type="qcurve"/>
      <point x="246" y="431"/>
      <point x="268" y="293"/>
      <point x="268" y="253" type="qcurve"/>
      <point x="268" y="184"/>
      <point x="255" y="116" type="qcurve"/>
      <point x="261" y="110"/>
      <point x="284" y="86"/>
      <point x="290" y="80" type="qcurve"/>
      <point x="314" y="56"/>
      <point x="354" y="33"/>
      <point x="378" y="33" type="qcurve"/>
      <point x="381" y="33"/>
      <point x="384" y="33" type="qcurve"/>
      <point x="443" y="36"/>
      <point x="477" y="46" type="qcurve"/>
      <point x="512" y="57"/>
      <point x="531" y="76" type="qcurve"/>
      <point x="557" y="101"/>
      <point x="558" y="148" type="qcurve"/>
      <point x="537" y="168" type="line"/>
      <point x="530" y="176"/>
      <point x="530" y="196"/>
      <point x="545" y="211"/>
      <point x="565" y="211"/>
      <point x="573" y="204" type="qcurve"/>
      <point x="601" y="176" type="line"/>
      <point x="608" y="168"/>
      <point x="608" y="152" type="qcurve"/>
      <point x="608" y="82"/>
      <point x="567" y="40" type="qcurve"/>
      <point x="539" y="12"/>
      <point x="492" y="-2" type="qcurve"/>
      <point x="452" y="-14"/>
      <point x="386" y="-17" type="qcurve"/>
      <point x="382" y="-17"/>
      <point x="378" y="-17" type="qcurve"/>
      <point x="348" y="-17"/>
      <point x="292" y="10"/>
      <point x="263" y="36"/>
      <point x="240" y="60" type="qcurve"/>
      <point x="228" y="29"/>
      <point x="211" y="12" type="qcurve"/>
      <point x="192" y="-7"/>
      <point x="167" y="-7" type="qcurve"/>
      <point x="165" y="-7"/>
      <point x="163" y="-7" type="qcurve"/>
      <point x="122" y="0"/>
      <point x="67" y="77"/>
      <point x="60" y="121" type="qcurve"/>
      <point x="58" y="130"/>
      <point x="58" y="139" type="qcurve"/>
      <point x="58" y="157"/>
      <point x="69" y="168" type="qcurve"/>
      <point x="80" y="179"/>
      <point x="99" y="181" type="qcurve"/>
      <point x="102" y="181"/>
      <point x="106" y="181" type="qcurve"/>
      <point x="115" y="181"/>
      <point x="129" y="179" type="qcurve"/>
      <point x="130" y="179"/>
      <point x="130" y="179" type="qcurve"/>
      <point x="172" y="179"/>
    </contour>
    <contour>
      <point x="293" y="749" type="qcurve"/>
      <point x="293" y="752"/>
      <point x="293" y="755" type="qcurve"/>
      <point x="262" y="753"/>
      <point x="245" y="736" type="qcurve"/>
      <point x="225" y="716"/>
      <point x="222" y="667" type="qcurve"/>
      <point x="252" y="679"/>
      <point x="270" y="697" type="qcurve"/>
      <point x="283" y="711"/>
      <point x="289" y="727" type="qcurve"/>
      <point x="293" y="738"/>
    </contour>
    <contour>
      <point x="127" y="129" type="qcurve"/>
      <point x="125" y="129"/>
      <point x="123" y="129" type="qcurve"/>
      <point x="116" y="131"/>
      <point x="109" y="131" type="qcurve"/>
      <point x="110" y="130"/>
      <point x="110" y="129" type="qcurve"/>
      <point x="113" y="102"/>
      <point x="146" y="49"/>
      <point x="169" y="43" type="qcurve"/>
      <point x="172" y="44"/>
      <point x="176" y="48" type="qcurve"/>
      <point x="184" y="56"/>
      <point x="192" y="75" type="qcurve"/>
      <point x="196" y="85"/>
      <point x="200" y="99" type="qcurve"/>
      <point x="165" y="129"/>
      <point x="130" y="129" type="qcurve"/>
      <point x="130" y="129"/>
      <point x="128" y="129"/>
    </contour>
  </outline>
</glyph>
<glyph name="M" format="2">
  <advance width="789"/>
  <unicode hex="004D"/>
  <outline>
    <contour>
      <point x="438" y="376" type="qcurve"/>
      <point x="438" y="375"/>
      <point x="438" y="373"/>
      <point x="438" y="372" type="qcurve"/>
      <point x="438" y="362"/>
      <point x="423" y="347"/>
      <point x="413" y="347" type="qcurve"/>
      <point x="398" y="347"/>
      <point x="391" y="360" type="qcurve"/>
      <point x="386" y="369"/>
      <point x="355" y="429"/>
      <point x="342" y="454"/>
      <point x="315" y="507"/>
      <point x="299" y="543"/>
      <point x="280" y="591"/>
      <point x="272" y="613" type="qcurve"/>
      <point x="272" y="588"/>
      <point x="271" y="541" type="qcurve"/>
      <point x="270" y="482"/>
      <point x="269" y="428"/>
      <point x="263" y="318"/>
      <point x="252" y="255"/>
      <point x="230" y="160"/>
      <point x="199" y="93"/>
      <point x="152" y="17"/>
      <point x="121" y="-15" type="qcurve"/>
      <point x="114" y="-23"/>
      <point x="92" y="-23"/>
      <point x="83" y="-13" type="qcurve"/>
      <point x="70" y="0"/>
      <point x="61" y="25" type="qcurve"/>
      <point x="52" y="49"/>
      <point x="50" y="72" type="qcurve"/>
      <point x="50" y="73"/>
      <point x="50" y="74" type="qcurve"/>
      <point x="50" y="84"/>
      <point x="65" y="99"/>
      <point x="75" y="99" type="qcurve"/>
      <point x="85" y="99"/>
      <point x="99" y="86"/>
      <point x="100" y="76" type="qcurve"/>
      <point x="101" y="61"/>
      <point x="107" y="44" type="qcurve"/>
      <point x="133" y="77"/>
      <point x="172" y="150"/>
      <point x="196" y="236"/>
      <point x="211" y="308"/>
      <point x="218" y="414"/>
      <point x="220" y="481"/>
      <point x="221" y="542" type="qcurve"/>
      <point x="223" y="727"/>
      <point x="238" y="816" type="qcurve"/>
      <point x="240" y="825"/>
      <point x="254" y="837"/>
      <point x="263" y="837" type="qcurve"/>
      <point x="273" y="837"/>
      <point x="288" y="822"/>
      <point x="288" y="812" type="qcurve"/>
      <point x="288" y="811"/>
      <point x="288" y="807"/>
      <point x="288" y="806" type="qcurve"/>
      <point x="288" y="720"/>
      <point x="347" y="553"/>
      <point x="400" y="451" type="qcurve"/>
      <point x="417" y="520"/>
      <point x="474" y="684"/>
      <point x="503" y="742" type="qcurve"/>
      <point x="524" y="786"/>
      <point x="541" y="802" type="qcurve"/>
      <point x="554" y="816"/>
      <point x="569" y="816" type="qcurve"/>
      <point x="582" y="816"/>
      <point x="591" y="806" type="qcurve"/>
      <point x="600" y="798"/>
      <point x="603" y="783" type="qcurve"/>
      <point x="606" y="770"/>
      <point x="606" y="748" type="qcurve"/>
      <point x="606" y="705"/>
      <point x="603" y="532"/>
      <point x="603" y="490" type="qcurve"/>
      <point x="603" y="355"/>
      <point x="616" y="269" type="qcurve"/>
      <point x="637" y="135"/>
      <point x="696" y="56" type="qcurve"/>
      <point x="734" y="12" type="line"/>
      <point x="740" y="5"/>
      <point x="740" y="-4" type="qcurve"/>
      <point x="740" y="-14"/>
      <point x="725" y="-29"/>
      <point x="715" y="-29" type="qcurve"/>
      <point x="704" y="-29"/>
      <point x="696" y="-20" type="qcurve"/>
      <point x="658" y="24" type="line"/>
      <point x="658" y="24"/>
      <point x="657" y="25" type="qcurve"/>
      <point x="596" y="105"/>
      <point x="553" y="328"/>
      <point x="553" y="488" type="qcurve"/>
      <point x="553" y="531"/>
      <point x="556" y="697"/>
      <point x="556" y="736" type="qcurve"/>
      <point x="552" y="728"/>
      <point x="548" y="720" type="qcurve"/>
      <point x="522" y="668"/>
      <point x="467" y="512"/>
      <point x="451" y="449" type="qcurve"/>
      <point x="438" y="398"/>
    </contour>
  </outline>
</glyph>
<glyph name="N" format="2">
  <advance width="655"/>
  <unicode hex="004E"/>
  <outline>
    <contour>
      <point x="206" y="172" type="qcurve"/>
      <point x="206" y="164"/>
      <point x="207" y="131"/>
      <point x="207" y="122" type="qcurve"/>
      <point x="207" y="88"/>
      <point x="203" y="62" type="qcurve"/>
      <point x="195" y="15"/>
      <point x="147" y="-33"/>
      <point x="109" y="-33" type="qcurve"/>
      <point x="107" y="-33"/>
      <point x="105" y="-33" type="qcurve"/>
      <point x="89" y="-30"/>
      <point x="78" y="-19" type="qcurve"/>
      <point x="64" y="-4"/>
      <point x="56" y="33" type="qcurve"/>
      <point x="53" y="47"/>
      <point x="52" y="51" type="qcurve"/>
      <point x="50" y="55"/>
      <point x="50" y="60" type="qcurve"/>
      <point x="50" y="70"/>
      <point x="65" y="85"/>
      <point x="75" y="85" type="qcurve"/>
      <point x="92" y="85"/>
      <point x="98" y="69" type="qcurve"/>
      <point x="101" y="61"/>
      <point x="108" y="29"/>
      <point x="110" y="23" type="qcurve"/>
      <point x="111" y="19"/>
      <point x="113" y="17" type="qcurve"/>
      <point x="127" y="18"/>
      <point x="135" y="27" type="qcurve"/>
      <point x="148" y="39"/>
      <point x="153" y="70" type="qcurve"/>
      <point x="157" y="91"/>
      <point x="157" y="124" type="qcurve"/>
      <point x="157" y="132"/>
      <point x="156" y="164"/>
      <point x="156" y="171" type="qcurve"/>
      <point x="155" y="195"/>
      <point x="147" y="308"/>
      <point x="142" y="393"/>
      <point x="142" y="430" type="qcurve"/>
      <point x="142" y="537"/>
      <point x="189" y="704"/>
      <point x="251" y="771" type="qcurve"/>
      <point x="263" y="785"/>
      <point x="274" y="790" type="qcurve"/>
      <point x="282" y="794"/>
      <point x="290" y="794" type="qcurve"/>
      <point x="303" y="794"/>
      <point x="312" y="785" type="qcurve"/>
      <point x="319" y="778"/>
      <point x="322" y="767" type="qcurve"/>
      <point x="324" y="759"/>
      <point x="324" y="748" type="qcurve"/>
      <point x="324" y="737"/>
      <point x="317" y="677"/>
      <point x="317" y="668" type="qcurve"/>
      <point x="317" y="667"/>
      <point x="317" y="666" type="qcurve"/>
      <point x="330" y="611"/>
      <point x="330" y="539" type="qcurve"/>
      <point x="330" y="502"/>
      <point x="321" y="355"/>
      <point x="321" y="320" type="qcurve"/>
      <point x="321" y="235"/>
      <point x="341" y="180" type="qcurve"/>
      <point x="341" y="179"/>
      <point x="341" y="178" type="qcurve"/>
      <point x="344" y="169"/>
      <point x="363" y="123" type="qcurve"/>
      <point x="373" y="190"/>
      <point x="401" y="320"/>
      <point x="444" y="464"/>
      <point x="471" y="553"/>
      <point x="529" y="724"/>
      <point x="539" y="756" type="qcurve"/>
      <point x="541" y="760"/>
      <point x="543" y="763" type="qcurve"/>
      <point x="561" y="787" type="line"/>
      <point x="568" y="797"/>
      <point x="581" y="797" type="qcurve"/>
      <point x="591" y="797"/>
      <point x="606" y="782"/>
      <point x="606" y="772" type="qcurve"/>
      <point x="606" y="764"/>
      <point x="601" y="757" type="qcurve"/>
      <point x="585" y="736" type="line"/>
      <point x="576" y="707"/>
      <point x="521" y="543"/>
      <point x="497" y="467"/>
      <point x="453" y="320"/>
      <point x="430" y="217"/>
      <point x="406" y="80"/>
      <point x="400" y="16" type="qcurve"/>
      <point x="399" y="6"/>
      <point x="385" y="-7"/>
      <point x="375" y="-7" type="qcurve"/>
      <point x="365" y="-7"/>
      <point x="357" y="0" type="qcurve"/>
      <point x="350" y="7"/>
      <point x="350" y="17" type="qcurve"/>
      <point x="348" y="25"/>
      <point x="343" y="39" type="qcurve"/>
      <point x="337" y="56"/>
      <point x="319" y="99" type="qcurve"/>
      <point x="297" y="152"/>
      <point x="293" y="165" type="qcurve"/>
      <point x="271" y="228"/>
      <point x="271" y="318" type="qcurve"/>
      <point x="271" y="355"/>
      <point x="280" y="502"/>
      <point x="280" y="538" type="qcurve"/>
      <point x="280" y="606"/>
      <point x="269" y="653" type="qcurve"/>
      <point x="267" y="661"/>
      <point x="267" y="669" type="qcurve"/>
      <point x="267" y="679"/>
      <point x="271" y="718" type="qcurve"/>
      <point x="227" y="662"/>
      <point x="193" y="520"/>
      <point x="193" y="428" type="qcurve"/>
      <point x="193" y="393"/>
      <point x="197" y="309"/>
      <point x="205" y="196"/>
      <point x="206" y="173" type="qcurve"/>
      <point x="206" y="173"/>
    </contour>
  </outline>
</glyph>
<glyph name="T" format="2">
  <advance width="521"/>
  <unicode hex="0054"/>
  <outline>
    <contour>
      <point x="145" y="650" type="qcurve"/>
      <point x="145" y="640"/>
      <point x="130" y="625"/>
      <point x="120" y="625" type="qcurve"/>
      <point x="109" y="625"/>
      <point x="96" y="638" type="qcurve"/>
      <point x="64" y="670"/>
      <point x="51" y="742" type="qcurve"/>
      <point x="50" y="750"/>
      <point x="50" y="757" type="qcurve"/>
      <point x="50" y="779"/>
      <point x="63" y="793" type="qcurve"/>
      <point x="80" y="809"/>
      <point x="120" y="809" type="qcurve"/>
      <point x="144" y="809"/>
      <point x="177" y="797" type="qcurve"/>
      <point x="199" y="788"/>
      <point x="247" y="764" type="qcurve"/>
      <point x="320" y="726"/>
      <point x="351" y="721" type="qcurve"/>
      <point x="360" y="719"/>
      <point x="368" y="719" type="qcurve"/>
      <point x="375" y="719"/>
      <point x="380" y="720" type="qcurve"/>
      <point x="387" y="762" type="line"/>
      <point x="391" y="782"/>
      <point x="413" y="804"/>
      <point x="444" y="804"/>
      <point x="456" y="792" type="qcurve"/>
      <point x="465" y="783"/>
      <point x="470" y="767" type="qcurve"/>
      <point x="471" y="764"/>
      <point x="471" y="760" type="qcurve"/>
      <point x="471" y="756"/>
      <point x="470" y="751" type="qcurve"/>
      <point x="454" y="708"/>
      <point x="426" y="687" type="qcurve"/>
      <point x="425" y="684" type="line"/>
      <point x="425" y="30" type="line"/>
      <point x="425" y="23"/>
      <point x="420" y="14" type="qcurve"/>
      <point x="413" y="2"/>
      <point x="403" y="-11"/>
      <point x="381" y="-27"/>
      <point x="368" y="-27" type="qcurve"/>
      <point x="353" y="-27"/>
      <point x="338" y="-17" type="qcurve"/>
      <point x="294" y="12"/>
      <point x="284" y="19" type="qcurve"/>
      <point x="273" y="27"/>
      <point x="273" y="40" type="qcurve"/>
      <point x="273" y="74" type="line"/>
      <point x="273" y="84"/>
      <point x="288" y="99"/>
      <point x="308" y="99"/>
      <point x="323" y="84"/>
      <point x="323" y="74" type="qcurve"/>
      <point x="323" y="53" type="line"/>
      <point x="326" y="51"/>
      <point x="366" y="25" type="qcurve"/>
      <point x="366" y="25"/>
      <point x="367" y="24" type="qcurve"/>
      <point x="370" y="28"/>
      <point x="375" y="37" type="qcurve"/>
      <point x="375" y="670" type="line"/>
      <point x="371" y="669"/>
      <point x="366" y="669" type="qcurve"/>
      <point x="355" y="669"/>
      <point x="342" y="671" type="qcurve"/>
      <point x="305" y="678"/>
      <point x="173" y="745"/>
      <point x="159" y="750" type="qcurve"/>
      <point x="135" y="759"/>
      <point x="120" y="759" type="qcurve"/>
      <point x="108" y="759"/>
      <point x="100" y="757" type="qcurve"/>
      <point x="100" y="755"/>
      <point x="101" y="750" type="qcurve"/>
      <point x="112" y="689"/>
      <point x="136" y="669" type="qcurve"/>
      <point x="145" y="662"/>
    </contour>
  </outline>
</glyph>
<glyph name="X" format="2">
  <advance width="935"/>
  <unicode hex="0058"/>
  <outline>
    <contour>
      <point x="101" y="531" type="qcurve"/>
      <point x="86" y="585"/>
      <point x="86" y="664" type="qcurve"/>
      <point x="86" y="668"/>
      <point x="86" y="687"/>
      <point x="86" y="692" type="qcurve"/>
      <point x="86" y="695"/>
      <point x="87" y="698" type="qcurve"/>
      <point x="95" y="729"/>
      <point x="150" y="775"/>
      <point x="183" y="788" type="qcurve"/>
      <point x="221" y="801"/>
      <point x="273" y="801" type="qcurve"/>
      <point x="335" y="801"/>
      <point x="363" y="773" type="qcurve"/>
      <point x="375" y="760"/>
      <point x="388" y="732" type="qcurve"/>
      <point x="402" y="701"/>
      <point x="418" y="687" type="qcurve"/>
      <point x="425" y="681"/>
      <point x="427" y="672" type="qcurve"/>
      <point x="439" y="588" type="line"/>
      <point x="439" y="586"/>
      <point x="439" y="584" type="qcurve"/>
      <point x="439" y="583"/>
      <point x="439" y="583" type="qcurve"/>
      <point x="433" y="454" type="line"/>
      <point x="433" y="450"/>
      <point x="431" y="446" type="qcurve"/>
      <point x="401" y="363" type="line"/>
      <point x="420" y="374"/>
      <point x="436" y="384" type="qcurve"/>
      <point x="436" y="397"/>
      <point x="437" y="411" type="qcurve"/>
      <point x="437" y="523"/>
      <point x="462" y="611" type="qcurve"/>
      <point x="489" y="705"/>
      <point x="542" y="758" type="qcurve"/>
      <point x="606" y="822"/>
      <point x="702" y="822" type="qcurve"/>
      <point x="705" y="822"/>
      <point x="723" y="824"/>
      <point x="729" y="824" type="qcurve"/>
      <point x="753" y="824"/>
      <point x="765" y="812" type="qcurve"/>
      <point x="775" y="802"/>
      <point x="775" y="788" type="qcurve"/>
      <point x="775" y="783"/>
      <point x="776" y="759"/>
      <point x="776" y="753" type="qcurve"/>
      <point x="776" y="742"/>
      <point x="775" y="733" type="qcurve"/>
      <point x="765" y="667"/>
      <point x="712" y="551"/>
      <point x="628" y="459"/>
      <point x="543" y="391"/>
      <point x="487" y="356" type="qcurve"/>
      <point x="491" y="288"/>
      <point x="543" y="161"/>
      <point x="586" y="118" type="qcurve"/>
      <point x="649" y="55"/>
      <point x="733" y="51" type="qcurve"/>
      <point x="746" y="50"/>
      <point x="757" y="50" type="qcurve"/>
      <point x="805" y="50"/>
      <point x="822" y="66" type="qcurve"/>
      <point x="834" y="78"/>
      <point x="836" y="104" type="qcurve"/>
      <point x="827" y="110"/>
      <point x="807" y="122" type="qcurve"/>
      <point x="776" y="127" type="line"/>
      <point x="767" y="129"/>
      <point x="755" y="143"/>
      <point x="755" y="152" type="qcurve"/>
      <point x="755" y="162"/>
      <point x="770" y="177"/>
      <point x="780" y="177" type="qcurve"/>
      <point x="782" y="177"/>
      <point x="784" y="177" type="qcurve"/>
      <point x="820" y="171" type="line"/>
      <point x="825" y="170"/>
      <point x="834" y="164"/>
      <point x="855" y="151"/>
      <point x="861" y="148" type="qcurve"/>
      <point x="877" y="137"/>
      <point x="882" y="130" type="qcurve"/>
      <point x="886" y="123"/>
      <point x="886" y="116" type="qcurve"/>
      <point x="886" y="60"/>
      <point x="857" y="31" type="qcurve"/>
      <point x="837" y="11"/>
      <point x="805" y="5" type="qcurve"/>
      <point x="785" y="0"/>
      <point x="758" y="0" type="qcurve"/>
      <point x="747" y="0"/>
      <point x="731" y="1" type="qcurve"/>
      <point x="668" y="4"/>
      <point x="562" y="63"/>
      <point x="491" y="156"/>
      <point x="446" y="267"/>
      <point x="439" y="327" type="qcurve"/>
      <point x="417" y="314"/>
      <point x="375" y="290" type="qcurve"/>
      <point x="368" y="272" type="line"/>
      <point x="368" y="271"/>
      <point x="367" y="270" type="qcurve"/>
      <point x="319" y="174" type="line"/>
      <point x="318" y="171"/>
      <point x="316" y="169" type="qcurve"/>
      <point x="306" y="157"/>
      <point x="280" y="109" type="qcurve"/>
      <point x="232" y="20"/>
      <point x="200" y="-12" type="qcurve"/>
      <point x="161" y="-50"/>
      <point x="120" y="-50" type="qcurve"/>
      <point x="104" y="-50"/>
      <point x="90" y="-37" type="qcurve"/>
      <point x="75" y="-21"/>
      <point x="63" y="14" type="qcurve"/>
      <point x="50" y="52"/>
      <point x="50" y="74" type="qcurve"/>
      <point x="50" y="77"/>
      <point x="51" y="80" type="qcurve"/>
      <point x="64" y="135"/>
      <point x="106" y="173" type="qcurve"/>
      <point x="106" y="174" type="line"/>
      <point x="138" y="201"/>
      <point x="221" y="259"/>
      <point x="282" y="295"/>
      <point x="334" y="325" type="qcurve"/>
      <point x="383" y="460" type="line"/>
      <point x="389" y="583" type="line"/>
      <point x="379" y="656" type="line"/>
      <point x="359" y="675"/>
      <point x="342" y="711" type="qcurve"/>
      <point x="333" y="732"/>
      <point x="327" y="738" type="qcurve"/>
      <point x="314" y="751"/>
      <point x="273" y="751" type="qcurve"/>
      <point x="230" y="751"/>
      <point x="200" y="740" type="qcurve"/>
      <point x="170" y="730"/>
      <point x="151" y="710" type="qcurve"/>
      <point x="140" y="699"/>
      <point x="136" y="688" type="qcurve"/>
      <point x="136" y="685"/>
      <point x="136" y="668"/>
      <point x="136" y="664" type="qcurve"/>
      <point x="136" y="589"/>
      <point x="150" y="540" type="qcurve"/>
      <point x="151" y="537"/>
      <point x="151" y="533" type="qcurve"/>
      <point x="151" y="531"/>
      <point x="151" y="528" type="qcurve"/>
      <point x="151" y="526"/>
      <point x="151" y="524" type="qcurve"/>
      <point x="151" y="514"/>
      <point x="136" y="499"/>
      <point x="126" y="499" type="qcurve"/>
      <point x="115" y="499"/>
      <point x="100" y="516"/>
      <point x="100" y="528" type="qcurve"/>
      <point x="100" y="530"/>
    </contour>
    <contour>
      <point x="725" y="774" type="qcurve"/>
      <point x="722" y="773"/>
      <point x="707" y="772"/>
      <point x="702" y="772" type="qcurve"/>
      <point x="626" y="772"/>
      <point x="577" y="723" type="qcurve"/>
      <point x="533" y="679"/>
      <point x="510" y="597" type="qcurve"/>
      <point x="488" y="518"/>
      <point x="487" y="416" type="qcurve"/>
      <point x="560" y="464"/>
      <point x="608" y="511" type="qcurve"/>
      <point x="707" y="610"/>
      <point x="725" y="741" type="qcurve"/>
      <point x="726" y="745"/>
      <point x="726" y="753" type="qcurve"/>
      <point x="726" y="759"/>
    </contour>
    <contour>
      <point x="100" y="72" type="qcurve"/>
      <point x="103" y="52"/>
      <point x="110" y="30" type="qcurve"/>
      <point x="117" y="11"/>
      <point x="125" y="0" type="qcurve"/>
      <point x="143" y="3"/>
      <point x="164" y="24" type="qcurve"/>
      <point x="191" y="51"/>
      <point x="236" y="133" type="qcurve"/>
      <point x="263" y="183"/>
      <point x="276" y="199" type="qcurve"/>
      <point x="300" y="247" type="line"/>
      <point x="196" y="186"/>
      <point x="140" y="136" type="qcurve"/>
      <point x="110" y="110"/>
    </contour>
  </outline>
</glyph>
<glyph name="bracketleft" format="2">
  <advance width="300"/>
  <unicode hex="005B"/>
  <outline>
    <contour>
      <point x="134" y="783" type="line"/>
      <point x="134" y="-167" type="line"/>
      <point x="201" y="-167" type="line"/>
      <point x="216" y="-167"/>
      <point x="236" y="-187"/>
      <point x="236" y="-217"/>
      <point x="216" y="-237"/>
      <point x="201" y="-237" type="qcurve"/>
      <point x="99" y="-237" type="line"/>
      <point x="84" y="-237"/>
      <point x="64" y="-217"/>
      <point x="64" y="-202" type="qcurve"/>
      <point x="64" y="818" type="line"/>
      <point x="64" y="833"/>
      <point x="84" y="853"/>
      <point x="99" y="853" type="qcurve"/>
      <point x="201" y="853" type="line"/>
      <point x="216" y="853"/>
      <point x="236" y="833"/>
      <point x="236" y="803"/>
      <point x="216" y="783"/>
      <point x="201" y="783" type="qcurve"/>
    </contour>
  </outline>
</glyph>
<glyph name="backslash" format="2">
  <advance width="512"/>
  <unicode hex="005C"/>
  <outline>
    <contour>
      <point x="409" y="94" type="qcurve"/>
      <point x="409" y="81"/>
      <point x="390" y="62"/>
      <point x="377" y="62" type="qcurve"/>
      <point x="355" y="62"/>
      <point x="346" y="82" type="qcurve"/>
      <point x="105" y="665" type="line"/>
      <point x="103" y="671"/>
      <point x="103" y="677" type="qcurve"/>
      <point x="103" y="691"/>
      <point x="122" y="710"/>
      <point x="135" y="710" type="qcurve"/>
      <point x="157" y="710"/>
      <point x="166" y="690" type="qcurve"/>
      <point x="407" y="107" type="line"/>
      <point x="409" y="101"/>
    </contour>
  </outline>
</glyph>
<glyph name="bracketright" format="2">
  <advance width="300"/>
  <unicode hex="005D"/>
  <outline>
    <contour>
      <point x="201" y="853" type="line"/>
      <point x="216" y="853"/>
      <point x="236" y="832"/>
      <point x="236" y="818" type="qcurve"/>
      <point x="236" y="-202" type="line"/>
      <point x="236" y="-217"/>
      <point x="216" y="-237"/>
      <point x="201" y="-237" type="qcurve"/>
      <point x="99" y="-237" type="line"/>
      <point x="84" y="-237"/>
      <point x="64" y="-217"/>
      <point x="64" y="-187"/>
      <point x="84" y="-167"/>
      <point x="99" y="-167" type="qcurve"/>
      <point x="166" y="-167" type="line"/>
      <point x="166" y="783" type="line"/>
      <point x="99" y="783" type="line"/>
      <point x="84" y="783"/>
      <point x="64" y="803"/>
      <point x="64" y="833"/>
      <point x="84" y="853"/>
      <point x="99" y="853" type="qcurve"/>
    </contour>
  </outline>
</glyph>
<glyph name="asciicircum" format="2">
  <advance width="349"/>
  <unicode hex="005E"/>
  <outline>
    <contour>
      <point x="-147" y="239" type="line"/>
      <point x="-182" y="204" type="line"/>
      <point x="-217" y="239" type="line"/>
      <point x="-182" y="274" type="line"/>
    </contour>
    <contour>
      <point x="386" y="709" type="qcurve"/>
      <point x="386" y="696"/>
      <point x="368" y="679"/>
      <point x="356" y="679" type="qcurve"/>
      <point x="347" y="679"/>
      <point x="340" y="684" type="qcurve"/>
      <point x="175" y="789" type="line"/>
      <point x="11" y="684" type="line"/>
      <point x="4" y="679"/>
      <point x="-5" y="679" type="qcurve"/>
      <point x="-17" y="679"/>
      <point x="-35" y="696"/>
      <point x="-35" y="709" type="qcurve"/>
      <point x="-35" y="725"/>
      <point x="-21" y="734" type="qcurve"/>
      <point x="175" y="859" type="line"/>
      <point x="372" y="734" type="line"/>
      <point x="386" y="725"/>
    </contour>
  </outline>
</glyph>
<glyph name="underscore" format="2">
  <advance width="512"/>
  <unicode hex="005F"/>
  <outline>
    <contour>
      <point x="-50" y="-216"/>
      <point x="-50" y="-186"/>
      <point x="-29" y="-165"/>
      <point x="-15" y="-166" type="qcurve"/>
      <point x="529" y="-172" type="line"/>
      <point x="544" y="-172"/>
      <point x="564" y="-192"/>
      <point x="564" y="-222"/>
      <point x="543" y="-243"/>
      <point x="529" y="-242" type="qcurve"/>
      <point x="-15" y="-236" type="line"/>
      <point x="-30" y="-236"/>
    </contour>
  </outline>
</glyph>
<glyph name="grave" format="2">
  <advance width="223"/>
  <unicode hex="0060"/>
  <outline>
    <contour>
      <point x="8" y="567" type="qcurve"/>
      <point x="8" y="577"/>
      <point x="23" y="593"/>
      <point x="34" y="593" type="qcurve"/>
      <point x="46" y="593"/>
      <point x="54" y="584" type="qcurve"/>
      <point x="208" y="411" type="line"/>
      <point x="215" y="403"/>
      <point x="215" y="393" type="qcurve"/>
      <point x="215" y="383"/>
      <point x="200" y="367"/>
      <point x="189" y="367" type="qcurve"/>
      <point x="177" y="367"/>
      <point x="169" y="376" type="qcurve"/>
      <point x="15" y="549" type="line"/>
      <point x="8" y="557"/>
    </contour>
  </outline>
</glyph>
<glyph name="a" format="2">
  <advance width="510"/>
  <unicode hex="0061"/>
  <outline>
    <contour>
      <point x="95" y="183" type="qcurve"/>
      <point x="95" y="128"/>
      <point x="113" y="83" type="qcurve"/>
      <point x="212" y="119"/>
      <point x="273" y="172" type="qcurve"/>
      <point x="326" y="234"/>
      <point x="326" y="311" type="qcurve"/>
      <point x="326" y="329"/>
      <point x="323" y="348" type="qcurve"/>
      <point x="324" y="355"/>
      <point x="324" y="366"/>
      <point x="323" y="372" type="qcurve"/>
      <point x="304" y="378"/>
      <point x="277" y="379" type="qcurve"/>
      <point x="248" y="394"/>
      <point x="220" y="394" type="qcurve"/>
      <point x="185" y="394"/>
      <point x="154" y="371" type="qcurve"/>
      <point x="126" y="335"/>
      <point x="95" y="235"/>
    </contour>
    <contour>
      <point x="196" y="44" type="qcurve"/>
      <point x="251" y="44"/>
      <point x="299" y="67" type="qcurve"/>
      <point x="288" y="87"/>
      <point x="285" y="112" type="qcurve"/>
      <point x="245" y="74"/>
      <point x="186" y="44" type="qcurve"/>
      <point x="191" y="44"/>
    </contour>
    <contour>
      <point x="416" y="143" type="qcurve"/>
      <point x="416" y="99"/>
      <point x="381" y="65" type="qcurve"/>
      <point x="379" y="63" type="line"/>
      <point x="396" y="56"/>
      <point x="415" y="56" type="qcurve"/>
      <point x="421" y="56"/>
      <point x="435" y="45" type="qcurve"/>
      <point x="455" y="29"/>
      <point x="466" y="29" type="qcurve"/>
      <point x="472" y="29" type="line"/>
      <point x="511" y="47" type="line"/>
      <point x="517" y="50"/>
      <point x="524" y="50" type="qcurve"/>
      <point x="538" y="50"/>
      <point x="557" y="31"/>
      <point x="557" y="18" type="qcurve"/>
      <point x="557" y="-2"/>
      <point x="538" y="-11" type="qcurve"/>
      <point x="472" y="-41" type="line"/>
      <point x="466" y="-41" type="line"/>
      <point x="455" y="-41"/>
      <point x="435" y="-26" type="qcurve"/>
      <point x="421" y="-14"/>
      <point x="415" y="-14" type="qcurve"/>
      <point x="375" y="-14"/>
      <point x="350" y="11" type="qcurve"/>
      <point x="338" y="23" type="line"/>
      <point x="282" y="-27"/>
      <point x="196" y="-27" type="qcurve"/>
      <point x="162" y="-27"/>
      <point x="133" y="-17" type="qcurve"/>
      <point x="132" y="-17"/>
      <point x="131" y="-17" type="qcurve"/>
      <point x="117" y="-17"/>
      <point x="107" y="-7" type="qcurve"/>
      <point x="94" y="6" type="line"/>
      <point x="49" y="-10"/>
      <point x="1" y="-20" type="qcurve"/>
      <point x="-3" y="-21"/>
      <point x="-6" y="-21" type="qcurve"/>
      <point x="-21" y="-21"/>
      <point x="-41" y="-1"/>
      <point x="-41" y="13" type="qcurve"/>
      <point x="-41" y="26"/>
      <point x="-25" y="45"/>
      <point x="-14" y="47" type="qcurve"/>
      <point x="26" y="56"/>
      <point x="51" y="63" type="qcurve"/>
      <point x="50" y="65"/>
      <point x="50" y="66" type="qcurve"/>
      <point x="24" y="117"/>
      <point x="24" y="183" type="qcurve"/>
      <point x="24" y="243"/>
      <point x="65" y="356"/>
      <point x="100" y="390" type="qcurve"/>
      <point x="135" y="426" type="line"/>
      <point x="174" y="464"/>
      <point x="220" y="464" type="qcurve"/>
      <point x="248" y="464"/>
      <point x="277" y="449" type="qcurve"/>
      <point x="327" y="448"/>
      <point x="346" y="428" type="qcurve"/>
      <point x="382" y="393" type="line"/>
      <point x="394" y="380"/>
      <point x="394" y="360" type="qcurve"/>
      <point x="394" y="355"/>
      <point x="393" y="348" type="qcurve"/>
      <point x="396" y="329"/>
      <point x="396" y="311" type="qcurve"/>
      <point x="396" y="274"/>
      <point x="384" y="241" type="qcurve"/>
      <point x="407" y="218" type="line"/>
      <point x="411" y="214"/>
      <point x="413" y="173" type="qcurve"/>
      <point x="414" y="168"/>
      <point x="416" y="150"/>
    </contour>
  </outline>
</glyph>
<glyph name="b" format="2">
  <advance width="522"/>
  <unicode hex="0062"/>
  <outline>
    <contour>
      <point x="516" y="227" type="qcurve"/>
      <point x="516" y="225"/>
      <point x="516" y="215"/>
      <point x="516" y="213" type="qcurve"/>
      <point x="516" y="185"/>
      <point x="513" y="170" type="qcurve"/>
      <point x="496" y="89"/>
      <point x="454" y="46" type="qcurve"/>
      <point x="419" y="11" type="line"/>
      <point x="390" y="-18"/>
      <point x="355" y="-18" type="qcurve"/>
      <point x="323" y="-18"/>
      <point x="215" y="4"/>
      <point x="199" y="6" type="qcurve"/>
      <point x="179" y="8"/>
      <point x="164" y="23" type="qcurve"/>
      <point x="129" y="58" type="line"/>
      <point x="122" y="65"/>
      <point x="116" y="75" type="qcurve"/>
      <point x="105" y="63"/>
      <point x="58" y="16" type="qcurve"/>
      <point x="31" y="-11"/>
      <point x="1" y="-33" type="qcurve"/>
      <point x="-7" y="-39"/>
      <point x="-16" y="-39" type="qcurve"/>
      <point x="-28" y="-39"/>
      <point x="-44" y="-22"/>
      <point x="-44" y="-11" type="qcurve"/>
      <point x="-44" y="3"/>
      <point x="-33" y="12" type="qcurve"/>
      <point x="21" y="53"/>
      <point x="40" y="70" type="qcurve"/>
      <point x="66" y="98"/>
      <point x="89" y="131" type="qcurve"/>
      <point x="75" y="165"/>
      <point x="65" y="179" type="qcurve"/>
      <point x="64" y="180"/>
      <point x="50" y="233" type="qcurve"/>
      <point x="35" y="341" type="line"/>
      <point x="29" y="527" type="line"/>
      <point x="37" y="608"/>
      <point x="47" y="713" type="qcurve"/>
      <point x="48" y="717"/>
      <point x="57" y="742"/>
      <point x="62" y="754"/>
      <point x="71" y="772"/>
      <point x="77" y="779" type="qcurve"/>
      <point x="80" y="783"/>
      <point x="93" y="808"/>
      <point x="99" y="813" type="qcurve"/>
      <point x="134" y="849" type="line"/>
      <point x="140" y="855"/>
      <point x="148" y="856" type="qcurve"/>
      <point x="166" y="856"/>
      <point x="179" y="844" type="qcurve"/>
      <point x="214" y="809" type="line"/>
      <point x="222" y="801"/>
      <point x="233" y="774"/>
      <point x="238" y="755"/>
      <point x="245" y="717"/>
      <point x="246" y="710" type="qcurve"/>
      <point x="271" y="599"/>
      <point x="271" y="535" type="qcurve"/>
      <point x="271" y="534"/>
      <point x="270" y="526"/>
      <point x="270" y="524" type="qcurve"/>
      <point x="271" y="498"/>
      <point x="271" y="491" type="qcurve"/>
      <point x="271" y="419"/>
      <point x="255" y="348" type="qcurve"/>
      <point x="260" y="355"/>
      <point x="265" y="360" type="qcurve"/>
      <point x="301" y="395" type="line"/>
      <point x="312" y="406"/>
      <point x="319" y="406" type="qcurve"/>
      <point x="355" y="406"/>
      <point x="402" y="392"/>
      <point x="422" y="372" type="qcurve"/>
      <point x="457" y="337" type="line"/>
      <point x="462" y="332"/>
      <point x="468" y="325" type="qcurve"/>
      <point x="485" y="368" type="line"/>
      <point x="488" y="410" type="line"/>
      <point x="489" y="423"/>
      <point x="509" y="442"/>
      <point x="523" y="442" type="qcurve"/>
      <point x="538" y="442"/>
      <point x="558" y="421"/>
      <point x="558" y="407" type="qcurve"/>
      <point x="558" y="405"/>
      <point x="558" y="404" type="qcurve"/>
      <point x="555" y="368" type="line"/>
      <point x="525" y="293" type="line"/>
      <point x="522" y="285"/>
      <point x="504" y="270" type="qcurve"/>
      <point x="516" y="247"/>
    </contour>
    <contour>
      <point x="200" y="535" type="qcurve"/>
      <point x="200" y="599"/>
      <point x="176" y="710" type="qcurve"/>
      <point x="174" y="717"/>
      <point x="168" y="750"/>
      <point x="163" y="774"/>
      <point x="158" y="785" type="qcurve"/>
      <point x="155" y="785"/>
      <point x="152" y="786" type="qcurve"/>
      <point x="149" y="782"/>
      <point x="147" y="779" type="qcurve"/>
      <point x="142" y="772"/>
      <point x="133" y="754"/>
      <point x="128" y="742"/>
      <point x="119" y="717"/>
      <point x="117" y="713" type="qcurve"/>
      <point x="108" y="608"/>
      <point x="99" y="527" type="qcurve"/>
      <point x="105" y="341" type="line"/>
      <point x="120" y="233" type="line"/>
      <point x="122" y="227"/>
      <point x="128" y="204"/>
      <point x="130" y="199" type="qcurve"/>
      <point x="201" y="337"/>
      <point x="201" y="491" type="qcurve"/>
      <point x="201" y="498"/>
      <point x="200" y="524" type="qcurve"/>
      <point x="200" y="526"/>
      <point x="200" y="534"/>
    </contour>
    <contour>
      <point x="446" y="227" type="qcurve"/>
      <point x="446" y="233"/>
      <point x="444" y="240" type="qcurve"/>
      <point x="432" y="239"/>
      <point x="409" y="231" type="qcurve"/>
      <point x="393" y="224"/>
      <point x="355" y="224"/>
      <point x="334" y="231" type="qcurve"/>
      <point x="317" y="231"/>
      <point x="305" y="243" type="qcurve"/>
      <point x="270" y="278" type="line"/>
      <point x="259" y="289"/>
      <point x="247" y="319" type="qcurve"/>
      <point x="219" y="216"/>
      <point x="160" y="131" type="qcurve"/>
      <point x="175" y="94"/>
      <point x="183" y="81" type="qcurve"/>
      <point x="191" y="77"/>
      <point x="199" y="76" type="qcurve"/>
      <point x="215" y="74"/>
      <point x="323" y="52"/>
      <point x="355" y="52" type="qcurve"/>
      <point x="379" y="53"/>
      <point x="400" y="67" type="qcurve"/>
      <point x="430" y="108"/>
      <point x="443" y="170" type="qcurve"/>
      <point x="446" y="185"/>
      <point x="446" y="213" type="qcurve"/>
      <point x="446" y="215"/>
      <point x="446" y="225"/>
    </contour>
    <contour>
      <point x="355" y="295"/>
      <point x="393" y="295"/>
      <point x="409" y="301" type="qcurve"/>
      <point x="411" y="302"/>
      <point x="413" y="303" type="qcurve"/>
      <point x="407" y="313"/>
      <point x="404" y="316" type="qcurve"/>
      <point x="375" y="336"/>
      <point x="319" y="336" type="qcurve"/>
      <point x="319" y="336"/>
      <point x="318" y="336" type="qcurve"/>
      <point x="315" y="330"/>
      <point x="315" y="326" type="qcurve"/>
      <point x="322" y="309"/>
      <point x="325" y="302" type="qcurve"/>
      <point x="329" y="301"/>
      <point x="334" y="301" type="qcurve"/>
    </contour>
  </outline>
</glyph>
<glyph name="c" format="2">
  <advance width="495"/>
  <unicode hex="0063"/>
  <outline>
    <contour>
      <point x="188" y="278" type="qcurve"/>
      <point x="188" y="258"/>
      <point x="190" y="220" type="qcurve"/>
      <point x="258" y="245"/>
      <point x="290" y="269" type="qcurve"/>
      <point x="300" y="283"/>
      <point x="307" y="300" type="qcurve"/>
      <point x="305" y="301"/>
      <point x="304" y="302" type="qcurve"/>
      <point x="269" y="338" type="line"/>
      <point x="260" y="347"/>
      <point x="260" y="374" type="qcurve"/>
      <point x="260" y="393"/>
      <point x="264" y="402" type="qcurve"/>
      <point x="262" y="402"/>
      <point x="259" y="402" type="qcurve"/>
      <point x="230" y="395"/>
      <point x="209" y="383" type="qcurve"/>
      <point x="188" y="347"/>
    </contour>
    <contour>
      <point x="349" y="43" type="qcurve"/>
      <point x="496" y="130" type="line"/>
      <point x="503" y="135"/>
      <point x="511" y="135" type="qcurve"/>
      <point x="524" y="135"/>
      <point x="542" y="117"/>
      <point x="542" y="104" type="qcurve"/>
      <point x="542" y="87"/>
      <point x="527" y="78" type="qcurve"/>
      <point x="349" y="-27" type="line"/>
      <point x="348" y="-27"/>
      <point x="301" y="-24" type="qcurve"/>
      <point x="298" y="-24"/>
      <point x="293" y="-24" type="qcurve"/>
      <point x="253" y="-24"/>
      <point x="232" y="-15" type="qcurve"/>
      <point x="217" y="-9"/>
      <point x="199" y="10" type="qcurve"/>
      <point x="153" y="56"/>
      <point x="146" y="65" type="qcurve"/>
      <point x="127" y="127" type="line"/>
      <point x="44" y="95"/>
      <point x="1" y="56" type="qcurve"/>
      <point x="-7" y="49"/>
      <point x="-17" y="49" type="qcurve"/>
      <point x="-27" y="49"/>
      <point x="-43" y="65"/>
      <point x="-43" y="76" type="qcurve"/>
      <point x="-43" y="87"/>
      <point x="-34" y="95" type="qcurve"/>
      <point x="1" y="127" type="line"/>
      <point x="42" y="165"/>
      <point x="120" y="195" type="qcurve"/>
      <point x="117" y="264"/>
      <point x="117" y="278" type="qcurve"/>
      <point x="117" y="366"/>
      <point x="154" y="403" type="qcurve"/>
      <point x="189" y="438" type="line"/>
      <point x="214" y="463"/>
      <point x="259" y="472" type="qcurve"/>
      <point x="272" y="472"/>
      <point x="315" y="474"/>
      <point x="326" y="474" type="qcurve"/>
      <point x="359" y="474"/>
      <point x="371" y="461" type="qcurve"/>
      <point x="407" y="426" type="line"/>
      <point x="418" y="414"/>
      <point x="426" y="383" type="qcurve"/>
      <point x="428" y="378"/>
      <point x="428" y="374" type="qcurve"/>
      <point x="428" y="363"/>
      <point x="419" y="355" type="qcurve"/>
      <point x="384" y="319" type="line"/>
      <point x="383" y="319"/>
      <point x="383" y="318" type="qcurve"/>
      <point x="373" y="279"/>
      <point x="345" y="250" type="qcurve"/>
      <point x="310" y="215" type="line"/>
      <point x="276" y="182"/>
      <point x="192" y="151" type="qcurve"/>
      <point x="192" y="150"/>
      <point x="192" y="148"/>
      <point x="192" y="146"/>
      <point x="192" y="146" type="qcurve"/>
      <point x="216" y="65" type="line"/>
      <point x="225" y="59"/>
      <point x="232" y="55" type="qcurve"/>
      <point x="253" y="46"/>
      <point x="293" y="46" type="qcurve"/>
      <point x="301" y="46" type="line"/>
      <point x="348" y="43"/>
    </contour>
  </outline>
</glyph>
<glyph name="d" format="2">
  <advance width="618"/>
  <unicode hex="0064"/>
  <outline>
    <contour>
      <point x="241" y="366" type="qcurve"/>
      <point x="203" y="366"/>
      <point x="178" y="352" type="qcurve"/>
      <point x="162" y="324"/>
      <point x="153" y="249"/>
      <point x="153" y="191" type="qcurve"/>
      <point x="158" y="174"/>
      <point x="163" y="157" type="qcurve"/>
      <point x="269" y="169"/>
      <point x="309" y="193" type="qcurve"/>
      <point x="323" y="218"/>
      <point x="323" y="253" type="qcurve"/>
      <point x="323" y="270"/>
      <point x="320" y="290" type="qcurve"/>
      <point x="312" y="336"/>
      <point x="303" y="355" type="qcurve"/>
      <point x="280" y="366"/>
    </contour>
    <contour>
      <point x="255" y="31" type="qcurve"/>
      <point x="260" y="31"/>
      <point x="265" y="31" type="qcurve"/>
      <point x="326" y="40"/>
      <point x="370" y="75" type="qcurve"/>
      <point x="385" y="93"/>
      <point x="396" y="116" type="qcurve"/>
      <point x="384" y="146"/>
      <point x="373" y="183" type="qcurve"/>
      <point x="369" y="178"/>
      <point x="364" y="174" type="qcurve"/>
      <point x="329" y="139" type="line"/>
      <point x="293" y="103"/>
      <point x="189" y="90" type="qcurve"/>
      <point x="202" y="63"/>
      <point x="216" y="43" type="qcurve"/>
      <point x="235" y="31"/>
    </contour>
    <contour>
      <point x="391" y="593" type="qcurve"/>
      <point x="396" y="416" type="line"/>
      <point x="398" y="407"/>
      <point x="404" y="359"/>
      <point x="406" y="344"/>
      <point x="412" y="308"/>
      <point x="417" y="285"/>
      <point x="425" y="250"/>
      <point x="430" y="232" type="qcurve"/>
      <point x="434" y="264"/>
      <point x="434" y="299" type="qcurve"/>
      <point x="431" y="398"/>
    </contour>
    <contour>
      <point x="363" y="807" type="qcurve"/>
      <point x="372" y="807"/>
      <point x="380" y="799" type="qcurve"/>
      <point x="415" y="763" type="line"/>
      <point x="434" y="744"/>
      <point x="441" y="701" type="qcurve"/>
      <point x="447" y="665"/>
      <point x="483" y="494"/>
      <point x="503" y="362"/>
      <point x="504" y="299" type="qcurve"/>
      <point x="504" y="191"/>
      <point x="467" y="116" type="qcurve"/>
      <point x="485" y="73"/>
      <point x="503" y="46" type="qcurve"/>
      <point x="513" y="40"/>
      <point x="523" y="40" type="qcurve"/>
      <point x="537" y="40"/>
      <point x="562" y="49" type="qcurve"/>
      <point x="598" y="120" type="line"/>
      <point x="607" y="137"/>
      <point x="626" y="137" type="qcurve"/>
      <point x="639" y="137"/>
      <point x="658" y="119"/>
      <point x="658" y="106" type="qcurve"/>
      <point x="658" y="98"/>
      <point x="654" y="92" type="qcurve"/>
      <point x="618" y="20" type="line"/>
      <point x="603" y="-10"/>
      <point x="583" y="-15" type="qcurve"/>
      <point x="577" y="-17"/>
      <point x="553" y="-25"/>
      <point x="533" y="-30"/>
      <point x="523" y="-30" type="qcurve"/>
      <point x="504" y="-30"/>
      <point x="485" y="-11" type="qcurve"/>
      <point x="450" y="24" type="line"/>
      <point x="438" y="36"/>
      <point x="425" y="57" type="qcurve"/>
      <point x="425" y="56"/>
      <point x="389" y="20" type="qcurve"/>
      <point x="340" y="-29"/>
      <point x="265" y="-39" type="qcurve"/>
      <point x="260" y="-40"/>
      <point x="255" y="-40" type="qcurve"/>
      <point x="225" y="-40"/>
      <point x="198" y="-13" type="qcurve"/>
      <point x="162" y="23" type="line"/>
      <point x="141" y="44"/>
      <point x="122" y="82" type="qcurve"/>
      <point x="40" y="73"/>
      <point x="1" y="56" type="qcurve"/>
      <point x="-5" y="54"/>
      <point x="-12" y="54" type="qcurve"/>
      <point x="-25" y="54"/>
      <point x="-44" y="73"/>
      <point x="-44" y="86" type="qcurve"/>
      <point x="-44" y="108"/>
      <point x="-24" y="116" type="qcurve"/>
      <point x="1" y="127" type="line"/>
      <point x="35" y="141"/>
      <point x="95" y="149" type="qcurve"/>
      <point x="88" y="170"/>
      <point x="83" y="191" type="qcurve"/>
      <point x="83" y="236"/>
      <point x="86" y="290"/>
      <point x="105" y="354"/>
      <point x="123" y="372" type="qcurve"/>
      <point x="158" y="407" type="line"/>
      <point x="187" y="436"/>
      <point x="241" y="436" type="qcurve"/>
      <point x="299" y="436"/>
      <point x="323" y="412" type="qcurve"/>
      <point x="327" y="408" type="line"/>
      <point x="326" y="416" type="line"/>
      <point x="320" y="629" type="line"/>
      <point x="335" y="770" type="line"/>
      <point x="336" y="785"/>
      <point x="353" y="807"/>
    </contour>
  </outline>
</glyph>
<glyph name="e" format="2">
  <advance width="540"/>
  <unicode hex="0065"/>
  <outline>
    <contour>
      <point x="170" y="163" type="qcurve"/>
      <point x="266" y="194"/>
      <point x="326" y="245" type="qcurve"/>
      <point x="371" y="299"/>
      <point x="379" y="367" type="qcurve"/>
      <point x="342" y="378"/>
      <point x="298" y="378" type="qcurve"/>
      <point x="299" y="378"/>
      <point x="299" y="378" type="qcurve"/>
      <point x="297" y="378"/>
      <point x="268" y="367"/>
      <point x="229" y="348"/>
      <point x="218" y="338" type="qcurve"/>
      <point x="177" y="290"/>
      <point x="177" y="257" type="qcurve"/>
      <point x="170" y="169"/>
    </contour>
    <contour>
      <point x="107" y="257" type="qcurve"/>
      <point x="107" y="277"/>
      <point x="139" y="331"/>
      <point x="164" y="357" type="qcurve"/>
      <point x="200" y="392" type="line"/>
      <point x="256" y="448"/>
      <point x="298" y="448" type="qcurve"/>
      <point x="324" y="448"/>
      <point x="395" y="436"/>
      <point x="409" y="422" type="qcurve"/>
      <point x="444" y="387" type="line"/>
      <point x="450" y="381"/>
      <point x="450" y="374" type="qcurve"/>
      <point x="443" y="290"/>
      <point x="380" y="227" type="qcurve"/>
      <point x="345" y="192" type="line"/>
      <point x="282" y="129"/>
      <point x="170" y="92" type="qcurve"/>
      <point x="173" y="71"/>
      <point x="184" y="54" type="qcurve"/>
      <point x="222" y="29"/>
      <point x="274" y="29" type="qcurve"/>
      <point x="288" y="29"/>
      <point x="301" y="31" type="qcurve"/>
      <point x="345" y="38"/>
      <point x="410" y="60"/>
      <point x="447" y="82"/>
      <point x="484" y="108" type="qcurve"/>
      <point x="498" y="118"/>
      <point x="506" y="123" type="qcurve"/>
      <point x="530" y="155" type="line"/>
      <point x="538" y="168"/>
      <point x="553" y="168" type="qcurve"/>
      <point x="565" y="168"/>
      <point x="582" y="151"/>
      <point x="582" y="139" type="qcurve"/>
      <point x="582" y="130"/>
      <point x="576" y="122" type="qcurve"/>
      <point x="562" y="101" type="line"/>
      <point x="545" y="79"/>
      <point x="526" y="66" type="qcurve"/>
      <point x="510" y="55"/>
      <point x="484" y="37" type="qcurve"/>
      <point x="447" y="11"/>
      <point x="410" y="-11"/>
      <point x="345" y="-33"/>
      <point x="301" y="-39" type="qcurve"/>
      <point x="288" y="-41"/>
      <point x="274" y="-41" type="qcurve"/>
      <point x="205" y="-41"/>
      <point x="164" y="-1" type="qcurve"/>
      <point x="129" y="35" type="line"/>
      <point x="112" y="52"/>
      <point x="104" y="74" type="qcurve"/>
      <point x="53" y="62"/>
      <point x="1" y="57" type="qcurve"/>
      <point x="-1" y="56"/>
      <point x="-2" y="56" type="qcurve"/>
      <point x="-17" y="56"/>
      <point x="-38" y="77"/>
      <point x="-38" y="92" type="qcurve"/>
      <point x="-38" y="105"/>
      <point x="-19" y="125"/>
      <point x="-6" y="127" type="qcurve"/>
      <point x="51" y="132"/>
      <point x="100" y="143" type="qcurve"/>
      <point x="99" y="152"/>
      <point x="99" y="162" type="qcurve"/>
      <point x="99" y="169"/>
    </contour>
  </outline>
</glyph>
<glyph name="g" format="2">
  <advance width="417"/>
  <unicode hex="0067"/>
  <outline>
    <contour>
      <point x="-16" y="52" type="qcurve"/>
      <point x="-28" y="52"/>
      <point x="-46" y="70"/>
      <point x="-46" y="82" type="qcurve"/>
      <point x="-46" y="99"/>
      <point x="-32" y="107" type="qcurve"/>
      <point x="0" y="127"/>
      <point x="0" y="128" type="qcurve"/>
      <point x="4" y="131"/>
      <point x="25" y="152" type="qcurve"/>
      <point x="34" y="162"/>
      <point x="41" y="172" type="qcurve"/>
      <point x="56" y="217" type="line"/>
      <point x="63" y="240"/>
      <point x="88" y="240" type="qcurve"/>
      <point x="101" y="240"/>
      <point x="121" y="220"/>
      <point x="121" y="207" type="qcurve"/>
      <point x="121" y="201"/>
      <point x="119" y="196" type="qcurve"/>
      <point x="111" y="172" type="line"/>
      <point x="101" y="157"/>
      <point x="70" y="126" type="qcurve"/>
      <point x="70" y="126"/>
      <point x="54" y="108"/>
      <point x="50" y="104" type="qcurve"/>
      <point x="15" y="69" type="line"/>
      <point x="7" y="61"/>
      <point x="-7" y="52"/>
    </contour>
    <contour>
      <point x="254" y="71" type="qcurve"/>
      <point x="248" y="71"/>
      <point x="224" y="72"/>
      <point x="218" y="72" type="qcurve"/>
      <point x="205" y="72"/>
      <point x="196" y="71" type="qcurve"/>
      <point x="158" y="66"/>
      <point x="140" y="66" type="qcurve"/>
      <point x="109" y="66"/>
      <point x="96" y="79" type="qcurve"/>
      <point x="61" y="114" type="line"/>
      <point x="43" y="132"/>
      <point x="43" y="206" type="qcurve"/>
      <point x="43" y="208"/>
      <point x="43" y="210" type="qcurve"/>
      <point x="43" y="253"/>
      <point x="80" y="348"/>
      <point x="110" y="379" type="qcurve"/>
      <point x="146" y="414" type="line"/>
      <point x="181" y="449"/>
      <point x="221" y="449" type="qcurve"/>
      <point x="253" y="449"/>
      <point x="286" y="425" type="qcurve"/>
      <point x="287" y="425"/>
      <point x="287" y="424" type="qcurve"/>
      <point x="323" y="389" type="line"/>
      <point x="328" y="384"/>
      <point x="344" y="350"/>
      <point x="350" y="336" type="qcurve"/>
      <point x="355" y="322" type="line"/>
      <point x="361" y="192" type="line"/>
      <point x="361" y="176" type="line"/>
      <point x="371" y="167"/>
      <point x="371" y="154" type="qcurve"/>
      <point x="371" y="142"/>
      <point x="361" y="129" type="qcurve"/>
      <point x="360" y="64" type="line"/>
      <point x="373" y="78" type="line"/>
      <point x="398" y="122" type="line"/>
      <point x="407" y="138"/>
      <point x="425" y="138" type="qcurve"/>
      <point x="437" y="138"/>
      <point x="455" y="120"/>
      <point x="455" y="107" type="qcurve"/>
      <point x="455" y="99"/>
      <point x="451" y="92" type="qcurve"/>
      <point x="443" y="78" type="line"/>
      <point x="425" y="58"/>
      <point x="423" y="54" type="qcurve"/>
      <point x="417" y="37"/>
      <point x="404" y="25" type="qcurve"/>
      <point x="369" y="-11" type="line"/>
      <point x="363" y="-16"/>
      <point x="357" y="-21" type="qcurve"/>
      <point x="349" y="-82" type="line"/>
      <point x="339" y="-142" type="line"/>
      <point x="321" y="-194" type="line"/>
      <point x="316" y="-202"/>
      <point x="311" y="-208" type="qcurve"/>
      <point x="275" y="-243" type="line"/>
      <point x="262" y="-256"/>
      <point x="247" y="-256" type="qcurve"/>
      <point x="242" y="-256"/>
      <point x="238" y="-255" type="qcurve"/>
      <point x="233" y="-256"/>
      <point x="228" y="-256" type="qcurve"/>
      <point x="194" y="-256"/>
      <point x="174" y="-237" type="qcurve"/>
      <point x="139" y="-201" type="line"/>
      <point x="130" y="-192"/>
      <point x="127" y="-180" type="qcurve"/>
      <point x="108" y="-150"/>
      <point x="108" y="-123" type="qcurve"/>
      <point x="108" y="-119"/>
      <point x="109" y="-114" type="qcurve"/>
      <point x="109" y="-80"/>
      <point x="129" y="-59" type="qcurve"/>
      <point x="165" y="-24" type="line"/>
      <point x="174" y="-15"/>
      <point x="208" y="1"/>
      <point x="229" y="8"/>
      <point x="283" y="20"/>
      <point x="289" y="22" type="qcurve"/>
      <point x="289" y="74" type="line"/>
      <point x="275" y="71"/>
    </contour>
    <contour>
      <point x="247" y="-186" type="qcurve"/>
      <point x="250" y="-186"/>
      <point x="254" y="-185" type="qcurve"/>
      <point x="269" y="-142" type="line"/>
      <point x="281" y="-68"/>
      <point x="282" y="-50" type="qcurve"/>
      <point x="277" y="-52"/>
      <point x="239" y="-61"/>
      <point x="222" y="-65"/>
      <point x="195" y="-74"/>
      <point x="186" y="-79" type="qcurve"/>
      <point x="179" y="-94"/>
      <point x="179" y="-114" type="qcurve"/>
      <point x="179" y="-119"/>
      <point x="179" y="-123" type="qcurve"/>
      <point x="179" y="-150"/>
      <point x="197" y="-180" type="qcurve"/>
      <point x="211" y="-185"/>
      <point x="228" y="-185" type="qcurve"/>
      <point x="233" y="-185"/>
      <point x="238" y="-185" type="qcurve"/>
      <point x="242" y="-186"/>
    </contour>
    <contour>
      <point x="254" y="142" type="qcurve"/>
      <point x="276" y="142"/>
      <point x="290" y="145" type="qcurve"/>
      <point x="291" y="192" type="line"/>
      <point x="285" y="322" type="line"/>
      <point x="275" y="347"/>
      <point x="265" y="367" type="qcurve"/>
      <point x="243" y="378"/>
      <point x="221" y="378" type="qcurve"/>
      <point x="191" y="378"/>
      <point x="164" y="359" type="qcurve"/>
      <point x="141" y="328"/>
      <point x="113" y="246"/>
      <point x="113" y="210" type="qcurve"/>
      <point x="113" y="208"/>
      <point x="113" y="206" type="qcurve"/>
      <point x="113" y="159"/>
      <point x="119" y="138" type="qcurve"/>
      <point x="128" y="136"/>
      <point x="140" y="136" type="qcurve"/>
      <point x="158" y="136"/>
      <point x="196" y="141" type="qcurve"/>
      <point x="205" y="142"/>
      <point x="218" y="142" type="qcurve"/>
      <point x="224" y="142"/>
      <point x="248" y="142"/>
    </contour>
  </outline>
</glyph>
<glyph name="i" format="2">
  <advance width="289"/>
  <unicode hex="0069"/>
  <outline>
    <contour>
      <point x="111" y="566" type="qcurve"/>
      <point x="111" y="576"/>
      <point x="126" y="591"/>
      <point x="136" y="591" type="qcurve"/>
      <point x="142" y="591"/>
      <point x="147" y="588" type="qcurve"/>
      <point x="155" y="593"/>
      <point x="164" y="593" type="qcurve"/>
      <point x="176" y="593"/>
      <point x="193" y="577"/>
      <point x="193" y="565" type="qcurve"/>
      <point x="193" y="556"/>
      <point x="188" y="549" type="qcurve"/>
      <point x="195" y="542" type="line"/>
      <point x="193" y="531"/>
      <point x="192" y="530" type="qcurve"/>
      <point x="157" y="495" type="line"/>
      <point x="156" y="495"/>
      <point x="156" y="495" type="qcurve"/>
      <point x="146" y="497" type="line"/>
      <point x="130" y="500"/>
      <point x="110" y="518"/>
      <point x="110" y="528" type="qcurve"/>
      <point x="110" y="530"/>
      <point x="111" y="532" type="qcurve"/>
      <point x="113" y="543"/>
      <point x="118" y="549" type="qcurve"/>
      <point x="111" y="556"/>
    </contour>
    <contour>
      <point x="4" y="61" type="line"/>
      <point x="-11" y="61"/>
      <point x="-31" y="81"/>
      <point x="-31" y="111"/>
      <point x="-11" y="131"/>
      <point x="4" y="131" type="qcurve"/>
      <point x="8" y="131" type="line"/>
      <point x="40" y="134"/>
      <point x="65" y="150" type="qcurve"/>
      <point x="70" y="157"/>
      <point x="74" y="165" type="qcurve"/>
      <point x="73" y="172" type="line"/>
      <point x="69" y="248" type="line"/>
      <point x="73" y="342" type="line"/>
      <point x="81" y="396" type="line"/>
      <point x="81" y="397"/>
      <point x="85" y="402" type="qcurve"/>
      <point x="85" y="403"/>
      <point x="88" y="411"/>
      <point x="89" y="412" type="qcurve"/>
      <point x="125" y="448" type="line"/>
      <point x="128" y="451"/>
      <point x="140" y="451" type="qcurve"/>
      <point x="144" y="451"/>
      <point x="147" y="448" type="qcurve"/>
      <point x="183" y="413" type="line"/>
      <point x="190" y="406"/>
      <point x="190" y="381" type="qcurve"/>
      <point x="190" y="374"/>
      <point x="189" y="364" type="qcurve"/>
      <point x="179" y="226"/>
      <point x="145" y="165" type="qcurve"/>
      <point x="157" y="104" type="line"/>
      <point x="161" y="83"/>
      <point x="175" y="63" type="qcurve"/>
      <point x="206" y="40"/>
      <point x="232" y="38" type="qcurve"/>
      <point x="240" y="55"/>
      <point x="264" y="116" type="qcurve"/>
      <point x="273" y="137"/>
      <point x="295" y="137" type="qcurve"/>
      <point x="308" y="137"/>
      <point x="328" y="118"/>
      <point x="328" y="104" type="qcurve"/>
      <point x="328" y="98"/>
      <point x="325" y="92" type="qcurve"/>
      <point x="316" y="67"/>
      <point x="295" y="22" type="qcurve"/>
      <point x="292" y="15"/>
      <point x="266" y="-8" type="qcurve"/>
      <point x="248" y="-26" type="line"/>
      <point x="241" y="-33"/>
      <point x="236" y="-33" type="qcurve"/>
      <point x="222" y="-33"/>
      <point x="182" y="-13"/>
      <point x="168" y="-1" type="qcurve"/>
      <point x="161" y="5"/>
      <point x="156" y="10" type="qcurve"/>
      <point x="120" y="46" type="line"/>
      <point x="94" y="72"/>
      <point x="88" y="99" type="qcurve"/>
      <point x="83" y="95" type="line"/>
      <point x="53" y="64"/>
      <point x="8" y="61" type="qcurve"/>
    </contour>
  </outline>
</glyph>
<glyph name="k" format="2">
  <advance width="423"/>
  <unicode hex="006B"/>
  <outline>
    <contour>
      <point x="156" y="720" type="qcurve"/>
      <point x="156" y="708"/>
      <point x="155" y="677"/>
      <point x="155" y="670" type="qcurve"/>
      <point x="157" y="637"/>
      <point x="157" y="604" type="qcurve"/>
      <point x="157" y="545"/>
      <point x="151" y="487" type="qcurve"/>
      <point x="165" y="412"/>
      <point x="165" y="374" type="qcurve"/>
      <point x="165" y="364"/>
      <point x="166" y="353" type="qcurve"/>
      <point x="168" y="355"/>
      <point x="205" y="392" type="qcurve"/>
      <point x="250" y="437"/>
      <point x="290" y="437" type="qcurve"/>
      <point x="313" y="431"/>
      <point x="329" y="415" type="qcurve"/>
      <point x="365" y="380" type="line"/>
      <point x="396" y="348"/>
      <point x="396" y="287" type="qcurve"/>
      <point x="396" y="279"/>
      <point x="395" y="270" type="qcurve"/>
      <point x="396" y="262"/>
      <point x="396" y="254" type="qcurve"/>
      <point x="396" y="210"/>
      <point x="366" y="180" type="qcurve"/>
      <point x="331" y="145" type="line"/>
      <point x="302" y="116"/>
      <point x="262" y="116" type="qcurve"/>
      <point x="251" y="116"/>
      <point x="240" y="119" type="qcurve"/>
      <point x="235" y="118"/>
      <point x="230" y="118" type="qcurve"/>
      <point x="252" y="71"/>
      <point x="257" y="64" type="qcurve"/>
      <point x="259" y="59"/>
      <point x="262" y="54" type="qcurve"/>
      <point x="292" y="37"/>
      <point x="342" y="37" type="qcurve"/>
      <point x="350" y="37"/>
      <point x="358" y="40" type="qcurve"/>
      <point x="372" y="64"/>
      <point x="375" y="68" type="qcurve"/>
      <point x="403" y="124" type="line"/>
      <point x="412" y="142"/>
      <point x="431" y="142" type="qcurve"/>
      <point x="444" y="142"/>
      <point x="463" y="123"/>
      <point x="463" y="110" type="qcurve"/>
      <point x="463" y="103"/>
      <point x="459" y="96" type="qcurve"/>
      <point x="445" y="68" type="line"/>
      <point x="442" y="63"/>
      <point x="419" y="24"/>
      <point x="411" y="16" type="qcurve"/>
      <point x="376" y="-19" type="line"/>
      <point x="362" y="-33"/>
      <point x="342" y="-33" type="qcurve"/>
      <point x="273" y="-33"/>
      <point x="241" y="-2" type="qcurve"/>
      <point x="206" y="34" type="line"/>
      <point x="193" y="46"/>
      <point x="187" y="64" type="qcurve"/>
      <point x="185" y="67"/>
      <point x="181" y="74" type="qcurve"/>
      <point x="181" y="57"/>
      <point x="181" y="43" type="qcurve"/>
      <point x="181" y="3"/>
      <point x="179" y="0" type="qcurve"/>
      <point x="143" y="-35" type="line"/>
      <point x="143" y="-35"/>
      <point x="143" y="-35" type="qcurve"/>
      <point x="107" y="0" type="line"/>
      <point x="104" y="4"/>
      <point x="104" y="60" type="qcurve"/>
      <point x="104" y="103"/>
      <point x="107" y="155" type="qcurve"/>
      <point x="106" y="169"/>
      <point x="105" y="184" type="qcurve"/>
      <point x="103" y="190"/>
      <point x="103" y="196" type="qcurve"/>
      <point x="103" y="201"/>
      <point x="104" y="205" type="qcurve"/>
      <point x="102" y="228"/>
      <point x="101" y="251" type="qcurve"/>
      <point x="74" y="170"/>
      <point x="35" y="94" type="qcurve"/>
      <point x="39" y="83"/>
      <point x="39" y="77" type="qcurve"/>
      <point x="39" y="64"/>
      <point x="19" y="44"/>
      <point x="6" y="44" type="qcurve"/>
      <point x="-19" y="44"/>
      <point x="-26" y="67" type="qcurve"/>
      <point x="-35" y="94" type="line"/>
      <point x="59" y="280"/>
      <point x="81" y="487" type="qcurve"/>
      <point x="79" y="494"/>
      <point x="67" y="554"/>
      <point x="63" y="581"/>
      <point x="55" y="629"/>
      <point x="52" y="667"/>
      <point x="52" y="685" type="qcurve"/>
      <point x="52" y="749"/>
      <point x="77" y="786" type="qcurve"/>
      <point x="101" y="821"/>
      <point x="112" y="821" type="qcurve"/>
      <point x="113" y="821"/>
      <point x="114" y="820" type="qcurve"/>
      <point x="149" y="785" type="line"/>
      <point x="156" y="778"/>
    </contour>
    <contour>
      <point x="325" y="287" type="qcurve"/>
      <point x="325" y="330"/>
      <point x="309" y="359" type="qcurve"/>
      <point x="300" y="364"/>
      <point x="290" y="367" type="qcurve"/>
      <point x="259" y="367"/>
      <point x="223" y="338" type="qcurve"/>
      <point x="191" y="298"/>
      <point x="187" y="264" type="qcurve"/>
      <point x="184" y="233"/>
      <point x="181" y="203" type="qcurve"/>
      <point x="191" y="193"/>
      <point x="193" y="192" type="qcurve"/>
      <point x="209" y="189"/>
      <point x="226" y="189" type="qcurve"/>
      <point x="233" y="189"/>
      <point x="240" y="189" type="qcurve"/>
      <point x="251" y="187"/>
      <point x="262" y="187" type="qcurve"/>
      <point x="289" y="187"/>
      <point x="311" y="200" type="qcurve"/>
      <point x="326" y="225"/>
      <point x="326" y="254" type="qcurve"/>
      <point x="326" y="262"/>
      <point x="325" y="270" type="qcurve"/>
      <point x="325" y="279"/>
    </contour>
  </outline>
</glyph>
<glyph name="l" format="2">
  <advance width="296"/>
  <unicode hex="006C"/>
  <outline>
    <contour>
      <point x="100" y="242" type="qcurve"/>
      <point x="85" y="347"/>
      <point x="85" y="437" type="qcurve"/>
      <point x="85" y="561"/>
      <point x="108" y="711" type="qcurve"/>
      <point x="108" y="713"/>
      <point x="112" y="743"/>
      <point x="113" y="750"/>
      <point x="117" y="775"/>
      <point x="120" y="786"/>
      <point x="126" y="805"/>
      <point x="133" y="819"/>
      <point x="138" y="825" type="qcurve"/>
      <point x="162" y="860"/>
      <point x="173" y="860" type="qcurve"/>
      <point x="181" y="860"/>
      <point x="187" y="854" type="qcurve"/>
      <point x="222" y="819" type="line"/>
      <point x="243" y="798"/>
      <point x="243" y="707" type="qcurve"/>
      <point x="243" y="693"/>
      <point x="241" y="650"/>
      <point x="241" y="640" type="qcurve"/>
      <point x="241" y="637"/>
      <point x="241" y="636" type="qcurve"/>
      <point x="243" y="604"/>
      <point x="243" y="574" type="qcurve"/>
      <point x="243" y="374"/>
      <point x="171" y="242" type="qcurve"/>
      <point x="192" y="88"/>
      <point x="219" y="27" type="qcurve"/>
      <point x="224" y="27"/>
      <point x="230" y="30" type="qcurve"/>
      <point x="237" y="40"/>
      <point x="262" y="92" type="qcurve"/>
      <point x="275" y="119" type="line"/>
      <point x="284" y="137"/>
      <point x="304" y="137" type="qcurve"/>
      <point x="317" y="137"/>
      <point x="336" y="119"/>
      <point x="336" y="105" type="qcurve"/>
      <point x="336" y="99"/>
      <point x="327" y="81" type="qcurve"/>
      <point x="303" y="27"/>
      <point x="283" y="7" type="qcurve"/>
      <point x="248" y="-28" type="line"/>
      <point x="232" y="-44"/>
      <point x="215" y="-44" type="qcurve"/>
      <point x="208" y="-44"/>
      <point x="201" y="-37" type="qcurve"/>
      <point x="165" y="-2" type="line"/>
      <point x="137" y="26"/>
      <point x="113" y="161" type="qcurve"/>
      <point x="107" y="154"/>
      <point x="101" y="148" type="qcurve"/>
      <point x="65" y="113" type="line"/>
      <point x="53" y="101"/>
      <point x="40" y="90" type="qcurve"/>
      <point x="39" y="76"/>
      <point x="19" y="58"/>
      <point x="5" y="58" type="qcurve"/>
      <point x="-10" y="58"/>
      <point x="-30" y="78"/>
      <point x="-30" y="93" type="qcurve"/>
      <point x="-30" y="99" type="line"/>
      <point x="-30" y="111"/>
      <point x="5" y="134" type="qcurve"/>
      <point x="27" y="149"/>
      <point x="47" y="166" type="qcurve"/>
      <point x="77" y="200"/>
    </contour>
    <contour>
      <point x="171" y="640" type="qcurve"/>
      <point x="171" y="644"/>
      <point x="171" y="657" type="qcurve"/>
      <point x="156" y="539"/>
      <point x="156" y="437" type="qcurve"/>
      <point x="156" y="420"/>
      <point x="157" y="403" type="qcurve"/>
      <point x="172" y="482"/>
      <point x="172" y="574" type="qcurve"/>
      <point x="172" y="604"/>
      <point x="171" y="636" type="qcurve"/>
      <point x="171" y="637"/>
    </contour>
  </outline>
</glyph>
<glyph name="m" format="2">
  <advance width="643"/>
  <unicode hex="006D"/>
  <outline>
    <contour>
      <point x="275" y="171" type="qcurve"/>
      <point x="275" y="164"/>
      <point x="276" y="133"/>
      <point x="276" y="123" type="qcurve"/>
      <point x="276" y="24"/>
      <point x="253" y="1" type="qcurve"/>
      <point x="218" y="-34" type="line"/>
      <point x="211" y="-41"/>
      <point x="202" y="-41" type="qcurve"/>
      <point x="192" y="-41"/>
      <point x="173" y="-22"/>
      <point x="167" y="-6" type="qcurve"/>
      <point x="158" y="17"/>
      <point x="157" y="62" type="qcurve"/>
      <point x="156" y="67"/>
      <point x="156" y="72" type="qcurve"/>
      <point x="156" y="95"/>
      <point x="179" y="173"/>
      <point x="181" y="192" type="qcurve"/>
      <point x="183" y="200"/>
      <point x="195" y="253"/>
      <point x="200" y="267" type="qcurve"/>
      <point x="197" y="290"/>
      <point x="191" y="310" type="qcurve"/>
      <point x="190" y="312"/>
      <point x="180" y="353"/>
      <point x="175" y="362" type="qcurve"/>
      <point x="173" y="365"/>
      <point x="171" y="369" type="qcurve"/>
      <point x="169" y="369"/>
      <point x="168" y="369" type="qcurve"/>
      <point x="158" y="369" type="line"/>
      <point x="157" y="367"/>
      <point x="146" y="346"/>
      <point x="143" y="342" type="qcurve"/>
      <point x="79" y="244"/>
      <point x="51" y="140" type="qcurve"/>
      <point x="48" y="133"/>
      <point x="39" y="90" type="qcurve"/>
      <point x="39" y="86" type="line"/>
      <point x="39" y="71"/>
      <point x="19" y="51"/>
      <point x="-11" y="51"/>
      <point x="-31" y="71"/>
      <point x="-31" y="86" type="qcurve"/>
      <point x="-31" y="90" type="line"/>
      <point x="-22" y="133"/>
      <point x="-19" y="140" type="qcurve"/>
      <point x="8" y="244"/>
      <point x="73" y="342" type="qcurve"/>
      <point x="75" y="345"/>
      <point x="81" y="356" type="qcurve"/>
      <point x="97" y="386"/>
      <point x="107" y="396" type="qcurve"/>
      <point x="142" y="431" type="line"/>
      <point x="150" y="439"/>
      <point x="158" y="439" type="qcurve"/>
      <point x="168" y="439" type="line"/>
      <point x="170" y="439"/>
      <point x="176" y="441"/>
      <point x="178" y="441" type="qcurve"/>
      <point x="183" y="439"/>
      <point x="188" y="434" type="qcurve"/>
      <point x="223" y="399" type="line"/>
      <point x="228" y="394"/>
      <point x="245" y="362" type="qcurve"/>
      <point x="249" y="357"/>
      <point x="251" y="349" type="qcurve"/>
      <point x="276" y="384"/>
      <point x="283" y="391" type="qcurve"/>
      <point x="318" y="426" type="line"/>
      <point x="333" y="441"/>
      <point x="348" y="441" type="qcurve"/>
      <point x="360" y="438"/>
      <point x="371" y="427" type="qcurve"/>
      <point x="406" y="392" type="line"/>
      <point x="408" y="390"/>
      <point x="409" y="388" type="qcurve"/>
      <point x="412" y="392"/>
      <point x="415" y="395" type="qcurve"/>
      <point x="450" y="430" type="line"/>
      <point x="465" y="445"/>
      <point x="490" y="445" type="qcurve"/>
      <point x="497" y="445"/>
      <point x="503" y="439" type="qcurve"/>
      <point x="538" y="404" type="line"/>
      <point x="547" y="396"/>
      <point x="557" y="368" type="qcurve"/>
      <point x="563" y="354"/>
      <point x="565" y="350" type="qcurve"/>
      <point x="571" y="292"/>
      <point x="581" y="86" type="qcurve"/>
      <point x="583" y="36" type="line"/>
      <point x="584" y="36"/>
      <point x="585" y="36" type="qcurve"/>
      <point x="595" y="56" type="line"/>
      <point x="616" y="118" type="line"/>
      <point x="624" y="140"/>
      <point x="648" y="140" type="qcurve"/>
      <point x="662" y="140"/>
      <point x="681" y="121"/>
      <point x="681" y="107" type="qcurve"/>
      <point x="681" y="101"/>
      <point x="679" y="96" type="qcurve"/>
      <point x="665" y="56" type="line"/>
      <point x="643" y="10" type="line"/>
      <point x="636" y="-7"/>
      <point x="608" y="-25" type="qcurve"/>
      <point x="593" y="-35"/>
      <point x="577" y="-35" type="qcurve"/>
      <point x="562" y="-35"/>
      <point x="554" y="-28" type="qcurve"/>
      <point x="519" y="7" type="line"/>
      <point x="514" y="12"/>
      <point x="513" y="22" type="qcurve"/>
      <point x="511" y="76"/>
      <point x="501" y="276" type="qcurve"/>
      <point x="495" y="350" type="line"/>
      <point x="492" y="353"/>
      <point x="484" y="374" type="qcurve"/>
      <point x="475" y="374"/>
      <point x="467" y="371" type="qcurve"/>
      <point x="461" y="363"/>
      <point x="449" y="351" type="qcurve"/>
      <point x="448" y="347"/>
      <point x="438" y="315"/>
      <point x="435" y="307" type="qcurve"/>
      <point x="435" y="304"/>
      <point x="435" y="302" type="qcurve"/>
      <point x="442" y="283"/>
      <point x="442" y="253" type="qcurve"/>
      <point x="442" y="246"/>
      <point x="441" y="218"/>
      <point x="441" y="211" type="qcurve"/>
      <point x="441" y="186"/>
      <point x="450" y="154"/>
      <point x="450" y="83" type="qcurve"/>
      <point x="450" y="5"/>
      <point x="439" y="-6" type="qcurve"/>
      <point x="403" y="-42" type="line"/>
      <point x="402" y="-43"/>
      <point x="400" y="-43" type="qcurve"/>
      <point x="397" y="-42"/>
      <point x="394" y="-39" type="qcurve"/>
      <point x="359" y="-4" type="line"/>
      <point x="356" y="-1"/>
      <point x="349" y="13"/>
      <point x="347" y="16" type="qcurve"/>
      <point x="340" y="24"/>
      <point x="333" y="46" type="qcurve"/>
      <point x="335" y="176" type="line"/>
      <point x="345" y="227"/>
      <point x="364" y="307" type="qcurve"/>
      <point x="364" y="311"/>
      <point x="359" y="332"/>
      <point x="359" y="338" type="qcurve"/>
      <point x="358" y="354"/>
      <point x="351" y="370" type="qcurve"/>
      <point x="349" y="370"/>
      <point x="348" y="371" type="qcurve"/>
      <point x="341" y="371"/>
      <point x="335" y="368" type="qcurve"/>
      <point x="317" y="342"/>
      <point x="315" y="340" type="qcurve"/>
      <point x="297" y="317"/>
      <point x="277" y="280" type="qcurve"/>
      <point x="274" y="274"/>
      <point x="271" y="267" type="qcurve"/>
      <point x="276" y="234"/>
      <point x="276" y="194" type="qcurve"/>
      <point x="276" y="190"/>
      <point x="275" y="175"/>
    </contour>
  </outline>
</glyph>
<glyph name="p" format="2">
  <advance width="323"/>
  <unicode hex="0070"/>
  <outline>
    <contour>
      <point x="167" y="58" type="qcurve"/>
      <point x="176" y="39"/>
      <point x="176" y="28" type="qcurve"/>
      <point x="176" y="9"/>
      <point x="188" y="-47" type="qcurve"/>
      <point x="202" y="-121"/>
      <point x="202" y="-153" type="qcurve"/>
      <point x="202" y="-193"/>
      <point x="186" y="-210" type="qcurve"/>
      <point x="150" y="-245" type="line"/>
      <point x="141" y="-255"/>
      <point x="132" y="-255" type="qcurve"/>
      <point x="122" y="-255"/>
      <point x="105" y="-233"/>
      <point x="104" y="-218" type="qcurve"/>
      <point x="96" y="-128" type="line"/>
      <point x="87" y="85" type="line"/>
      <point x="84" y="90" type="line"/>
      <point x="84" y="91"/>
      <point x="83" y="98"/>
      <point x="83" y="99" type="qcurve"/>
      <point x="83" y="100"/>
      <point x="83" y="100" type="qcurve"/>
      <point x="81" y="136" type="line"/>
      <point x="9" y="55" type="line"/>
      <point x="1" y="46"/>
      <point x="-11" y="46" type="qcurve"/>
      <point x="-22" y="46"/>
      <point x="-37" y="62"/>
      <point x="-37" y="72" type="qcurve"/>
      <point x="-37" y="82"/>
      <point x="-30" y="90" type="qcurve"/>
      <point x="18" y="144" type="line"/>
      <point x="19" y="145"/>
      <point x="24" y="151" type="qcurve"/>
      <point x="61" y="191"/>
      <point x="74" y="241" type="qcurve"/>
      <point x="72" y="260" type="line"/>
      <point x="61" y="335"/>
      <point x="60" y="344" type="qcurve"/>
      <point x="54" y="371"/>
      <point x="54" y="388" type="qcurve"/>
      <point x="54" y="401"/>
      <point x="58" y="405" type="qcurve"/>
      <point x="93" y="440" type="line"/>
      <point x="94" y="441"/>
      <point x="95" y="441" type="qcurve"/>
      <point x="97" y="441"/>
      <point x="99" y="439" type="qcurve"/>
      <point x="134" y="404" type="line"/>
      <point x="139" y="399"/>
      <point x="143" y="387" type="qcurve"/>
      <point x="155" y="398" type="line"/>
      <point x="173" y="417"/>
      <point x="198" y="417" type="qcurve"/>
      <point x="226" y="417"/>
      <point x="250" y="393" type="qcurve"/>
      <point x="286" y="357" type="line"/>
      <point x="316" y="327"/>
      <point x="316" y="282" type="qcurve"/>
      <point x="316" y="280"/>
      <point x="316" y="270"/>
      <point x="316" y="267" type="qcurve"/>
      <point x="316" y="253"/>
      <point x="320" y="195"/>
      <point x="320" y="180" type="qcurve"/>
      <point x="308" y="139"/>
      <point x="286" y="116" type="qcurve"/>
      <point x="315" y="118"/>
      <point x="324" y="127" type="qcurve"/>
      <point x="331" y="134"/>
      <point x="342" y="134" type="qcurve"/>
      <point x="352" y="134"/>
      <point x="367" y="119"/>
      <point x="367" y="109" type="qcurve"/>
      <point x="367" y="98"/>
      <point x="359" y="90" type="qcurve"/>
      <point x="324" y="56" type="line"/>
      <point x="312" y="45"/>
      <point x="275" y="45" type="qcurve"/>
      <point x="251" y="45"/>
      <point x="235" y="51" type="qcurve"/>
      <point x="229" y="53"/>
      <point x="207" y="58" type="qcurve"/>
      <point x="198" y="56"/>
      <point x="187" y="56" type="qcurve"/>
      <point x="175" y="56"/>
    </contour>
    <contour>
      <point x="245" y="267" type="qcurve"/>
      <point x="245" y="270"/>
      <point x="246" y="280"/>
      <point x="246" y="282" type="qcurve"/>
      <point x="246" y="312"/>
      <point x="231" y="337" type="qcurve"/>
      <point x="214" y="346"/>
      <point x="198" y="346" type="qcurve"/>
      <point x="187" y="346"/>
      <point x="176" y="342" type="qcurve"/>
      <point x="154" y="298" type="line"/>
      <point x="151" y="186" type="line"/>
      <point x="155" y="141" type="line"/>
      <point x="177" y="137"/>
      <point x="207" y="129" type="qcurve"/>
      <point x="221" y="132"/>
      <point x="232" y="138" type="qcurve"/>
      <point x="243" y="155"/>
      <point x="250" y="180" type="qcurve"/>
      <point x="250" y="195"/>
      <point x="245" y="253"/>
    </contour>
  </outline>
</glyph>
<glyph name="r" format="2">
  <advance width="417"/>
  <unicode hex="0072"/>
  <outline>
    <contour>
      <point x="280" y="444" type="qcurve"/>
      <point x="282" y="444"/>
      <point x="289" y="445"/>
      <point x="291" y="445" type="qcurve"/>
      <point x="297" y="445"/>
      <point x="298" y="443" type="qcurve"/>
      <point x="334" y="407" type="line"/>
      <point x="336" y="405"/>
      <point x="336" y="394" type="qcurve"/>
      <point x="336" y="371"/>
      <point x="315" y="350" type="qcurve"/>
      <point x="289" y="323" type="line"/>
      <point x="294" y="169" type="line"/>
      <point x="306" y="82" type="line"/>
      <point x="331" y="43" type="line"/>
      <point x="368" y="46" type="line"/>
      <point x="377" y="76" type="line"/>
      <point x="397" y="116" type="line"/>
      <point x="406" y="134"/>
      <point x="425" y="134" type="qcurve"/>
      <point x="438" y="134"/>
      <point x="457" y="115"/>
      <point x="457" y="102" type="qcurve"/>
      <point x="457" y="95"/>
      <point x="447" y="76" type="qcurve"/>
      <point x="429" y="13" type="line"/>
      <point x="425" y="-2"/>
      <point x="406" y="-21"/>
      <point x="394" y="-22" type="qcurve"/>
      <point x="319" y="-28" type="line"/>
      <point x="306" y="-28"/>
      <point x="284" y="7" type="qcurve"/>
      <point x="236" y="82" type="line"/>
      <point x="224" y="169" type="line"/>
      <point x="220" y="277" type="line"/>
      <point x="204" y="271"/>
      <point x="186" y="266" type="qcurve"/>
      <point x="209" y="193"/>
      <point x="209" y="133" type="qcurve"/>
      <point x="209" y="64"/>
      <point x="178" y="33" type="qcurve"/>
      <point x="142" y="-2" type="line"/>
      <point x="119" y="-26"/>
      <point x="79" y="-26" type="qcurve"/>
      <point x="76" y="-26"/>
      <point x="73" y="-25" type="qcurve"/>
      <point x="53" y="-25"/>
      <point x="38" y="-11" type="qcurve"/>
      <point x="3" y="25" type="line"/>
      <point x="-7" y="35"/>
      <point x="-33" y="87"/>
      <point x="-37" y="94" type="qcurve"/>
      <point x="-42" y="101"/>
      <point x="-42" y="110" type="qcurve"/>
      <point x="-42" y="123"/>
      <point x="-25" y="140"/>
      <point x="-13" y="140" type="qcurve"/>
      <point x="3" y="140"/>
      <point x="11" y="127" type="qcurve"/>
      <point x="33" y="94" type="line"/>
      <point x="38" y="87"/>
      <point x="55" y="52"/>
      <point x="57" y="48" type="qcurve"/>
      <point x="65" y="45"/>
      <point x="73" y="45" type="qcurve"/>
      <point x="76" y="45"/>
      <point x="79" y="45" type="qcurve"/>
      <point x="104" y="45"/>
      <point x="122" y="54" type="qcurve"/>
      <point x="138" y="84"/>
      <point x="138" y="133" type="qcurve"/>
      <point x="138" y="187"/>
      <point x="119" y="254" type="qcurve"/>
      <point x="110" y="254"/>
      <point x="101" y="254" type="qcurve"/>
      <point x="46" y="254"/>
      <point x="24" y="275" type="qcurve"/>
      <point x="-12" y="311" type="line"/>
      <point x="-23" y="322"/>
      <point x="-23" y="339" type="qcurve"/>
      <point x="-23" y="342"/>
      <point x="-22" y="346" type="qcurve"/>
      <point x="-22" y="363"/>
      <point x="-10" y="406"/>
      <point x="2" y="418" type="qcurve"/>
      <point x="37" y="453" type="line"/>
      <point x="46" y="462"/>
      <point x="58" y="462" type="qcurve"/>
      <point x="65" y="462"/>
      <point x="73" y="455" type="qcurve"/>
      <point x="108" y="419" type="line"/>
      <point x="118" y="410"/>
      <point x="134" y="379" type="qcurve"/>
      <point x="138" y="372"/>
      <point x="156" y="343"/>
      <point x="161" y="331" type="qcurve"/>
      <point x="193" y="337"/>
      <point x="221" y="348" type="qcurve"/>
      <point x="230" y="400" type="line"/>
      <point x="232" y="414"/>
      <point x="265" y="435" type="qcurve"/>
      <point x="267" y="436"/>
      <point x="271" y="442"/>
      <point x="276" y="444"/>
    </contour>
    <contour>
      <point x="48" y="342"/>
      <point x="48" y="335"/>
      <point x="48" y="332" type="qcurve"/>
      <point x="67" y="325"/>
      <point x="94" y="324" type="qcurve"/>
      <point x="83" y="347"/>
      <point x="74" y="361" type="qcurve"/>
      <point x="73" y="362"/>
      <point x="57" y="391" type="qcurve"/>
      <point x="48" y="368"/>
      <point x="48" y="346" type="qcurve"/>
    </contour>
  </outline>
</glyph>
<glyph name="t" format="2">
  <advance width="354"/>
  <unicode hex="0074"/>
  <outline>
    <contour>
      <point x="85" y="545" type="qcurve"/>
      <point x="75" y="545"/>
      <point x="37" y="557"/>
      <point x="27" y="557" type="qcurve"/>
      <point x="23" y="557" type="line"/>
      <point x="8" y="557"/>
      <point x="-12" y="577"/>
      <point x="-12" y="607"/>
      <point x="8" y="627"/>
      <point x="23" y="627" type="qcurve"/>
      <point x="27" y="627" type="line"/>
      <point x="37" y="627"/>
      <point x="75" y="615"/>
      <point x="85" y="615" type="qcurve"/>
      <point x="107" y="615"/>
      <point x="194" y="635"/>
      <point x="215" y="635" type="qcurve"/>
      <point x="219" y="635" type="line"/>
      <point x="336" y="567" type="line"/>
      <point x="351" y="559"/>
      <point x="351" y="541" type="qcurve"/>
      <point x="351" y="528"/>
      <point x="333" y="510"/>
      <point x="320" y="510" type="qcurve"/>
      <point x="312" y="510"/>
      <point x="305" y="515" type="qcurve"/>
      <point x="219" y="565" type="line"/>
      <point x="215" y="565" type="line"/>
      <point x="194" y="565"/>
      <point x="107" y="545"/>
    </contour>
    <contour>
      <point x="269" y="-23" type="qcurve"/>
      <point x="265" y="-23"/>
      <point x="250" y="-23"/>
      <point x="247" y="-23" type="qcurve"/>
      <point x="220" y="-23"/>
      <point x="193" y="-18"/>
      <point x="184" y="-8" type="qcurve"/>
      <point x="148" y="27" type="line"/>
      <point x="140" y="35"/>
      <point x="132" y="52" type="qcurve"/>
      <point x="126" y="92" type="line"/>
      <point x="117" y="191" type="line"/>
      <point x="90" y="146"/>
      <point x="56" y="112" type="qcurve"/>
      <point x="21" y="77" type="line"/>
      <point x="10" y="66"/>
      <point x="-1" y="57" type="qcurve"/>
      <point x="-9" y="50"/>
      <point x="-18" y="50" type="qcurve"/>
      <point x="-30" y="50"/>
      <point x="-46" y="66"/>
      <point x="-46" y="78" type="qcurve"/>
      <point x="-46" y="90"/>
      <point x="-36" y="98" type="qcurve"/>
      <point x="1" y="129"/>
      <point x="3" y="131" type="qcurve"/>
      <point x="70" y="208"/>
      <point x="104" y="323" type="qcurve"/>
      <point x="102" y="346" type="line"/>
      <point x="94" y="394"/>
      <point x="86" y="446" type="qcurve"/>
      <point x="78" y="524" type="line"/>
      <point x="74" y="626" type="line"/>
      <point x="80" y="696" type="line"/>
      <point x="90" y="772" type="line"/>
      <point x="91" y="780"/>
      <point x="124" y="807" type="qcurve"/>
      <point x="133" y="815" type="line"/>
      <point x="137" y="819"/>
      <point x="141" y="819" type="qcurve"/>
      <point x="145" y="819"/>
      <point x="149" y="816" type="qcurve"/>
      <point x="185" y="780" type="line"/>
      <point x="204" y="761"/>
      <point x="204" y="640" type="qcurve"/>
      <point x="204" y="584"/>
      <point x="199" y="495" type="qcurve"/>
      <point x="198" y="479"/>
      <point x="198" y="476" type="qcurve"/>
      <point x="196" y="399"/>
      <point x="174" y="323" type="qcurve"/>
      <point x="176" y="304"/>
      <point x="185" y="229"/>
      <point x="186" y="210" type="qcurve"/>
      <point x="196" y="92" type="line"/>
      <point x="202" y="52" type="line"/>
      <point x="203" y="52"/>
      <point x="203" y="51" type="qcurve"/>
      <point x="215" y="47"/>
      <point x="247" y="47" type="qcurve"/>
      <point x="250" y="47"/>
      <point x="265" y="47"/>
      <point x="269" y="47" type="qcurve"/>
      <point x="287" y="47"/>
      <point x="301" y="60" type="qcurve"/>
      <point x="334" y="124" type="line"/>
      <point x="343" y="142"/>
      <point x="362" y="142" type="qcurve"/>
      <point x="375" y="142"/>
      <point x="394" y="123"/>
      <point x="394" y="110" type="qcurve"/>
      <point x="394" y="103"/>
      <point x="390" y="96" type="qcurve"/>
      <point x="370" y="56" type="line"/>
      <point x="362" y="39"/>
      <point x="335" y="21" type="qcurve"/>
      <point x="333" y="19"/>
      <point x="330" y="17" type="qcurve"/>
      <point x="309" y="-4" type="line"/>
      <point x="290" y="-23"/>
    </contour>
  </outline>
</glyph>
<glyph name="u" format="2">
  <advance width="442"/>
  <unicode hex="0075"/>
  <outline>
    <contour>
      <point x="322" y="334" type="line"/>
      <point x="322" y="313"/>
      <point x="326" y="222"/>
      <point x="326" y="198" type="qcurve"/>
      <point x="326" y="191"/>
      <point x="326" y="185" type="qcurve"/>
      <point x="328" y="176"/>
      <point x="347" y="66"/>
      <point x="358" y="42" type="qcurve"/>
      <point x="362" y="41"/>
      <point x="367" y="41" type="qcurve"/>
      <point x="368" y="41"/>
      <point x="369" y="41" type="qcurve"/>
      <point x="375" y="40"/>
      <point x="380" y="40" type="qcurve"/>
      <point x="385" y="40"/>
      <point x="389" y="41" type="qcurve"/>
      <point x="398" y="59"/>
      <point x="412" y="113" type="qcurve"/>
      <point x="415" y="124"/>
      <point x="433" y="139"/>
      <point x="445" y="139" type="qcurve"/>
      <point x="459" y="139"/>
      <point x="479" y="119"/>
      <point x="479" y="105" type="qcurve"/>
      <point x="479" y="100"/>
      <point x="478" y="96" type="qcurve"/>
      <point x="463" y="36"/>
      <point x="444" y="17" type="qcurve"/>
      <point x="409" y="-18" type="line"/>
      <point x="396" y="-31"/>
      <point x="380" y="-31" type="qcurve"/>
      <point x="375" y="-31"/>
      <point x="369" y="-29" type="qcurve"/>
      <point x="368" y="-29"/>
      <point x="367" y="-29" type="qcurve"/>
      <point x="351" y="-29"/>
      <point x="338" y="-17" type="qcurve"/>
      <point x="303" y="18" type="line"/>
      <point x="299" y="23"/>
      <point x="295" y="29" type="qcurve"/>
      <point x="290" y="22"/>
      <point x="285" y="17" type="qcurve"/>
      <point x="250" y="-19" type="line"/>
      <point x="231" y="-37"/>
      <point x="204" y="-37" type="qcurve"/>
      <point x="195" y="-37"/>
      <point x="185" y="-35" type="qcurve"/>
      <point x="182" y="-36"/>
      <point x="179" y="-36" type="qcurve"/>
      <point x="150" y="-36"/>
      <point x="128" y="-13" type="qcurve"/>
      <point x="93" y="22" type="line"/>
      <point x="61" y="54"/>
      <point x="53" y="111" type="qcurve"/>
      <point x="49" y="106"/>
      <point x="45" y="102" type="qcurve"/>
      <point x="9" y="67" type="line"/>
      <point x="-5" y="52"/>
      <point x="-17" y="52" type="qcurve"/>
      <point x="-27" y="52"/>
      <point x="-43" y="67"/>
      <point x="-43" y="78" type="qcurve"/>
      <point x="-43" y="90"/>
      <point x="-34" y="97" type="qcurve"/>
      <point x="-11" y="119" type="line"/>
      <point x="21" y="157"/>
      <point x="42" y="212" type="qcurve"/>
      <point x="40" y="233"/>
      <point x="40" y="256" type="qcurve"/>
      <point x="40" y="337"/>
      <point x="60" y="426" type="qcurve"/>
      <point x="63" y="441"/>
      <point x="83" y="461"/>
      <point x="95" y="461" type="qcurve"/>
      <point x="98" y="461"/>
      <point x="100" y="459" type="qcurve"/>
      <point x="135" y="424" type="line"/>
      <point x="144" y="415"/>
      <point x="144" y="378" type="qcurve"/>
      <point x="144" y="362"/>
      <point x="142" y="350" type="qcurve"/>
      <point x="134" y="271"/>
      <point x="112" y="212" type="qcurve"/>
      <point x="115" y="177"/>
      <point x="122" y="146" type="qcurve"/>
      <point x="122" y="142"/>
      <point x="122" y="137" type="qcurve"/>
      <point x="122" y="84"/>
      <point x="147" y="43" type="qcurve"/>
      <point x="162" y="35"/>
      <point x="179" y="35" type="qcurve"/>
      <point x="182" y="35"/>
      <point x="185" y="35" type="qcurve"/>
      <point x="195" y="33"/>
      <point x="204" y="33" type="qcurve"/>
      <point x="218" y="33"/>
      <point x="230" y="39" type="qcurve"/>
      <point x="254" y="84"/>
      <point x="255" y="185" type="qcurve"/>
      <point x="252" y="197"/>
      <point x="234" y="262"/>
      <point x="230" y="280" type="qcurve"/>
      <point x="220" y="326" type="line"/>
      <point x="218" y="402" type="line"/>
      <point x="219" y="404"/>
      <point x="227" y="419"/>
      <point x="230" y="422" type="qcurve"/>
      <point x="265" y="457" type="line"/>
      <point x="267" y="459"/>
      <point x="269" y="459" type="qcurve"/>
      <point x="305" y="424" type="line"/>
      <point x="306" y="422"/>
      <point x="316" y="391"/>
      <point x="316" y="388" type="qcurve"/>
      <point x="316" y="376" type="line"/>
      <point x="316" y="372"/>
      <point x="322" y="359"/>
      <point x="322" y="356" type="qcurve"/>
    </contour>
  </outline>
</glyph>
<glyph name="w" format="2">
  <advance width="627"/>
  <unicode hex="0077"/>
  <outline>
    <contour>
      <point x="344" y="325" type="qcurve"/>
      <point x="344" y="327"/>
      <point x="344" y="334"/>
      <point x="344" y="336" type="qcurve"/>
      <point x="344" y="380"/>
      <point x="358" y="394" type="qcurve"/>
      <point x="393" y="429" type="line"/>
      <point x="400" y="436"/>
      <point x="411" y="436" type="qcurve"/>
      <point x="426" y="436"/>
      <point x="441" y="422" type="qcurve"/>
      <point x="476" y="386" type="line"/>
      <point x="505" y="358"/>
      <point x="546" y="220"/>
      <point x="546" y="189" type="qcurve"/>
      <point x="546" y="185"/>
      <point x="546" y="181" type="qcurve"/>
      <point x="581" y="162"/>
      <point x="591" y="156" type="qcurve"/>
      <point x="662" y="100" type="line"/>
      <point x="673" y="91"/>
      <point x="673" y="78" type="qcurve"/>
      <point x="673" y="66"/>
      <point x="657" y="50"/>
      <point x="645" y="50" type="qcurve"/>
      <point x="636" y="50"/>
      <point x="628" y="56" type="qcurve"/>
      <point x="591" y="86" type="line"/>
      <point x="584" y="90"/>
      <point x="539" y="114" type="qcurve"/>
      <point x="527" y="47"/>
      <point x="495" y="15" type="qcurve"/>
      <point x="460" y="-20" type="line"/>
      <point x="433" y="-46"/>
      <point x="395" y="-46" type="qcurve"/>
      <point x="368" y="-46"/>
      <point x="306" y="-16"/>
      <point x="282" y="8" type="qcurve"/>
      <point x="267" y="-6" type="line"/>
      <point x="243" y="-30"/>
      <point x="203" y="-30" type="qcurve"/>
      <point x="166" y="-30"/>
      <point x="144" y="-8" type="qcurve"/>
      <point x="109" y="27" type="line"/>
      <point x="81" y="55"/>
      <point x="72" y="129" type="qcurve"/>
      <point x="71" y="128"/>
      <point x="35" y="92" type="qcurve"/>
      <point x="18" y="75"/>
      <point x="-1" y="62" type="qcurve"/>
      <point x="-9" y="56"/>
      <point x="-18" y="56" type="qcurve"/>
      <point x="-30" y="56"/>
      <point x="-46" y="73"/>
      <point x="-46" y="85" type="qcurve"/>
      <point x="-46" y="99"/>
      <point x="-35" y="108" type="qcurve"/>
      <point x="8" y="139"/>
      <point x="16" y="146" type="qcurve"/>
      <point x="44" y="179"/>
      <point x="62" y="217" type="qcurve"/>
      <point x="61" y="224"/>
      <point x="60" y="229" type="qcurve"/>
      <point x="57" y="240"/>
      <point x="57" y="261" type="qcurve"/>
      <point x="57" y="298"/>
      <point x="74" y="390"/>
      <point x="82" y="398" type="qcurve"/>
      <point x="117" y="434" type="line"/>
      <point x="118" y="435"/>
      <point x="120" y="435"/>
      <point x="121" y="434" type="qcurve"/>
      <point x="156" y="399" type="line"/>
      <point x="161" y="394"/>
      <point x="162" y="361" type="qcurve"/>
      <point x="163" y="355"/>
      <point x="163" y="348" type="qcurve"/>
      <point x="163" y="281"/>
      <point x="133" y="217" type="qcurve"/>
      <point x="136" y="203"/>
      <point x="139" y="166" type="qcurve"/>
      <point x="147" y="81"/>
      <point x="164" y="48" type="qcurve"/>
      <point x="181" y="40"/>
      <point x="225" y="40"/>
      <point x="243" y="48" type="qcurve"/>
      <point x="204" y="89"/>
      <point x="204" y="129" type="qcurve"/>
      <point x="204" y="170"/>
      <point x="216" y="183" type="qcurve"/>
      <point x="252" y="218" type="line"/>
      <point x="258" y="224"/>
      <point x="267" y="224" type="qcurve"/>
      <point x="286" y="224"/>
      <point x="295" y="216" type="qcurve"/>
      <point x="330" y="181" type="line"/>
      <point x="338" y="172"/>
      <point x="338" y="149" type="qcurve"/>
      <point x="338" y="86"/>
      <point x="318" y="50" type="qcurve"/>
      <point x="359" y="24"/>
      <point x="395" y="24" type="qcurve"/>
      <point x="420" y="24"/>
      <point x="441" y="36" type="qcurve"/>
      <point x="467" y="79"/>
      <point x="474" y="152" type="qcurve"/>
      <point x="442" y="173"/>
      <point x="421" y="194" type="qcurve"/>
      <point x="386" y="229" type="line"/>
      <point x="343" y="271"/>
      <point x="343" y="317" type="qcurve"/>
      <point x="343" y="321"/>
    </contour>
    <contour>
      <point x="414" y="325" type="qcurve"/>
      <point x="414" y="321"/>
      <point x="414" y="317" type="qcurve"/>
      <point x="414" y="281"/>
      <point x="440" y="247" type="qcurve"/>
      <point x="454" y="236"/>
      <point x="471" y="224" type="qcurve"/>
      <point x="455" y="311"/>
      <point x="423" y="363" type="qcurve"/>
      <point x="420" y="365"/>
      <point x="416" y="365" type="qcurve"/>
      <point x="414" y="353"/>
      <point x="414" y="336" type="qcurve"/>
      <point x="414" y="334"/>
      <point x="414" y="327"/>
    </contour>
  </outline>
</glyph>
<glyph name="x" format="2">
  <advance width="447"/>
  <unicode hex="0078"/>
  <outline>
    <contour>
      <point x="92" y="293" type="qcurve"/>
      <point x="92" y="276"/>
      <point x="37" y="118"/>
      <point x="35" y="103" type="qcurve"/>
      <point x="36" y="97"/>
      <point x="36" y="92" type="qcurve"/>
      <point x="36" y="77"/>
      <point x="16" y="56"/>
      <point x="1" y="56" type="qcurve"/>
      <point x="0" y="56"/>
      <point x="0" y="57" type="qcurve"/>
      <point x="-36" y="92" type="line"/>
      <point x="-37" y="93"/>
      <point x="-37" y="96" type="qcurve"/>
      <point x="-37" y="110"/>
      <point x="-10" y="188" type="qcurve"/>
      <point x="21" y="276"/>
      <point x="21" y="293" type="qcurve"/>
      <point x="21" y="295"/>
      <point x="21" y="296" type="qcurve"/>
      <point x="17" y="300" type="line"/>
      <point x="15" y="303"/>
      <point x="10" y="330"/>
      <point x="10" y="336" type="qcurve"/>
      <point x="10" y="372"/>
      <point x="28" y="391" type="qcurve"/>
      <point x="64" y="426" type="line"/>
      <point x="80" y="443"/>
      <point x="108" y="443" type="qcurve"/>
      <point x="157" y="443"/>
      <point x="197" y="403" type="qcurve"/>
      <point x="232" y="367" type="line"/>
      <point x="252" y="347"/>
      <point x="261" y="323" type="qcurve"/>
      <point x="276" y="353"/>
      <point x="295" y="372" type="qcurve"/>
      <point x="330" y="407" type="line"/>
      <point x="359" y="435"/>
      <point x="393" y="435" type="qcurve"/>
      <point x="396" y="435"/>
      <point x="410" y="438"/>
      <point x="413" y="438" type="qcurve"/>
      <point x="419" y="438"/>
      <point x="421" y="435" type="qcurve"/>
      <point x="457" y="400" type="line"/>
      <point x="460" y="396"/>
      <point x="460" y="388" type="qcurve"/>
      <point x="460" y="336"/>
      <point x="419" y="295" type="qcurve"/>
      <point x="384" y="259" type="line"/>
      <point x="356" y="231"/>
      <point x="300" y="201" type="qcurve"/>
      <point x="298" y="182"/>
      <point x="298" y="164" type="qcurve"/>
      <point x="298" y="107"/>
      <point x="313" y="73" type="qcurve"/>
      <point x="319" y="71"/>
      <point x="325" y="71" type="qcurve"/>
      <point x="337" y="71"/>
      <point x="377" y="67"/>
      <point x="389" y="67" type="qcurve"/>
      <point x="394" y="67"/>
      <point x="398" y="68" type="qcurve"/>
      <point x="399" y="69"/>
      <point x="408" y="79"/>
      <point x="413" y="87"/>
      <point x="413" y="92" type="qcurve"/>
      <point x="413" y="106"/>
      <point x="433" y="127"/>
      <point x="463" y="127"/>
      <point x="483" y="106"/>
      <point x="483" y="92" type="qcurve"/>
      <point x="483" y="85"/>
      <point x="464" y="63"/>
      <point x="464" y="56" type="qcurve"/>
      <point x="464" y="48"/>
      <point x="459" y="43" type="qcurve"/>
      <point x="423" y="7" type="line"/>
      <point x="413" y="-3"/>
      <point x="389" y="-3" type="qcurve"/>
      <point x="377" y="-3"/>
      <point x="337" y="1"/>
      <point x="325" y="1" type="qcurve"/>
      <point x="307" y="1"/>
      <point x="294" y="14" type="qcurve"/>
      <point x="258" y="49" type="line"/>
      <point x="227" y="81"/>
      <point x="227" y="163" type="qcurve"/>
      <point x="221" y="159"/>
      <point x="215" y="157" type="qcurve"/>
      <point x="192" y="110"/>
      <point x="192" y="88" type="qcurve"/>
      <point x="192" y="53"/>
      <point x="181" y="41" type="qcurve"/>
      <point x="146" y="6" type="line"/>
      <point x="141" y="1"/>
      <point x="133" y="1" type="qcurve"/>
      <point x="117" y="1"/>
      <point x="97" y="20" type="qcurve"/>
      <point x="62" y="56" type="line"/>
      <point x="62" y="99"/>
      <point x="97" y="135" type="qcurve"/>
      <point x="133" y="171" type="line"/>
      <point x="146" y="184"/>
      <point x="165" y="197" type="qcurve"/>
      <point x="198" y="260"/>
      <point x="198" y="284" type="qcurve"/>
      <point x="198" y="318"/>
      <point x="177" y="348" type="qcurve"/>
      <point x="143" y="372"/>
      <point x="108" y="372" type="qcurve"/>
      <point x="96" y="372"/>
      <point x="85" y="368" type="qcurve"/>
      <point x="80" y="354"/>
      <point x="80" y="336" type="qcurve"/>
      <point x="80" y="319"/>
      <point x="86" y="304" type="qcurve"/>
      <point x="92" y="298"/>
    </contour>
    <contour>
      <point x="364" y="313" type="qcurve"/>
      <point x="382" y="337"/>
      <point x="387" y="364" type="qcurve"/>
      <point x="367" y="363"/>
      <point x="349" y="351" type="qcurve"/>
      <point x="329" y="322"/>
      <point x="315" y="280" type="qcurve"/>
      <point x="344" y="297"/>
    </contour>
  </outline>
</glyph>
<glyph name="z" format="2">
  <advance width="378"/>
  <unicode hex="007A"/>
  <outline>
    <contour>
      <point x="98" y="-155" type="qcurve"/>
      <point x="98" y="-152"/>
      <point x="97" y="-145"/>
      <point x="97" y="-143" type="qcurve"/>
      <point x="97" y="-104"/>
      <point x="127" y="-74" type="qcurve"/>
      <point x="162" y="-39" type="line"/>
      <point x="163" y="-38"/>
      <point x="179" y="-24" type="qcurve"/>
      <point x="201" y="-5"/>
      <point x="215" y="3" type="qcurve"/>
      <point x="224" y="6"/>
      <point x="253" y="26"/>
      <point x="261" y="29" type="qcurve"/>
      <point x="264" y="31"/>
      <point x="268" y="32" type="qcurve"/>
      <point x="267" y="32"/>
      <point x="267" y="32" type="qcurve"/>
      <point x="240" y="48"/>
      <point x="205" y="48" type="qcurve"/>
      <point x="189" y="48"/>
      <point x="173" y="45" type="qcurve"/>
      <point x="166" y="43"/>
      <point x="161" y="43" type="qcurve"/>
      <point x="153" y="43"/>
      <point x="151" y="46" type="qcurve"/>
      <point x="115" y="82" type="line"/>
      <point x="113" y="84"/>
      <point x="113" y="87" type="qcurve"/>
      <point x="113" y="94"/>
      <point x="126" y="115" type="qcurve"/>
      <point x="135" y="131"/>
      <point x="138" y="138" type="qcurve"/>
      <point x="152" y="162"/>
      <point x="217" y="242"/>
      <point x="228" y="256" type="qcurve"/>
      <point x="279" y="316"/>
      <point x="298" y="370" type="qcurve"/>
      <point x="299" y="376"/>
      <point x="303" y="383" type="qcurve"/>
      <point x="299" y="383"/>
      <point x="295" y="383" type="qcurve"/>
      <point x="274" y="381"/>
      <point x="201" y="357"/>
      <point x="183" y="355" type="qcurve"/>
      <point x="183" y="349"/>
      <point x="183" y="343" type="qcurve"/>
      <point x="183" y="285"/>
      <point x="145" y="175"/>
      <point x="108" y="138" type="qcurve"/>
      <point x="72" y="103" type="line"/>
      <point x="41" y="72"/>
      <point x="1" y="59" type="qcurve"/>
      <point x="-4" y="57"/>
      <point x="-10" y="57" type="qcurve"/>
      <point x="-23" y="57"/>
      <point x="-43" y="77"/>
      <point x="-43" y="90" type="qcurve"/>
      <point x="-43" y="115"/>
      <point x="-20" y="122" type="qcurve"/>
      <point x="1" y="129" type="line"/>
      <point x="30" y="139"/>
      <point x="54" y="158" type="qcurve"/>
      <point x="112" y="232"/>
      <point x="112" y="343" type="qcurve"/>
      <point x="112" y="350"/>
      <point x="112" y="357" type="qcurve"/>
      <point x="75" y="360"/>
      <point x="68" y="367" type="qcurve"/>
      <point x="33" y="402" type="line"/>
      <point x="31" y="404"/>
      <point x="31" y="405" type="qcurve"/>
      <point x="31" y="408"/>
      <point x="34" y="410" type="qcurve"/>
      <point x="69" y="445" type="line"/>
      <point x="76" y="452"/>
      <point x="105" y="461" type="qcurve"/>
      <point x="113" y="464"/>
      <point x="120" y="464" type="qcurve"/>
      <point x="131" y="464"/>
      <point x="138" y="457" type="qcurve"/>
      <point x="169" y="425" type="line"/>
      <point x="193" y="425"/>
      <point x="275" y="452"/>
      <point x="295" y="453" type="qcurve"/>
      <point x="303" y="454"/>
      <point x="345" y="459"/>
      <point x="357" y="459" type="qcurve"/>
      <point x="371" y="459"/>
      <point x="392" y="438"/>
      <point x="392" y="424" type="qcurve"/>
      <point x="392" y="415"/>
      <point x="381" y="395" type="qcurve"/>
      <point x="371" y="378"/>
      <point x="368" y="370" type="qcurve"/>
      <point x="349" y="316"/>
      <point x="298" y="256" type="qcurve"/>
      <point x="288" y="242"/>
      <point x="223" y="162"/>
      <point x="208" y="138" type="qcurve"/>
      <point x="206" y="131"/>
      <point x="199" y="119" type="qcurve"/>
      <point x="202" y="119"/>
      <point x="205" y="119" type="qcurve"/>
      <point x="256" y="119"/>
      <point x="288" y="87" type="qcurve"/>
      <point x="315" y="60" type="line"/>
      <point x="323" y="66"/>
      <point x="337" y="77" type="qcurve"/>
      <point x="353" y="118" type="line"/>
      <point x="362" y="139"/>
      <point x="384" y="139" type="qcurve"/>
      <point x="397" y="139"/>
      <point x="417" y="120"/>
      <point x="417" y="106" type="qcurve"/>
      <point x="417" y="100"/>
      <point x="414" y="94" type="qcurve"/>
      <point x="402" y="64" type="line"/>
      <point x="397" y="50"/>
      <point x="367" y="29" type="qcurve"/>
      <point x="359" y="23"/>
      <point x="346" y="13" type="qcurve"/>
      <point x="350" y="-1"/>
      <point x="350" y="-16" type="qcurve"/>
      <point x="350" y="-19"/>
      <point x="350" y="-30"/>
      <point x="350" y="-33" type="qcurve"/>
      <point x="350" y="-41"/>
      <point x="351" y="-75"/>
      <point x="351" y="-83" type="qcurve"/>
      <point x="351" y="-134"/>
      <point x="328" y="-158" type="qcurve"/>
      <point x="323" y="-164"/>
      <point x="305" y="-194"/>
      <point x="299" y="-200" type="qcurve"/>
      <point x="264" y="-236" type="line"/>
      <point x="252" y="-247"/>
      <point x="235" y="-247" type="qcurve"/>
      <point x="223" y="-247"/>
      <point x="175" y="-251"/>
      <point x="163" y="-251" type="qcurve"/>
      <point x="162" y="-251"/>
      <point x="162" y="-251" type="qcurve"/>
      <point x="151" y="-251"/>
      <point x="144" y="-245" type="qcurve"/>
      <point x="109" y="-209" type="line"/>
      <point x="98" y="-198"/>
      <point x="98" y="-159" type="qcurve"/>
      <point x="98" y="-158"/>
      <point x="98" y="-155"/>
    </contour>
    <contour>
      <point x="279" y="-33" type="qcurve"/>
      <point x="270" y="-38"/>
      <point x="261" y="-41" type="qcurve"/>
      <point x="253" y="-44"/>
      <point x="224" y="-64"/>
      <point x="215" y="-67" type="qcurve"/>
      <point x="202" y="-75"/>
      <point x="185" y="-90" type="qcurve"/>
      <point x="168" y="-114"/>
      <point x="168" y="-143" type="qcurve"/>
      <point x="168" y="-145"/>
      <point x="168" y="-152"/>
      <point x="168" y="-155" type="qcurve"/>
      <point x="168" y="-155"/>
      <point x="168" y="-158"/>
      <point x="168" y="-159" type="qcurve"/>
      <point x="168" y="-173"/>
      <point x="169" y="-181" type="qcurve"/>
      <point x="179" y="-180"/>
      <point x="223" y="-177"/>
      <point x="235" y="-177" type="qcurve"/>
      <point x="241" y="-177"/>
      <point x="246" y="-175" type="qcurve"/>
      <point x="252" y="-164"/>
      <point x="258" y="-158" type="qcurve"/>
      <point x="280" y="-134"/>
      <point x="280" y="-83" type="qcurve"/>
      <point x="280" y="-75"/>
      <point x="279" y="-41"/>
    </contour>
  </outline>
</glyph>
<glyph name="braceleft" format="2">
  <advance width="306"/>
  <unicode hex="007B"/>
  <outline>
    <contour>
      <point x="118" y="506" type="qcurve"/>
      <point x="118" y="534"/>
      <point x="100" y="659"/>
      <point x="100" y="687" type="qcurve"/>
      <point x="100" y="741"/>
      <point x="124" y="764" type="qcurve"/>
      <point x="160" y="800" type="line"/>
      <point x="176" y="816"/>
      <point x="204" y="820" type="qcurve"/>
      <point x="207" y="821"/>
      <point x="209" y="821" type="qcurve"/>
      <point x="224" y="821"/>
      <point x="244" y="800"/>
      <point x="244" y="786" type="qcurve"/>
      <point x="244" y="773"/>
      <point x="228" y="753"/>
      <point x="215" y="751" type="qcurve"/>
      <point x="191" y="748"/>
      <point x="181" y="743" type="qcurve"/>
      <point x="171" y="722"/>
      <point x="171" y="687" type="qcurve"/>
      <point x="171" y="659"/>
      <point x="188" y="534"/>
      <point x="188" y="506" type="qcurve"/>
      <point x="188" y="491"/>
      <point x="169" y="462"/>
      <point x="136" y="428"/>
      <point x="131" y="421" type="qcurve"/>
      <point x="155" y="398" type="line"/>
      <point x="166" y="387"/>
      <point x="177" y="336"/>
      <point x="180" y="292"/>
      <point x="181" y="247" type="qcurve"/>
      <point x="184" y="118"/>
      <point x="202" y="64" type="qcurve"/>
      <point x="206" y="63"/>
      <point x="211" y="63" type="qcurve"/>
      <point x="214" y="63"/>
      <point x="218" y="64"/>
      <point x="220" y="64" type="qcurve"/>
      <point x="235" y="64"/>
      <point x="255" y="43"/>
      <point x="255" y="28" type="qcurve"/>
      <point x="255" y="15"/>
      <point x="237" y="-5"/>
      <point x="224" y="-6" type="qcurve"/>
      <point x="214" y="-8"/>
      <point x="211" y="-8" type="qcurve"/>
      <point x="189" y="-8"/>
      <point x="178" y="4" type="qcurve"/>
      <point x="143" y="39" type="line"/>
      <point x="138" y="44"/>
      <point x="136" y="50" type="qcurve"/>
      <point x="114" y="107"/>
      <point x="110" y="247" type="qcurve"/>
      <point x="108" y="342"/>
      <point x="99" y="372" type="qcurve"/>
      <point x="97" y="372"/>
      <point x="94" y="372"/>
      <point x="88" y="371"/>
      <point x="87" y="371" type="qcurve"/>
      <point x="74" y="371"/>
      <point x="55" y="392"/>
      <point x="55" y="407" type="qcurve"/>
      <point x="55" y="417"/>
      <point x="79" y="443" type="qcurve"/>
      <point x="118" y="483"/>
    </contour>
  </outline>
</glyph>
<glyph name="bar" format="2">
  <advance width="226"/>
  <unicode hex="007C"/>
  <outline>
    <contour>
      <point x="148" y="0" type="line"/>
      <point x="148" y="-15"/>
      <point x="128" y="-35"/>
      <point x="98" y="-35"/>
      <point x="78" y="-15"/>
      <point x="78" y="0" type="qcurve"/>
      <point x="78" y="781" type="line"/>
      <point x="78" y="796"/>
      <point x="98" y="816"/>
      <point x="128" y="816"/>
      <point x="148" y="796"/>
      <point x="148" y="781" type="qcurve"/>
    </contour>
  </outline>
</glyph>
<glyph name="asciitilde" format="2">
  <advance width="505"/>
  <unicode hex="007E"/>
  <outline>
    <contour>
      <point x="373" y="435" type="qcurve"/>
      <point x="338" y="435"/>
      <point x="258" y="398"/>
      <point x="179" y="361"/>
      <point x="144" y="361" type="qcurve"/>
      <point x="119" y="361"/>
      <point x="93" y="371" type="qcurve"/>
      <point x="76" y="371"/>
      <point x="56" y="390" type="qcurve"/>
      <point x="21" y="426" type="line"/>
      <point x="5" y="442"/>
      <point x="5" y="456" type="qcurve"/>
      <point x="5" y="459" type="line"/>
      <point x="5" y="473"/>
      <point x="25" y="494"/>
      <point x="55" y="494"/>
      <point x="75" y="473"/>
      <point x="75" y="459" type="qcurve"/>
      <point x="75" y="456" type="line"/>
      <point x="75" y="451"/>
      <point x="78" y="445" type="qcurve"/>
      <point x="86" y="441"/>
      <point x="93" y="441" type="qcurve"/>
      <point x="119" y="432"/>
      <point x="144" y="432" type="qcurve"/>
      <point x="179" y="432"/>
      <point x="258" y="469"/>
      <point x="338" y="505"/>
      <point x="373" y="505" type="qcurve"/>
      <point x="374" y="505"/>
      <point x="390" y="504" type="qcurve"/>
      <point x="454" y="467" type="line"/>
      <point x="501" y="427" type="line"/>
      <point x="510" y="419"/>
      <point x="510" y="407" type="qcurve"/>
      <point x="510" y="396"/>
      <point x="494" y="380"/>
      <point x="483" y="380" type="qcurve"/>
      <point x="473" y="380"/>
      <point x="466" y="387" type="qcurve"/>
      <point x="454" y="396" type="line"/>
      <point x="390" y="433" type="line"/>
      <point x="374" y="435"/>
    </contour>
  </outline>
</glyph>
